<?xml version="1.0" encoding="UTF-8" standalone="no"?>
<!-- Created with Inkscape (http://www.inkscape.org/) -->

<svg
   width="210mm"
   height="297mm"
   viewBox="0 0 210 297"
   version="1.1"
   id="svg1"
   inkscape:version="1.3.2 (091e20e, 2023-11-25, custom)"
   sodipodi:docname="axe.svg"
   xmlns:inkscape="http://www.inkscape.org/namespaces/inkscape"
   xmlns:sodipodi="http://sodipodi.sourceforge.net/DTD/sodipodi-0.dtd"
   xmlns="http://www.w3.org/2000/svg"
   xmlns:svg="http://www.w3.org/2000/svg">
  <sodipodi:namedview
     id="namedview1"
     pagecolor="#ffffff"
     bordercolor="#000000"
     borderopacity="0.25"
     inkscape:showpageshadow="2"
     inkscape:pageopacity="0.0"
     inkscape:pagecheckerboard="0"
     inkscape:deskcolor="#d1d1d1"
     inkscape:document-units="mm"
     inkscape:zoom="1.6204616"
     inkscape:cx="396.80053"
     inkscape:cy="561.25984"
     inkscape:window-width="3840"
     inkscape:window-height="2054"
     inkscape:window-x="3829"
     inkscape:window-y="-11"
     inkscape:window-maximized="1"
     inkscape:current-layer="layer1" />
  <defs
     id="defs1" />
  <g
     inkscape:label="Layer 1"
     inkscape:groupmode="layer"
     id="layer1">
    <path
       style="fill:#502d16;stroke-width:0.264583"
       d="m 59.106101,75.923584 c 0.727321,0.429712 0.981591,0.983522 1.306213,1.632764 0.150297,0.300596 0.339532,0.02596 0.489829,0.326554 0.08645,0.172906 0.100015,0.46332 0.163277,0.653106 0.394226,1.182679 -0.04707,-0.257424 0.326554,0.489828 0.168902,0.337807 0.124772,1.084451 0.163274,1.469491 0.08941,0.89408 0.344816,1.742331 0.489831,2.612424 0.103098,0.618583 -0.152132,1.350791 0,1.959316 0.01865,0.07467 0.138936,0.09026 0.163277,0.163278 0.07971,0.239119 -0.06119,0.571629 0,0.816382 0.02951,0.118068 0.13376,0.208489 0.163275,0.326554 0.139544,0.55817 -0.09462,1.228323 0,1.796042 0.02,0.120044 0.139411,0.207216 0.163277,0.326554 0.249568,1.247833 -0.157803,2.6562 0,3.918635 0.02783,0.222671 0.131543,0.430959 0.163277,0.653106 0.08364,0.585515 -0.09719,1.212905 0,1.796042 0.21491,1.289454 0.163277,-0.293921 0.163277,0.979659 0,1.542981 -0.191191,3.205496 0,4.735021 0.186071,1.48857 0.01632,2.939 0.163277,4.40847 0.19989,1.99891 0.214508,4.02443 0.326551,6.04123 0.05215,0.93874 0.232161,1.97462 0.163277,2.93897 -0.08585,1.20191 -0.234286,2.39261 -0.326551,3.59209 -0.07489,0.97359 0.08109,1.96593 0,2.93897 -0.113723,1.36465 -0.235366,2.7141 -0.326554,4.08192 -0.09125,1.36869 -0.409075,2.70908 -0.489831,4.08191 -0.188426,3.20325 -0.09745,6.42586 -0.326552,9.63331 -0.115853,1.62193 -0.348975,3.27847 -0.489831,4.8983 -0.155945,1.79339 -0.326892,3.59583 -0.489828,5.38813 -0.08909,0.98002 -0.359603,1.96228 -0.489829,2.93897 -0.154008,1.15507 -0.145407,2.47271 -0.489831,3.59209 -0.121896,0.39616 -0.375959,0.74439 -0.489828,1.14293 -0.211452,0.74008 -0.16528,1.53327 -0.326554,2.28587 -0.246314,1.14947 -0.404445,1.01261 -0.489829,2.1226 -0.129584,1.68459 -0.20584,3.3716 -0.326554,5.06157 -0.05429,0.76002 0.05429,1.52585 0,2.28587 -0.132701,1.85783 -0.585419,3.7037 -0.816382,5.5514 -0.191918,1.53536 -0.199162,3.04575 -0.489831,4.57175 -0.145807,0.76549 -0.38454,1.51376 -0.489828,2.28587 -0.151834,1.11345 -0.0145,2.31306 -0.163277,3.4288 -0.05931,0.44487 -0.25277,0.86352 -0.326552,1.30622 -0.531815,5.31815 0.225396,-1.27725 -0.489831,2.7757 -0.312798,1.77253 -0.328094,3.60903 -0.489828,5.38812 -0.108853,0.81639 -0.217702,1.63277 -0.326554,2.44915 -0.10885,0.38098 -0.267777,0.7511 -0.326554,1.14294 -0.105265,0.70177 -0.08899,1.41687 -0.163275,2.12259 -0.165139,1.56883 -0.571201,3.18219 -0.816382,4.73502 -0.329004,2.08368 0.06374,-0.0492 -0.489831,1.79604 -0.268716,0.89573 -0.411377,1.86922 -0.653106,2.7757 -0.25858,0.96968 -0.335753,1.98692 -0.653105,2.93898 -0.15394,0.46182 -0.465878,0.85686 -0.653108,1.30621 -0.313688,0.75286 -0.01648,0.64267 -0.326552,1.46949 -0.0689,0.18374 -0.270166,0.30187 -0.326554,0.48983 -0.110585,0.36862 -0.06201,0.77165 -0.163277,1.14294 -0.423346,1.55227 -0.270803,-0.22697 -0.489828,1.30621 -0.137983,0.96588 -0.314494,1.99549 0,2.93898 0.212259,0.63678 -0.212259,1.48581 0,2.12259 0.02434,0.073 0.144608,0.0886 0.163277,0.16328 0.196519,0.78608 -0.05506,1.85486 -0.163277,2.61242 -0.137448,0.96214 -0.08486,2.98519 0,3.91864 0.231108,2.54218 0.07973,-0.42532 0.326554,1.79604 0.126706,1.14037 -0.253008,3.39644 0,4.40847 0.10885,0.32655 0.217702,0.6531 0.326551,0.97966 0.05443,0.10885 0.124794,0.2111 0.163277,0.32655 0.05443,0.16328 -0.108852,0.32655 0,0.48983 0.06751,0.10126 0.240499,0.0772 0.326554,0.16327 0.03848,0.0385 -0.03849,0.1248 0,0.16328 0.192421,0.19243 0.394941,0.40378 0.653106,0.48983 0.103264,0.0344 0.235982,-0.0604 0.326551,0 0.101262,0.0675 0.06202,0.25905 0.163277,0.32655 0.123039,0.082 1.448541,0.29585 1.632765,0.32656 0.290722,-0.32791 0.489831,0.27212 0.653108,0.32655 0.154898,0.0516 0.374375,-0.11545 0.489829,0 0.03848,0.0385 -0.04868,0.13894 0,0.16328 0.326554,0.16327 0.244914,-0.0816 0.489831,0 1.109559,0.36985 5.114499,0.53543 6.367782,0.32655 0.235622,-0.0393 2.116667,-0.64718 2.285873,-0.81638 0.08605,-0.0861 0.07722,-0.2405 0.163275,-0.32656 0.364937,-0.36493 0.878951,-0.56002 1.306213,-0.81638 0.132001,-0.0792 0.198469,-0.24116 0.326554,-0.32655 0.303779,-0.20252 0.721495,-0.23167 0.979657,-0.48983 0.08606,-0.0861 0.07722,-0.2405 0.163277,-0.32655 0.541565,-0.54157 1.351743,-0.80304 1.796042,-1.46949 0.104296,-0.15645 0.162073,-0.48863 0.326554,-0.65311 0.138758,-0.13876 0.388869,-0.15828 0.489828,-0.32655 0.08401,-0.14001 -0.06064,-0.33823 0,-0.48983 0.301557,-0.75389 0.276659,0.0121 0.653108,-0.48983 0.356254,-0.47501 0.393158,-1.11287 0.653106,-1.63277 0.444878,-0.88975 1.152387,-1.58446 1.632765,-2.44914 0.272126,-0.48983 0.588803,-0.95744 0.816382,-1.46949 0.09114,-0.20506 0.06292,-0.4524 0.163277,-0.65311 0.121698,-0.2434 0.357672,-0.41522 0.489829,-0.65311 0.362381,-0.65228 0.396533,-1.25374 0.653105,-1.95931 0.580541,-1.59648 0.124415,0.13602 0.489831,-1.14294 0.183949,-0.64382 0.278143,-1.32426 0.489829,-1.95932 0.14705,-0.44114 0.377049,-0.85508 0.489831,-1.30621 0.159771,-0.63909 -0.06538,-1.46875 0,-2.12259 0.249184,-2.49186 0.163277,-4.99606 0.163277,-7.51072 0,-0.79979 -0.0988,-1.6588 0,-2.44915 0.02783,-0.22267 0.135442,-0.43044 0.163274,-0.65311 0.105966,-0.84771 -0.02969,-1.58078 0.163277,-2.44915 0.0264,-0.1188 0.139409,-0.20721 0.163277,-0.32655 0.06803,-0.34016 -0.04536,-0.4989 0,-0.81638 0.07096,-0.49674 0.27114,-0.97078 0.326554,-1.46949 0.114721,-1.0325 0.166891,-2.06446 0.326551,-3.10225 0.341797,-2.22167 -0.06819,0.27275 0.489831,-1.95932 0.3448,-1.3792 0.03718,-0.57222 0.163277,-1.95932 0.06015,-0.66164 0.24479,-1.30522 0.326552,-1.95932 0.126582,-1.01266 -0.07265,-2.08511 0,-3.10225 0.322228,-4.51119 0.009,3.25761 0.326554,-2.7757 0.04577,-0.86961 -0.07232,-1.74463 0,-2.61243 0.02304,-0.27656 0.140229,-0.53982 0.163277,-0.81638 0.08529,-1.02354 -0.113406,-2.0816 0,-3.10225 0.07312,-0.65807 0.24919,-1.30174 0.326551,-1.95932 0.132199,-1.1237 0.0037,-2.31192 0.163277,-3.42881 0.02434,-0.17038 0.138938,-0.31945 0.163277,-0.48983 0.201856,-1.41299 0.0108,-3.0158 -0.163277,-4.40847 -0.192854,-1.54283 0.08611,-3.18497 0,-4.73501 -0.07907,-1.42334 -0.176821,-0.76148 -0.326554,-1.95932 -0.155678,-1.24544 0,-2.67399 0,-3.91864 0,-2.83013 0,-5.66025 0,-8.49038 0,-4.45966 -0.114464,-8.9448 0.163277,-13.38867 0.03265,-0.52249 -0.04082,-2.53079 0,-2.93898 0.05523,-0.55228 0.268449,-1.08078 0.326554,-1.63277 0.05128,-0.48713 0,-0.97966 0,-1.46948 0.10885,-0.54426 0.265261,-1.08113 0.326552,-1.63277 0.215175,-1.93657 -0.03029,-3.9423 0.163277,-5.87796 0.130849,-1.3085 0.0822,-2.45804 0.163277,-3.75536 0.024,-0.38409 0.137676,-0.75894 0.163277,-1.14293 0.09754,-1.4631 -0.09147,-2.94492 0,-4.40847 0.207817,-3.32507 0.594164,-6.778 0.326554,-10.12314 -0.04002,-0.50018 -0.271142,-0.97078 -0.326554,-1.46949 -0.0622,-0.55981 0.04838,-1.98351 0,-2.61242 -0.0254,-0.330086 -0.135784,-0.64975 -0.163277,-0.979664 -0.103563,-1.242777 0.112895,-2.513513 0,-3.755361 -0.188894,-2.077839 -0.721111,-4.136128 -0.97966,-6.204506 -0.116014,-0.928113 -0.195688,-1.859653 -0.326551,-2.775701 -0.100484,-0.703379 -0.400087,-1.404654 -0.489831,-2.122596 -0.16319,-1.305512 -0.207251,-2.606326 -0.326552,-3.918635 -0.0089,-0.614545 -0.266006,-1.190567 -0.326554,-1.796042 -0.02708,-0.270777 0.03375,-0.546357 0,-0.816383 -0.06787,-0.542972 -0.440367,-1.088681 -0.489831,-1.632764 -0.0901,-0.991098 -0.0073,-1.818058 -0.326551,-2.775702 -0.07697,-0.23091 -0.278818,-0.414435 -0.326554,-0.653105 -0.117896,-0.589476 -0.07826,-1.200936 -0.163277,-1.796042 -0.04868,-0.34076 -0.269962,-0.640128 -0.326551,-0.97966 -0.02684,-0.161054 0.03202,-0.329723 0,-0.489831 -0.206211,-1.031052 -0.03326,-0.03326 -0.326554,-0.326551 -0.07697,-0.07697 0.03442,-0.22329 0,-0.326554 -0.07697,-0.230907 -0.267521,-0.416975 -0.326552,-0.653106 -0.326554,-1.306213 0.653106,1.306211 0,-0.979659 -0.05391,-0.188685 -0.264499,-0.303665 -0.326554,-0.489831 -0.05163,-0.154898 0.0396,-0.331428 0,-0.489828 -0.01868,-0.07467 -0.108852,-0.108853 -0.163277,-0.163277 -0.05442,-0.163277 -0.129524,-0.321064 -0.163277,-0.489829 -0.02135,-0.106738 0.06038,-0.235984 0,-0.326554 -0.06751,-0.101259 -0.259046,-0.06202 -0.326551,-0.163277 -0.100478,-0.150717 0.100478,-0.502388 0,-0.653105 -0.08539,-0.128085 -0.247354,-0.194551 -0.326554,-0.326554 -0.49784,-0.115586 -0.06292,-0.452393 -0.163277,-0.653106 -0.08779,-0.175585 -0.428734,-0.571997 -0.489829,-0.816382 -0.141385,-0.565539 0.206754,-0.09806 -0.163277,-0.653106 -0.203419,-0.30513 -0.480785,-0.471739 -0.653105,-0.816382 -0.108548,-0.217096 -0.87943,-1.402668 -0.97966,-1.469491 -0.09057,-0.06038 -0.229195,0.04868 -0.326554,0 -0.137686,-0.06884 -0.188865,-0.257709 -0.326551,-0.326551 -0.09736,-0.04868 -0.229195,0.04868 -0.326554,0 -0.137687,-0.06884 -0.194551,-0.247354 -0.326554,-0.326554 -0.719048,-0.431427 -3.543284,-0.326552 -4.571741,-0.326552 -1.694212,0 -3.443785,-0.153294 -4.898297,0.816383 -0.128085,0.08539 -0.198469,0.241162 -0.326552,0.326551 -0.25337,0.168913 -0.106235,-0.277362 -0.326554,0.163277 -0.02434,0.04868 0.03848,0.124794 0,0.163277 -0.104976,0.104976 -0.548129,0.384853 -0.653105,0.489829 -0.463717,0.463716 -0.848405,1.011679 -1.306214,1.46949 -0.192423,0.192424 -0.460681,0.297405 -0.653105,0.489829 -0.277516,0.277516 -0.346641,0.734486 -0.653105,0.979659 -0.134396,0.107516 -0.368131,0.04158 -0.489831,0.163277 -0.530289,0.530291 -0.05266,0.321255 -0.163278,0.653106 -0.276116,0.828352 -0.638548,1.559986 -0.816382,2.449147 -0.08605,0.430273 -0.07134,0.87716 -0.163274,1.306213 -0.330708,1.543299 -0.371436,0.43257 -0.653108,2.122594 -0.04474,0.268425 0.03005,0.54592 0,0.816382 -0.08919,0.802735 -0.428879,1.978893 -0.163277,2.775702 0.224403,0.673205 0.77784,1.187547 1.142936,1.796042 0.16964,0.282733 0.868765,1.747141 1.469488,2.122595 0.272129,0.10885 0.544256,0.217702 0.816385,0.326552 0.05443,0.163277 0.02558,0.386564 0.163274,0.489831 0.130623,0.09797 0.329724,-0.03202 0.489831,0 0.746464,0.149291 -0.11649,0.181991 0.653106,0.489828 0.151598,0.06064 0.331428,-0.0396 0.489828,0 0.07467,0.01868 0.08631,0.163277 0.163277,0.163277 0.05443,0 0,-0.108852 0,-0.163277 0,-0.326551 0,-0.653105 0,-0.979659 0,-0.701321 -0.548145,-1.642105 -0.816382,-2.28587 -0.13239,-0.317739 -0.243068,-0.645719 -0.326552,-0.97966 -0.02641,-0.1056 0.056,-0.233214 0,-0.326554 -0.118803,-0.198001 -0.37103,-0.291827 -0.489831,-0.489828 -0.056,-0.09334 0,-0.217702 0,-0.326554 -0.05442,-0.163275 -0.06781,-0.346626 -0.163277,-0.489829 -0.128084,-0.192127 -0.375266,-0.289346 -0.489828,-0.489828 -0.196583,-0.344019 -0.138703,-0.794073 -0.326554,-1.142937 -0.537424,-0.998077 -1.091509,-1.828503 -1.632765,-2.775701 -0.1729,-0.302578 -0.406683,-1.062805 -0.653105,-0.816383 -0.05749,0.05749 0.463084,1.585961 0.489828,1.632765 0.114565,0.200486 0.351285,0.305105 0.489831,0.489831 0.380823,0.507762 0.6389,1.097288 0.97966,1.632765 0.210706,0.33111 0.435403,0.653106 0.653105,0.97966 0.163277,0.380976 0.274315,0.788876 0.489828,1.142934 0.549455,0.902676 1.258443,1.702638 1.796042,2.612424 0.175115,0.296347 0.198716,0.660061 0.326554,0.979659 0.572503,1.431256 0.064,-0.03527 0.653106,1.142937 0.07302,0.146039 -0.0396,0.331428 0,0.489828 0.02952,0.118065 0.124793,0.211101 0.163277,0.326554 0.114247,0.342739 -0.08786,0.791499 0,1.142937 0.04174,0.166968 0.129524,0.321061 0.163277,0.489828 0.02135,0.106738 -0.04868,0.229193 0,0.326554 0.02434,0.04868 0.124791,-0.03849 0.163277,0 0.06558,0.06558 -0.03078,0.397484 0,0.489829 0.128172,0.384519 0.326551,0.580813 0.326551,0.979659"
       id="path1" />
    <path
       style="fill:#454837;stroke-width:0.264583"
       d="m 70.862012,59.595932 c 1.007234,0.276992 2.065959,0.66834 3.102253,0.816382 0.586708,0.08382 1.209336,-0.08381 1.796042,0 1.762222,0.251746 4.443732,0.339355 6.204508,0.163277 0.643564,-0.06436 1.052803,-0.324127 1.632765,-0.489831 0.893021,-0.255148 1.882018,-0.266409 2.775701,-0.489828 1.05365,-0.263414 2.180479,-0.545121 3.26553,-0.816383 0.68444,-0.171111 1.292648,-0.186798 1.959319,-0.489831 0.247734,-0.112606 0.404431,-0.379306 0.653105,-0.489828 0.559112,-0.248494 1.080654,-0.08993 1.632765,-0.326554 0.425013,0.181721 0.712338,-0.519446 0.97966,-0.653105 1.892294,-0.946148 -0.121166,0.203665 0.979659,-0.163277 0.407815,-0.135938 0.87407,-0.480248 1.306213,-0.653106 0.163275,-0.05442 0.326552,-0.108852 0.489829,-0.163277 0.108852,0 0.223287,0.03442 0.326554,0 0.270319,-0.09011 2.621515,-1.152025 2.775705,-1.306213 0.0385,-0.03848 -0.0453,-0.133086 0,-0.163275 0.1432,-0.09547 0.33588,-0.08631 0.48982,-0.163277 0.71273,-0.356359 1.4596,-0.864216 2.1226,-1.306213 2.24205,-1.494698 -1.05834,0.630481 1.30621,-1.142934 0.19472,-0.14604 0.46612,-0.170733 0.65311,-0.326554 0.15075,-0.125627 0.18779,-0.351071 0.32655,-0.489829 0.35105,-0.351049 0.96848,-0.478655 1.30621,-0.816382 0.0385,-0.03849 -0.0487,-0.138938 0,-0.163277 0.0974,-0.04868 0.22329,0.03442 0.32656,0 0.50963,-0.169881 -0.0544,-0.108852 0.16327,-0.326554 0.0861,-0.08605 0.2292,-0.09026 0.32655,-0.163277 0.70941,-0.532056 0.93375,-1.2705 1.46949,-1.959316 0.12048,-0.154898 0.35108,-0.187796 0.48983,-0.326554 0.0602,-0.06022 0.74723,-1.027669 0.81639,-1.142937 0.0885,-0.147582 0.0558,-0.355436 0.16327,-0.489828 0.12259,-0.153234 0.35107,-0.187796 0.48983,-0.326554 0.24967,-0.249667 0.19326,-0.713076 0.32656,-0.97966 0.21287,-0.425757 0.68102,-0.784579 0.97965,-1.142934 0.25126,-0.301503 0.3977,-0.681675 0.65311,-0.979659 0.20036,-0.23376 0.46409,-0.410083 0.65311,-0.653108 0.19483,-0.250502 0.29941,-0.562499 0.48983,-0.816383 0.27709,-0.369451 0.74205,-0.583655 0.97966,-0.979656 0.056,-0.09334 -0.0604,-0.235985 0,-0.326555 0.0675,-0.101261 0.24049,-0.07722 0.32655,-0.163277 0.19242,-0.192423 0.24643,-0.531407 0.48983,-0.653105 0.0487,-0.02434 0.12479,0.03848 0.16328,0 0.0385,-0.03849 0,-0.217702 0,-0.163277 0,0.655188 0.28234,0.238133 0.48982,0.653105 0.0243,0.04868 -0.0385,0.124794 0,0.163277 0.0385,0.03848 0.1248,-0.03848 0.16328,0 0.0385,0.03848 -0.0385,0.124794 0,0.163277 0.077,0.07697 0.22919,-0.04868 0.32655,0 0.25917,0.129583 0.38208,0.54536 0.48983,0.653106 0.0861,0.08606 0.2405,0.07722 0.32656,0.163277 0.0385,0.03848 -0.0385,0.124791 0,0.163277 0.0385,0.03848 0.12479,-0.03849 0.16327,0 0.077,0.07697 -0.0264,0.220951 0,0.326551 0.0544,0.163277 0.10885,0.326554 0.16328,0.489831 0.0544,0 0.13894,-0.04868 0.16328,0 0.12203,0.244073 0.0752,0.715547 0.16327,0.97966 0.10902,0.327043 0.42647,0.762751 0.48983,1.142934 0.0358,0.214741 -0.0528,0.441904 0,0.653108 0.17045,0.681775 0.64622,1.278652 0.81638,1.959316 0.0528,0.211204 -0.0427,0.439632 0,0.653108 0.19459,0.972918 0.18386,0.102907 0.32656,0.816383 0.2272,1.136007 0.28081,1.985356 0.6531,3.102252 0.0815,0.244359 -0.0626,0.566002 0,0.816383 0.0916,0.366384 0.40918,0.900977 0.48983,1.142936 0.0516,0.154898 -0.0231,0.328195 0,0.489829 0.10181,0.712623 0.17148,0.522634 0.32656,1.142936 0.24433,0.97735 0.37298,1.958544 0.6531,2.938979 0.14921,0.522226 0.42281,1.096544 0.48983,1.632764 0.0337,0.270026 -0.0271,0.545606 0,0.816383 0.0726,0.726503 0.40005,1.404384 0.48983,2.122593 0.12979,1.03831 0.31885,2.076389 0.48983,3.102256 0.0595,0.35719 -0.0881,0.790392 0,1.142936 0.49271,1.970813 0.5863,4.297056 0.81638,6.367783 0.12341,1.110689 0,2.30932 0,3.428807 0,1.632764 0,3.265532 0,4.898297 0,0.663863 0.13005,1.472345 0,2.122593 -0.29597,1.479884 -0.32655,2.905903 -0.32655,4.408466 0,0.463532 0.1484,1.350836 0,1.796042 -0.0243,0.07302 -0.14461,0.08861 -0.16327,0.163277 -0.0396,0.158401 0.0268,0.328774 0,0.489829 -0.12096,0.725754 -0.57064,1.380389 -0.65311,2.122596 -0.0481,0.432742 0.0616,0.875183 0,1.306211 -0.0819,0.573397 -0.37799,1.073539 -0.48983,1.632767 -0.12538,0.62688 0.10507,1.328902 0,1.959316 -0.22016,1.320919 -0.6517,2.60113 -0.81638,3.918636 -0.0786,0.62904 0.12448,1.33693 0,1.95932 -0.0239,0.11934 -0.13941,0.20722 -0.16328,0.32655 -0.0747,0.37358 0,0.76196 0,1.14294 0,0.62156 0.10199,1.34738 0,1.95932 -0.0566,0.33953 -0.28854,0.63754 -0.32655,0.97966 -0.19794,1.78144 0.23225,0.2139 -0.16328,1.79604 -0.14964,0.59856 -0.42616,1.32258 -0.48983,1.95932 -0.0271,0.27077 0.0385,0.54699 0,0.81638 -0.0414,0.29014 -0.25547,0.53204 -0.32655,0.81638 -0.0264,0.1056 0.0487,0.2292 0,0.32655 -0.0688,0.13769 -0.25771,0.18887 -0.32656,0.32656 -0.0243,0.0487 0,0.10885 0,0.16327 -0.10885,0.27213 -0.19547,0.55424 -0.32655,0.81639 -0.0878,0.17551 -0.25765,0.30609 -0.32655,0.48983 -0.0974,0.25984 -0.054,0.5613 -0.16328,0.81638 -0.74328,0.74328 -0.0863,-0.0676 -0.32655,0.6531 -0.006,0.0195 -0.32423,0.65311 -0.16328,0.65311 0.0544,0 0,-0.10885 0,-0.16327 0,-0.10886 0.077,-0.24959 0,-0.32656 -0.0861,-0.086 -0.2405,-0.0772 -0.32655,-0.16328 -0.11545,-0.11545 0.0396,-0.33142 0,-0.48982 -0.0295,-0.11807 -0.10885,-0.21771 -0.16328,-0.32656 -0.10885,-0.27212 -0.25547,-0.53204 -0.32655,-0.81638 -0.0396,-0.1584 0.0449,-0.33284 0,-0.48983 -0.26625,-0.93186 -0.76248,-1.498 -1.14294,-2.44915 -0.0729,-0.1822 -0.27896,-0.29945 -0.32655,-0.48983 -0.0396,-0.1584 0.032,-0.32972 0,-0.48983 -0.0477,-0.23867 -0.24958,-0.42219 -0.32655,-0.6531 -0.27226,-0.81676 -0.0677,-0.56363 -0.32655,-1.46949 -0.27212,-0.95239 -0.65294,-2.24475 -1.14294,-3.10225 -0.0764,-0.13366 -0.24735,-0.19456 -0.32656,-0.32656 -0.22583,-0.3764 -0.20797,-0.62393 -0.32655,-0.97966 -0.0706,-0.21188 -0.36093,-0.45976 -0.48983,-0.6531 -0.37691,-0.56537 -0.88411,-1.4058 -1.46949,-1.79605 -0.10125,-0.0675 -0.24049,-0.0772 -0.32655,-0.16327 -0.15308,-0.15308 -0.27258,-0.50828 -0.48983,-0.65311 -0.20252,-0.13501 -0.48099,-0.15444 -0.6531,-0.32655 -0.66392,-0.995872 0.0163,-0.151037 -0.65311,-0.653107 -0.39193,-0.29395 -0.96432,-0.63777 -1.30621,-0.97966 -0.33372,-0.333713 -0.24917,-0.574016 -0.65311,-0.816382 -0.76423,-0.458542 -1.84505,-0.845788 -2.61242,-1.306211 -0.55737,-0.33442 -0.0811,-0.408022 -0.81638,-0.653108 -0.24638,-0.08212 -0.89656,-0.08115 -1.14294,-0.163277 -3.03915,-1.013047 0.79371,0.246864 -1.30621,-0.653105 -0.32098,-0.399312 -0.78562,-0.02035 -1.14294,-0.163278 -0.14293,-0.05717 -0.2177,-0.217701 -0.32655,-0.326551 -0.2177,-0.108852 -0.41908,-0.259686 -0.65311,-0.326554 -0.15699,-0.04485 -0.32877,0.02684 -0.489829,0 -0.339532,-0.05659 -0.640125,-0.269962 -0.979657,-0.326551 -0.744032,-0.124008 -1.571339,-0.183603 -2.285873,-0.489831 -0.842835,-0.361215 -0.119655,-0.317828 -0.979659,-0.489829 -0.266843,-0.05337 -0.54954,0.05337 -0.816382,0 -0.755889,-0.151177 -1.507279,-0.360066 -2.285871,-0.489831 -1.029218,-0.171535 -2.070388,-0.06947 -3.102255,-0.163277 -0.701302,-0.06375 -1.419336,-0.226086 -2.122594,-0.326551 -1.110181,-0.158597 -4.000132,-0.102084 -5.061571,0.163277 -0.07467,0.01868 -0.09444,0.128854 -0.163277,0.163274 -0.09736,0.04868 -0.229196,-0.04868 -0.326554,0 -0.377553,0.188778 -1.161987,0.489831 -1.632765,0.489831"
       id="path2" />
    <path
       style="fill:#c8c4b7;stroke-width:0.264583"
       d="m 115.27322,38.369983 c 0.55726,-0.239509 -0.12039,-1.185823 0.16328,-1.469488 0.077,-0.07697 0.27787,0.09736 0.32655,0 0.0653,-0.130622 -0.0653,-0.359209 0,-0.489831 0.19899,-0.397986 0.50982,-0.50982 0.81638,-0.816382 0.16645,-0.16645 -0.17979,-0.318297 0.16328,-0.489829 0.25203,-0.126016 0.87821,0.286938 0.97966,0.489829 0.0243,0.04868 -0.0516,0.146066 0,0.163277 0.30559,0.101862 0.69418,0.02053 0.97966,0.163277 0.0487,0.02434 -0.0243,0.114596 0,0.163274 0.33976,0.679519 -0.0113,-0.174548 0.32655,0.163277 0.077,0.07697 -0.0487,0.229195 0,0.326554 0.0688,0.137687 0.24117,0.198469 0.32655,0.326554 0.27599,0.413978 0.37578,0.890209 0.65311,1.306211 0.12864,0.192953 0.39182,0.228544 0.48983,0.326554 0.1217,0.121698 0.0416,0.368131 0.16328,0.489828 0.077,0.07697 0.26617,-0.09057 0.32655,0 0.0906,0.135856 -0.0396,0.331428 0,0.489832 0.0811,0.324363 0.31139,0.04431 0.48983,0.163274 0.37426,0.24951 -0.022,0.467833 0.16328,0.653108 0.0861,0.08605 0.24049,0.07722 0.32655,0.163274 0.0385,0.03849 -0.0172,0.111647 0,0.163277 0.11174,0.335233 0.40404,0.473245 0.48983,0.816383 0.11386,0.455456 0.0701,1.003842 0.16327,1.46949 0.0979,0.489392 0.41077,0.995104 0.48984,1.469488 0.0727,0.435996 0.0248,0.890672 0.16327,1.306211 0.0243,0.07302 0.13894,0.09026 0.16328,0.163277 0.13062,0.391864 -0.13062,0.91435 0,1.306214 0.22991,0.689729 0.48874,1.304041 0.81638,1.959316 0.11939,0.238776 -0.17657,0.803092 0,0.979659 0.0385,0.03849 0.14607,-0.05163 0.16328,0 0.0516,0.154898 -0.032,0.329724 0,0.489831 0.10308,0.515419 0.43974,1.042758 0.6531,1.469488 0.10944,0.218872 -0.0612,0.571733 0,0.816383 0.0874,0.349541 0.24296,0.645273 0.32656,0.979659 0.19086,0.763471 -0.12931,1.673302 0,2.449148 0.21951,1.317098 0.23126,2.911676 0.81638,4.081914 0.29408,0.588159 0.22231,3.737846 0.32655,4.571741 0.0151,0.120761 0.13376,0.208489 0.16328,0.326554 0.11525,0.461015 -0.11526,1.008473 0,1.469488 0.0187,0.07467 0.13893,0.09026 0.16327,0.163277 0.098,0.293899 -0.098,0.68576 0,0.979659 0.0243,0.07302 0.14461,0.08861 0.16328,0.163277 0.1964,0.785599 0.0679,1.673257 0.32655,2.449148 0.24737,0.742114 -0.11051,3.361071 0,4.245189 0.0214,0.170781 0.13894,0.31945 0.16328,0.489831 0.15077,1.055367 -0.20896,2.220738 0,3.26553 0.0337,0.168764 0.12952,0.321064 0.16328,0.489828 0.0942,0.47099 -0.0942,0.998501 0,1.469491 0.0239,0.119335 0.13941,0.207216 0.16327,0.326551 0.18824,0.941171 -0.13589,1.98769 0,2.938979 0.17035,1.192408 0.36753,2.693111 0.16328,3.918635 -0.0283,0.169767 -0.14193,0.31905 -0.16328,0.489831 -0.0971,0.776877 0.24638,1.873305 0,2.612424 -0.0487,0.14604 -0.29316,0.176279 -0.32655,0.326552 -0.19245,0.866047 0.0987,1.887754 0,2.775701 -0.11114,1.000289 -0.32532,1.951948 -0.48983,2.938978 -0.14127,0.84762 0.12158,1.761369 0,2.612425 -0.14094,0.986597 -0.36603,1.948547 -0.48983,2.938977 -0.0846,0.67723 0.0549,1.46361 0,2.12259 -0.0186,0.22363 -0.13544,0.43044 -0.16327,0.65311 -0.0789,0.63135 0.20104,1.51945 0,2.12259 -0.0172,0.0516 -0.14607,-0.0516 -0.16328,0 -0.0653,0.19593 0.0653,0.45718 0,0.65311 -0.23695,0.71085 -0.0181,1.39647 -0.16328,2.12259 -0.0544,0.16328 -0.10885,0.32656 -0.16328,0.48983 -0.0544,0.0544 -0.13468,0.0918 -0.16327,0.16328 -0.4738,1.18449 0.0339,0.15732 -0.16328,1.14294 -0.0787,0.39358 -0.47164,1.59639 -0.65311,1.95931 -0.0688,0.13769 -0.24116,0.19847 -0.32655,0.32656 -0.0906,0.13585 0.073,0.34379 0,0.48982 -0.0243,0.0487 -0.11799,-0.0302 -0.16327,0 -0.43126,0.28751 -0.3495,0.51278 -0.65311,0.81639 -0.0861,0.0861 -0.27213,0.0544 -0.32655,0.16327 -0.0487,0.0974 0.0604,0.23599 0,0.32656 -0.0675,0.10126 -0.2405,0.0772 -0.32655,0.16328 -0.19909,0.19908 -0.29075,0.45402 -0.48984,0.6531 -0.38499,0.385 -0.26213,0.70253 -0.48982,0.81638 -0.41143,0.20571 -1.33366,0 -1.79605,0 -0.0672,0 -0.4466,0.0432 -0.48983,0 -0.0385,-0.0385 0.0385,-0.12479 0,-0.16327 -0.0656,-0.0656 -0.39748,0.0308 -0.48983,0 -0.15367,-0.0512 -0.74118,-0.33944 -0.81638,-0.48983 -0.0243,-0.0487 0.0385,-0.1248 0,-0.16328 -0.0385,-0.0385 -0.12479,0.0385 -0.16327,0 -0.0385,-0.0385 0.0385,-0.12479 0,-0.16328 -0.0385,-0.0385 -0.1248,0.0385 -0.16328,0 -0.0755,-0.0755 0.0493,-0.39124 0,-0.48982 -0.0587,-0.11737 -0.51638,-1.21131 -0.32655,-1.30622 0.0974,-0.0487 0.23598,0.0604 0.32655,0 0.10126,-0.0675 0.0903,-0.22919 0.16328,-0.32655 0.0924,-0.12315 0.2577,-0.18887 0.32655,-0.32655 0.0487,-0.0974 -0.0487,-0.2292 0,-0.32656 0.0243,-0.0487 0.12479,0.0385 0.16327,0 0.0157,-0.0157 0.58759,-0.68533 0.65311,-0.81638 0.0243,-0.0487 -0.0385,-0.12479 0,-0.16328 0.0385,-0.0385 0.12479,0.0385 0.16328,0 0.24524,-0.24524 -0.11281,-1.45762 0,-1.79604 0.0172,-0.0516 0.12479,0.0385 0.16327,0 0.0221,-0.0221 0.32656,-2.64767 0.32656,-2.93897 0,-0.46913 -0.15637,-2.46296 0,-2.77571 0.25381,-0.50762 0.20786,-1.03932 0.32655,-1.63276 0.0151,-0.0755 0.13894,-0.0903 0.16328,-0.16328 0.15565,-0.46695 -0.21787,-1.19702 0,-1.63276 0.20773,-0.41548 0.19277,-0.31078 0.32655,-0.97966 0.0502,-0.25113 -0.0809,-0.57368 0,-0.81638 0.20946,-0.628395 0.3247,-1.298796 0.48983,-1.959321 0.13948,-0.557934 -0.10722,-0.928505 0.16328,-1.469488 0.21993,-0.439861 -0.0937,-2.935935 0,-3.592083 0.0243,-0.170379 0.13498,-0.320062 0.16327,-0.489829 0.0366,-0.219567 -0.0778,-0.746157 0,-0.979659 0.0243,-0.07302 0.13894,-0.09026 0.16328,-0.163277 0.098,-0.293897 -0.098,-0.685761 0,-0.97966 0.0612,-0.183621 0.29622,-0.471085 0.32655,-0.653105 0.0447,-0.268425 -0.0385,-0.546992 0,-0.816383 0.0374,-0.261924 0.25172,-0.619088 0.32655,-1.142936 0.0836,-0.585081 -0.0971,-1.213324 0,-1.796042 0.0916,-0.54978 0.38347,-0.937638 0.48984,-1.469488 0.083,-0.415187 -0.10255,-0.89603 0,-1.306213 0.0295,-0.118065 0.13376,-0.208487 0.16327,-0.326552 0.0514,-0.205581 -0.0977,-0.621069 0,-0.816382 0.0344,-0.06884 0.13894,-0.09026 0.16328,-0.163277 0.12106,-0.363183 0.076,-2.232306 0,-2.612425 -0.0755,-0.377274 -0.23867,-0.628105 -0.32655,-0.979659 -0.0528,-0.211201 0.0974,-0.458388 0,-0.653106 -0.0243,-0.04868 -0.13894,0.04868 -0.16328,0 -0.138,-0.275992 0,-1.634349 0,-1.959318 0,-0.453102 -0.088,-1.029558 0,-1.469488 0.0239,-0.119338 0.13941,-0.207219 0.16328,-0.326554 0.10069,-0.503455 0.003,-0.824339 0.16327,-1.306211 0.10149,-0.304483 0.12338,-4.038322 0,-4.408467 -0.0685,-0.205414 -0.24625,-0.412199 -0.32655,-0.653108 -0.0516,-0.154897 0.0516,-0.33493 0,-0.489828 -0.0243,-0.07302 -0.13894,-0.09026 -0.16328,-0.163277 -0.0987,-0.296217 0.076,-0.675521 0,-0.979659 -0.24155,-0.96619 -0.0883,-1.659382 -0.32655,-2.612425 -0.1156,-0.462402 0.0936,-1.001239 0,-1.469488 -0.13226,-0.661273 -0.11735,-1.331685 -0.32655,-1.959319 -0.13024,-0.390694 0.0809,-0.901869 0,-1.306211 -0.0675,-0.337534 -0.26997,-0.640127 -0.32656,-0.979659 -0.0537,-0.322112 0.14604,-0.687581 0,-0.979659 -0.0688,-0.137687 -0.25771,-0.188868 -0.32655,-0.326554 -0.0487,-0.09736 0.0487,-0.229193 0,-0.326552 -0.0243,-0.04868 -0.12479,0.03848 -0.16328,0 -0.0946,-0.09464 -0.23192,-0.558472 -0.32655,-0.653108 -0.0385,-0.03848 -0.12479,0.03849 -0.16328,0 -0.0385,-0.03848 0.0243,-0.114596 0,-0.163274 -0.33853,-0.677061 -0.62178,-1.344203 -0.81638,-2.122596 -0.0264,-0.105601 0.0344,-0.223287 0,-0.326554 -0.0243,-0.07302 -0.14461,-0.0886 -0.16328,-0.163275 -0.16195,-0.647798 0.21102,-1.489559 0,-2.122596 -0.0243,-0.07302 -0.15239,-0.08708 -0.16327,-0.163277 -0.0539,-0.37715 0.12047,-0.781507 0,-1.142936 -0.0385,-0.115454 -0.13941,-0.207217 -0.16328,-0.326552 -0.0592,-0.295891 0.0742,-0.682886 0,-0.979659 -0.10739,-0.429548 -0.36313,-0.762852 -0.48983,-1.142936 -0.14013,-0.420381 -0.10092,-1.032973 -0.16328,-1.469488 -0.0544,-0.217702 -0.10885,-0.435404 -0.16327,-0.653106 -0.0544,-0.05443 -0.14461,-0.08861 -0.16328,-0.163277 -0.0396,-0.158401 0.0396,-0.331427 0,-0.489831 -0.0187,-0.07467 -0.12885,-0.09443 -0.16327,-0.163274 -0.23243,-0.464847 -0.17171,-1.004935 -0.32656,-1.469491 -0.0243,-0.07302 -0.13893,-0.09026 -0.16327,-0.163274 -0.0688,-0.206531 0.0427,-0.439632 0,-0.653108 -0.0883,-0.441283 -0.31322,-0.62643 -0.48983,-0.97966 -0.59294,-1.18587 -0.52432,-1.483283 -2.1226,-2.122593 z"
       id="path3" />
  </g>
</svg>
