<?xml version="1.0" encoding="UTF-8" standalone="no"?>
<!-- Created with Inkscape (http://www.inkscape.org/) -->

<svg
   width="210mm"
   height="297mm"
   viewBox="0 0 210 297"
   version="1.1"
   id="svg1"
   inkscape:version="1.3.2 (091e20e, 2023-11-25, custom)"
   sodipodi:docname="fairy.svg"
   xmlns:inkscape="http://www.inkscape.org/namespaces/inkscape"
   xmlns:sodipodi="http://sodipodi.sourceforge.net/DTD/sodipodi-0.dtd"
   xmlns="http://www.w3.org/2000/svg"
   xmlns:svg="http://www.w3.org/2000/svg">
  <sodipodi:namedview
     id="namedview1"
     pagecolor="#ffffff"
     bordercolor="#000000"
     borderopacity="0.25"
     inkscape:showpageshadow="2"
     inkscape:pageopacity="0.0"
     inkscape:pagecheckerboard="0"
     inkscape:deskcolor="#d1d1d1"
     inkscape:document-units="mm"
     inkscape:zoom="6.4818462"
     inkscape:cx="433.36418"
     inkscape:cy="466.99658"
     inkscape:window-width="3840"
     inkscape:window-height="2054"
     inkscape:window-x="-11"
     inkscape:window-y="-11"
     inkscape:window-maximized="1"
     inkscape:current-layer="layer1" />
  <defs
     id="defs1" />
  <g
     inkscape:label="Layer 1"
     inkscape:groupmode="layer"
     id="layer1">
    <path
       id="path1"
       style="fill:#5599ff;stroke-width:0.264583"
       d="m 104.08667,104.70265 c -0.47413,-0.0222 -0.17704,0.23422 -0.36535,0.61082 -0.0344,0.0688 -0.10888,0.10887 -0.1633,0.1633 -0.10886,0.16327 -0.25372,0.3077 -0.3266,0.48989 -0.0404,0.10107 0.077,0.24962 0,0.32659 -0.12169,0.1217 -0.38662,0.0256 -0.48989,0.1633 -0.19593,0.26124 0.064,0.65905 0,0.97927 -0.0902,0.45098 -0.41462,1.35359 -0.32608,1.79627 0.0337,0.16877 0.16278,0.31779 0.16278,0.48989 0,0.12169 -0.16278,0.2049 -0.16278,0.3266 0,0.077 0.12835,0.0944 0.16278,0.1633 0.077,0.15394 0.12955,0.32061 0.1633,0.48937 0.0213,0.10674 -0.0604,0.23603 0,0.3266 0.0675,0.10126 0.24055,0.0772 0.3266,0.1633 0.0301,0.0301 0.13321,0.45981 0.16329,0.48989 0.0861,0.0861 0.25909,0.062 0.3266,0.1633 0.0604,0.0906 -0.0653,0.23951 0,0.32659 0.19406,0.25876 1.01035,0.83178 1.30638,0.97979 0.15394,0.077 0.35549,0.0558 0.48989,0.16329 0.15323,0.12259 0.20401,0.33666 0.3266,0.4899 1.17445,1.46804 -0.41334,-0.57664 0.65319,0.48989 0.0861,0.0861 0.0903,0.22872 0.1633,0.32608 0.24087,0.32116 1.37755,1.22274 1.79575,1.30638 0.1601,0.032 0.33499,-0.0516 0.48989,0 1.08567,0.3619 0.008,0.25881 0.81649,0.48989 0.59249,0.16929 3.13359,0.68466 3.42873,0.97979 0.077,0.077 0,0.21773 0,0.32659 0,0.29307 0.0278,0.7882 -0.16329,0.97927 -0.33783,0.33783 0.0132,-0.51622 -0.3266,0.1633 -0.24025,0.48049 0.37822,-0.21493 -0.1633,0.32659 -0.10885,0.10886 -0.27791,0.18056 -0.32659,0.3266 -0.0344,0.10326 0.0487,0.22923 0,0.32659 -0.0243,0.0487 -0.11462,-0.0243 -0.1633,0 -0.2434,0.1217 -0.29747,0.46076 -0.48989,0.65319 -0.0861,0.0861 -0.24055,0.0772 -0.3266,0.1633 -0.0385,0.0385 0.0243,0.11462 0,0.1633 -0.10327,0.20653 -0.35135,0.30516 -0.48989,0.48989 -0.16476,0.21968 -0.65373,1.0214 -0.81597,1.14308 -0.13769,0.10327 -0.36819,0.0411 -0.48989,0.16278 -0.077,0.077 0.0604,0.23603 0,0.3266 -0.0675,0.10126 -0.23311,0.0854 -0.3266,0.16329 -0.23652,0.1971 -0.4561,0.41668 -0.65319,0.6532 -0.31555,0.37864 -0.57298,0.81764 -0.97978,1.14308 -0.30647,0.24517 -0.70175,0.37567 -0.97927,0.65319 -0.30812,0.30811 -0.50931,0.82295 -0.97979,0.97978 -0.10327,0.0344 -0.23602,-0.0604 -0.32659,0 -0.31218,0.62437 0.048,0.14678 -0.48989,0.32608 -0.23157,0.0772 -0.23317,0.39647 -0.3266,0.48989 -0.33291,0.33291 -1.15192,0.63553 -0.81649,1.30638 0.24238,0.48476 1.94961,0.58987 2.44947,0.4899 0.0649,-0.013 0.68625,-0.30066 0.81597,-0.3266 0.16011,-0.032 0.32978,0.032 0.48989,0 0.0631,-0.0126 0.42679,-0.31397 0.48989,-0.32659 0.45699,-0.0914 1.01993,-0.0134 1.46968,-0.1633 0.14604,-0.0487 0.20344,-0.23424 0.32659,-0.3266 0.93586,-0.7019 0.0382,-0.0192 0.97979,-0.48989 0.48487,-0.24243 0.91245,-0.80535 1.30586,-1.14256 0.14898,-0.12771 0.36564,-0.17473 0.4899,-0.3266 0.54492,-0.66603 0.86118,-1.51437 1.46967,-2.12287 0.30058,-0.30057 0.6787,-0.51591 0.97927,-0.81649 0.64267,-0.64266 0.007,-0.33124 0.65319,-0.81597 0.0974,-0.073 0.24055,-0.0772 0.3266,-0.16329 0.33263,-0.33263 0.52221,-0.68552 0.81648,-0.97979 v -5.72936 c -0.0466,-0.0764 -0.0887,-0.15537 -0.12144,-0.23927 -0.0136,-0.0288 -0.0279,-0.0572 -0.0419,-0.0858 -0.31896,-0.23657 -0.85278,-0.16853 -1.14309,-0.31368 -0.31474,-0.31474 -0.26632,-0.33462 -0.65319,-0.48937 -0.15979,-0.0639 -0.35169,-0.06 -0.48937,-0.1633 -0.0974,-0.073 -0.0903,-0.22923 -0.1633,-0.32659 -0.24384,-0.32512 -0.66228,-0.72579 -0.97978,-0.97979 -0.15323,-0.12259 -0.36428,-0.17584 -0.4899,-0.32659 -0.15582,-0.18699 -0.19158,-0.45067 -0.32659,-0.65319 -0.22528,-0.33791 -0.50456,-0.40364 -0.81649,-0.65319 -0.98628,-0.78902 0.3236,0.20089 -0.48989,-0.81598 -0.97559,-0.65038 -0.12691,0.0598 -0.65268,-0.81648 -1.05544,-1.75908 0.31926,0.8067 -0.65319,-0.4899 -0.21921,-0.29228 -0.30119,-0.82859 -0.48989,-1.14308 -0.15556,-0.25926 -0.48569,-0.40194 -0.65319,-0.65319 -0.7109,-1.06635 -2.1289,-2.18897 -3.42873,-2.44894 -0.37604,-0.0752 -0.61969,-0.11352 -0.77773,-0.12093 z" />
    <path
       style="fill:#80b3ff;stroke-width:0.264583"
       d="m 116.34788,116.84212 c -0.25702,-0.45476 -0.95846,-0.31596 -1.30621,-0.48983 -0.31474,-0.31474 -0.26624,-0.33508 -0.65311,-0.48983 -0.15979,-0.0639 -0.35214,-0.06 -0.48982,-0.16328 -0.0974,-0.073 -0.0903,-0.22919 -0.16328,-0.32655 -0.24384,-0.32512 -0.66216,-0.72566 -0.97966,-0.97966 -0.15323,-0.12259 -0.36421,-0.1758 -0.48983,-0.32655 -0.15582,-0.18699 -0.19154,-0.45059 -0.32655,-0.65311 -0.22528,-0.33791 -0.50446,-0.40356 -0.81639,-0.65311 -0.98628,-0.78902 0.32367,0.20049 -0.48982,-0.81638 -0.97559,-0.65039 -0.12734,0.0599 -0.65311,-0.81638 -1.05545,-1.75908 0.31934,0.80677 -0.65311,-0.48983 -0.21921,-0.29229 -0.30113,-0.82845 -0.48983,-1.14294 -0.15556,-0.25926 -0.4856,-0.40185 -0.6531,-0.6531 -0.7109,-1.06635 -2.12898,-2.18918 -3.42881,-2.44915 -1.50418,-0.30084 -0.89186,-0.0123 -1.14294,0.48983 -0.0344,0.0688 -0.10885,0.10885 -0.16327,0.16328 -0.10886,0.16327 -0.25368,0.30763 -0.32656,0.48982 -0.0404,0.10107 0.077,0.24959 0,0.32656 -0.1217,0.1217 -0.38656,0.0256 -0.48983,0.16328 -0.19593,0.26124 0.064,0.65944 0,0.97966 -0.0902,0.45098 -0.41509,1.35335 -0.32655,1.79603 0.0338,0.16877 0.16328,0.31773 0.16328,0.48984 0,0.12169 -0.16328,0.20485 -0.16328,0.32655 0,0.077 0.12885,0.0944 0.16328,0.16327 0.077,0.15394 0.12952,0.32107 0.16327,0.48983 0.0213,0.10674 -0.0604,0.23599 0,0.32656 0.0675,0.10126 0.2405,0.0772 0.32655,0.16327 0.0301,0.0301 0.1332,0.45975 0.16328,0.48983 0.0861,0.0861 0.25905,0.062 0.32656,0.16328 0.0604,0.0906 -0.0653,0.23947 0,0.32655 0.19406,0.25876 1.01018,0.83165 1.30621,0.97966 0.15394,0.077 0.35543,0.0558 0.48983,0.16328 0.15323,0.12259 0.20396,0.33659 0.32655,0.48983 1.17445,1.46805 -0.41342,-0.5767 0.65311,0.48983 0.0861,0.0861 0.0903,0.22919 0.16328,0.32655 0.24087,0.32116 1.37784,1.22257 1.79604,1.30621 0.1601,0.032 0.33493,-0.0516 0.48983,0 1.08567,0.3619 0.008,0.25875 0.81638,0.48983 0.59249,0.16929 3.13367,0.68453 3.42881,0.97966 0.077,0.077 0,0.2177 0,0.32656 0,0.29307 0.0278,0.78858 -0.16328,0.97965 -0.33783,0.33783 0.0132,-0.51624 -0.32655,0.16328 -0.24025,0.48049 0.37824,-0.21497 -0.16328,0.32655 -0.10885,0.10886 -0.27787,0.18052 -0.32655,0.32656 -0.0344,0.10326 0.0487,0.22919 0,0.32655 -0.0243,0.0487 -0.1146,-0.0243 -0.16328,0 -0.2434,0.1217 -0.29741,0.46068 -0.48983,0.65311 -0.0861,0.0861 -0.2405,0.0772 -0.32655,0.16327 -0.0385,0.0385 0.0243,0.1146 0,0.16328 -0.10327,0.20653 -0.35129,0.3051 -0.48983,0.48983 -0.16476,0.21968 -0.65414,1.02125 -0.81638,1.14293 -0.13769,0.10327 -0.36813,0.0416 -0.48983,0.16328 -0.077,0.077 0.0604,0.23598 0,0.32655 -0.0675,0.10126 -0.23307,0.0854 -0.32656,0.16328 -0.23652,0.1971 -0.45601,0.41659 -0.6531,0.65311 -0.31555,0.37865 -0.57286,0.81749 -0.97966,1.14293 -0.30647,0.24517 -0.70214,0.37559 -0.97966,0.65311 -0.30812,0.30811 -0.50918,0.82283 -0.97966,0.97966 -0.10327,0.0344 -0.23599,-0.0604 -0.32656,0 -0.31218,0.62437 0.0481,0.14725 -0.48983,0.32655 -0.23157,0.0772 -0.23312,0.39641 -0.32655,0.48983 -0.33291,0.33291 -1.15181,0.63536 -0.81638,1.30621 0.24238,0.48476 1.94929,0.5898 2.44915,0.48983 0.0649,-0.013 0.68666,-0.30061 0.81638,-0.32655 0.16011,-0.032 0.32972,0.032 0.48983,0 0.0631,-0.0126 0.42673,-0.31394 0.48983,-0.32656 0.45699,-0.0914 1.01974,-0.0134 1.46949,-0.16327 0.14604,-0.0487 0.2034,-0.23419 0.32655,-0.32655 0.93586,-0.7019 0.0381,-0.0191 0.97966,-0.48984 0.48487,-0.24243 0.91281,-0.80572 1.30622,-1.14293 0.14898,-0.12771 0.36556,-0.17468 0.48982,-0.32655 0.54493,-0.66603 0.861,-1.5141 1.46949,-2.1226 0.30058,-0.30057 0.67909,-0.5158 0.97966,-0.81638 0.64267,-0.64267 0.007,-0.33165 0.65311,-0.81638 0.0974,-0.073 0.2405,-0.0772 0.32655,-0.16328 0.33263,-0.33263 0.52211,-0.68539 0.81638,-0.97966"
       id="path1-2" />
    <path
       id="path2"
       style="fill:#c87137;stroke-width:0.264583"
       d="m 119.81388,103.51306 c -0.0471,-0.006 -0.0927,0.005 -0.1323,0.045 -0.0385,0.0385 0.0385,0.12481 0,0.1633 -0.0544,0.0544 -0.43547,0.10888 -0.48989,0.1633 -0.0605,0.0605 -0.11286,0.55232 -0.1633,0.65319 -0.098,0.19592 -0.39141,0.29396 -0.48937,0.48989 -0.14638,0.29275 -0.55788,1.02045 -0.65319,1.30638 -0.0344,0.10326 0.0344,0.22282 0,0.32608 -0.0243,0.073 -0.12888,0.0944 -0.1633,0.16329 -0.15209,0.30417 -0.18036,0.68732 -0.32659,0.97979 -0.058,0.11593 0.0216,0.36035 0,0.48989 -0.0456,0.27374 -0.10888,0.54436 -0.1633,0.81649 -0.8537,-0.20231 -1.80926,-0.17628 -2.44947,-0.81649 -0.28138,-0.28138 -0.18489,-0.69743 -0.32607,-0.97978 -0.0688,-0.13769 -0.25775,-0.18892 -0.3266,-0.3266 -0.0487,-0.0974 0.0604,-0.23602 0,-0.32659 -0.0675,-0.10126 -0.24053,-0.0767 -0.32659,-0.16278 -0.077,-0.077 0.077,-0.24963 0,-0.3266 -0.10885,-0.0544 -0.21775,-0.10888 -0.3266,-0.1633 0,-0.0544 0.0385,-0.1248 0,-0.16329 -0.0385,-0.0385 -0.12482,0.0385 -0.1633,0 -0.0385,-0.0385 0.0243,-0.11463 0,-0.1633 -0.0608,-0.12169 -0.66986,-0.47322 -0.81648,-0.3266 -0.32615,0.32615 0.23233,1.2335 0.32659,1.46916 0.39834,0.99584 -0.66423,-0.56272 0.1633,0.81649 0.42415,0.70693 0.30487,-0.10858 0.48989,0.81649 0.0213,0.10674 -0.077,0.24962 0,0.32659 0.077,0.077 0.22334,-0.0344 0.3266,0 0.2715,0.0905 0.49479,0.69768 0.65319,0.81649 0.0871,0.0653 0.22047,-0.0264 0.32607,0 0.74095,0.18524 0.49214,0.33107 0.65319,0.65319 0.0101,0.0202 0.42172,0.18972 0.4899,0.32608 0.0601,0.12012 0.11084,0.60073 0.16329,0.65319 0.0385,0.0385 0.12481,-0.0385 0.1633,0 0.23947,0.23947 -0.31027,0.14697 -0.32659,0.1633 -0.23909,0.23909 0.252,0.31247 0.16329,0.48989 -2.1e-4,4.4e-4 -8.1e-4,6e-4 -0.001,0.001 0.22694,0.23878 0.38417,0.52825 0.51056,0.83096 0.0798,0.22379 0.14915,0.45136 0.21705,0.67903 0.0233,0.0553 0.0246,0.12438 0.0481,0.17828 0.004,0.011 0.007,0.023 0.0124,0.0341 0.002,0.005 0.008,0.0215 0.008,0.0155 0,-0.008 -0.005,-0.0147 -0.008,-0.0227 0.0525,0.068 0.0862,0.1492 0.13591,0.2186 0.007,0.01 -0.0111,-0.0213 -0.0171,-0.032 0.10779,0.1301 0.19382,0.27497 0.27182,0.42426 0.0711,0.14083 0.14131,0.28169 0.20981,0.42375 0.0267,0.0797 0.0695,0.14734 0.1173,0.21394 0.0756,0.12264 0.16247,0.23738 0.24547,0.35501 0.0463,0.073 0.10713,0.12949 0.16433,0.19379 0.15972,0.17959 0.25284,0.35568 0.29404,0.51677 0.42435,-0.0423 0.82201,-0.0912 0.89348,-0.11163 0.18868,-0.0539 0.30121,-0.27267 0.48989,-0.32659 0.4167,-0.11905 1.61431,0.18196 1.95957,-0.1633 0.0385,-0.0385 -0.0385,-0.12481 0,-0.1633 0.0385,-0.0385 0.12482,0.0385 0.1633,0 0.0683,-0.0683 0.0854,-0.78464 0.1633,-0.97926 0.10666,-0.26666 0.72266,-0.95647 0.81597,-1.14309 0.39931,-0.32098 0.0203,-0.78576 0.1633,-1.14308 0.0572,-0.14293 0.25775,-0.1889 0.32659,-0.32659 0.15394,-0.30788 0.24312,-0.64585 0.3266,-0.97979 0.096,-0.38385 0.0308,-2.22415 -0.1633,-2.61224 -0.1503,-0.30061 -0.37159,-0.62489 -0.48989,-0.97979 -0.10054,-0.30161 0.24912,-0.0769 -0.1633,-0.48937 -0.0385,-0.0385 -0.13896,0.0487 -0.1633,0 -0.10035,-0.20072 -0.0281,-0.47367 -0.16278,-0.65319 -0.0653,-0.0871 -0.23602,0.0604 -0.32659,0 -0.31668,-0.21112 -0.0576,-0.71077 -0.3266,-0.97979 -0.077,-0.077 -0.24962,0.077 -0.32659,0 -0.0385,-0.0385 0.0385,-0.12482 0,-0.1633 -0.13876,-0.13876 -0.35114,-0.18783 -0.4899,-0.32659 -0.12572,-0.12572 -0.21772,-0.56247 -0.48989,-0.65319 -0.10327,-0.0344 -0.22332,0.0344 -0.32659,0 -0.0602,-0.02 -0.21638,-0.19085 -0.3576,-0.20826 z m -3.91191,10.91096 c 0.008,0.11233 0.0158,0.20278 0.0243,0.23668 0.0295,0.11807 0.13378,0.20853 0.16329,0.3266 0.0264,0.1056 0.0344,0.22332 0,0.32659 -0.0243,0.073 -0.21772,0.10888 -0.16329,0.1633 0.077,0.077 0.22332,-0.0344 0.32659,0 0.3557,-0.061 0.0544,0.27216 0.1633,0.32659 0.0899,0.045 0.19453,0.0273 0.30024,0.005 -0.0529,-0.0736 -0.10515,-0.14748 -0.15245,-0.22479 -0.0894,-0.126 -0.17201,-0.25696 -0.22841,-0.40153 -0.0625,-0.1324 -0.12982,-0.26259 -0.19482,-0.39377 -0.0383,-0.079 -0.0837,-0.15233 -0.14056,-0.21963 -0.0341,-0.0477 -0.0663,-0.0963 -0.0982,-0.14521 z" />
    <path
       style="fill:#00d400;stroke-width:0.264583"
       d="m 149.07147,133.72347 122.62066,38.85981"
       id="path3" />
    <path
       style="fill:#00d400;stroke-width:0.264583"
       d="m 117.31418,109.31363 c 0.0447,-0.14892 0.086,-0.26217 0.12246,-0.40819 0.0167,-0.0668 0.0218,-0.69671 0.0408,-0.73474 0.0553,-0.11069 0.0134,-0.18999 0.0408,-0.24492 0.0509,-0.10175 0.10147,-0.28225 0.12246,-0.40819 0.004,-0.0268 -0.0122,-0.0573 0,-0.0816 0.006,-0.0122 0.0272,0 0.0408,0 0.0136,-0.0408 0.0324,-0.0803 0.0408,-0.12245 0.0121,-0.0604 -0.0197,-0.1451 0,-0.2041 0.062,-0.18615 0.0457,-0.2106 0.16328,-0.36737 0.18368,-0.24492 -0.2041,0.16327 0.12245,-0.24492 0.019,-0.0238 0.0634,-0.0165 0.0816,-0.0408 0.0258,-0.0344 0.0187,-0.0856 0.0408,-0.12245 0.054,-0.09 0.11815,-0.15467 0.16328,-0.24492 0.0341,-0.0682 0.14425,-0.128 0.16328,-0.20409 0.01,-0.0396 -0.0183,-0.0859 0,-0.12246 0.0136,-0.0272 0.0563,-0.0239 0.0816,-0.0408 0.0336,-0.0224 0.14539,-0.16831 0.16328,-0.2041 0.006,-0.0122 -0.01,-0.0312 0,-0.0408 0.01,-0.01 0.0347,0.0122 0.0408,0 0.0122,-0.0243 -0.0122,-0.0573 0,-0.0816 0.0491,-0.0981 0.18357,-0.1529 0.24491,-0.24492 0.0612,-0.0917 0.10239,-0.1944 0.16328,-0.28573 0.0366,-0.0548 0.13462,-0.0795 0.16328,-0.12246 0.0586,-0.088 -0.0777,-0.0842 0.0408,-0.16328 0.0226,-0.0151 0.0573,0.0122 0.0816,0 0.0385,-0.0192 0.0104,-0.092 0.0408,-0.12245 0.0234,-0.0234 0.11077,-0.0291 0.12246,-0.0408 0.0215,-0.0215 0.0239,-0.0563 0.0408,-0.0816 -0.004,-0.0809 0.0601,-0.0193 0.0816,-0.0408 0.007,-0.007 0.0526,-0.0935 0.0816,-0.12246 0.0331,-0.0331 0.10166,-0.0809 0.12245,-0.12245 0.006,-0.0122 -0.0122,-0.0347 0,-0.0408 0.0244,-0.0122 0.0573,0.0122 0.0816,0 0.005,-0.003 0.0476,-0.10542 0.0816,-0.12246 0.0243,-0.0122 0.0624,0.0192 0.0816,0 0.0204,-0.0204 0.0204,-0.0612 0.0408,-0.0816 0.0304,-0.0304 0.092,-0.0104 0.12245,-0.0408 0.01,-0.01 -0.01,-0.0312 0,-0.0408 0.0272,-0.0272 0.13607,0.0272 0.16328,0 0.0136,-0.0136 0.0272,-0.10885 0.0408,-0.12246 0.0192,-0.0192 0.0624,0.0192 0.0816,0 0.0192,-0.0192 0,-0.0544 0,-0.0816 0,-0.0169 0.0997,-0.18604 0.0408,-0.24492 -0.01,-0.01 -0.0312,0.01 -0.0408,0 -0.001,-0.001 -0.0263,-0.10792 -0.0408,-0.12246 -0.0104,-0.0103 -0.22817,-0.0324 -0.24492,-0.0408 -0.0674,-0.0337 -0.0142,-0.0887 -0.0816,-0.12245 -0.0365,-0.0183 -0.0846,0.0152 -0.12245,0 -0.0357,-0.0143 -0.0459,-0.0674 -0.0816,-0.0816 -0.0379,-0.0152 -0.0824,0.008 -0.12246,0 -0.0864,-0.0173 -0.15931,-0.10106 -0.24491,-0.12246 -0.13334,-0.0333 -0.25098,-0.0643 -0.36737,-0.12245 -0.0815,-0.0408 -0.3062,0.0612 -0.36738,0 -0.01,-0.01 0.0136,-0.0408 0,-0.0408 -0.043,0 -0.08,0.0337 -0.12245,0.0408 -0.19259,0.0321 -0.40293,-0.003 -0.57147,0.0816 -0.0762,0.0381 -0.20954,-0.0381 -0.28574,0 -0.0833,0.0417 -0.17256,0.0334 -0.24491,0.0816 -0.0113,0.008 0.0129,0.0365 0,0.0408 -0.11044,0.0368 -0.25407,-0.0283 -0.36737,0 -0.17929,0.0448 -0.58669,0.14459 -0.77557,0.0816 -0.0183,-0.006 -0.0236,-0.0322 -0.0408,-0.0408 -0.0435,-0.0218 -0.11974,0.0218 -0.16328,0 -0.0709,-0.0354 -0.0889,-0.0729 -0.16328,-0.12246 -0.0113,-0.008 -0.0347,0.0122 -0.0408,0 -0.0122,-0.0243 0.0192,-0.0624 0,-0.0816 -0.0192,-0.0192 -0.0558,0.009 -0.0816,0 -0.0667,-0.0222 -0.18759,-0.12887 -0.24492,-0.16327 -0.0628,-0.0377 -0.14548,-0.0377 -0.2041,-0.0816 -0.0544,-0.0408 -0.0744,-0.11517 -0.12245,-0.16328 -0.20273,-0.20273 0.18018,0.16094 -0.12246,-0.0408 -0.0506,-0.0337 -0.0479,-0.11264 -0.0816,-0.16327 -0.0272,-0.0408 -0.047,-0.0878 -0.0816,-0.12246 -0.01,-0.01 -0.0312,0.01 -0.0408,0 -0.0171,-0.0171 -0.0284,-0.0977 -0.0408,-0.12246 -0.1325,-0.265 -0.22142,-0.56095 -0.36738,-0.81638 -0.26124,-0.45719 0.0304,0.14768 -0.28573,-0.32655 -0.0406,-0.061 -0.0377,-0.14548 -0.0816,-0.2041 -0.40246,-0.536618 -0.14332,-0.1025 -0.44901,-0.40819 -0.0215,-0.0215 -0.0147,-0.066 -0.0408,-0.0816 -0.0481,-0.02886 -0.11119,-0.01998 -0.16327,-0.04082 -0.2041,-0.08164 0.24491,0 -0.12246,-0.122457 -0.0516,-0.01722 -0.1094,0.0077 -0.16328,0 -0.172,-0.02458 -0.0832,-0.05316 -0.24491,-0.122457 -0.21449,-0.09192 -0.46318,-0.122457 -0.69393,-0.122457 -0.0907,0 -0.71284,-0.103537 -0.73474,-0.08164 -0.0266,0.02657 0.0741,0.166476 0.0816,0.204097 0.0107,0.05337 -0.0107,0.109908 0,0.163277 0.0488,0.243757 0.24059,0.706917 0.16328,0.938837 -0.032,0.0961 -0.1494,0.16287 -0.20409,0.24492 -0.0898,0.13469 -0.17001,0.29247 -0.28574,0.40819 -0.0347,0.0347 -0.0878,0.0469 -0.12246,0.0816 -0.0481,0.0481 -0.0782,0.11162 -0.12245,0.16327 -0.083,0.0968 -0.21425,0.1785 -0.28574,0.28574 -0.0169,0.0253 -0.0193,0.0601 -0.0408,0.0816 -0.0468,0.0468 -0.0991,0.0174 -0.12245,0.0408 -0.01,0.01 0.006,0.0287 0,0.0408 -0.0849,0.16989 0.003,-0.0436 -0.0816,0.0408 -0.0585,0.0585 0.16215,0.0408 0.24491,0.0408 0.15474,0 0.30275,-0.008 0.44901,0.0408 0.16328,0.0544 -0.008,0.0392 0.2041,0.0816 0.0267,0.005 0.059,-0.0151 0.0816,0 0.31648,0.21099 -0.33496,-0.0429 0.16327,0.0816 0.0669,0.0167 0.36991,0.47707 0.40819,0.48983 0.0258,0.009 0.0558,-0.009 0.0816,0 0.0671,0.0224 0.0538,0.15831 0.12246,0.20409 0.0669,0.0446 0.14196,0.0914 0.2041,0.12246 0.12245,0.0612 -0.0816,0.0408 0.12245,0.12246 0.0379,0.0152 0.0875,-0.021 0.12246,0 0.0421,0.0252 0.0433,0.0918 0.0816,0.12246 0.0336,0.0269 0.088,0.015 0.12246,0.0408 0.0243,0.0183 0.0165,0.0634 0.0408,0.0816 0.13922,0.10442 0.14827,-0.03 0.24491,0.16328 0.0628,0.12557 0.0755,0.30819 0.12246,0.44901 0.006,0.0183 0.0362,0.0221 0.0408,0.0408 0.0165,0.066 -0.0165,0.13809 0,0.20409 0.027,0.10791 0.036,0.23534 0.0816,0.32656 0.0585,0.11697 -0.0414,0.32484 0,0.44901 0.004,0.0129 0.0312,-0.01 0.0408,0 0.0215,0.0215 0.0272,0.0544 0.0408,0.0816 0.0283,0.0566 0.0196,0.22198 0.0408,0.28573 0.006,0.0183 0.0322,0.0236 0.0408,0.0408 0.0122,0.0243 -0.0192,0.0624 0,0.0816 0.01,0.01 0.0312,-0.01 0.0408,0 0.0204,0.0204 -0.0204,0.10205 0,0.12246 0.01,0.01 0.0347,-0.0122 0.0408,0 0.0183,0.0365 -0.0289,0.0936 0,0.12245 0.01,0.01 0.0347,-0.0122 0.0408,0 0.0163,0.0327 -0.0163,0.0898 0,0.12246 0.0304,0.0609 0.0913,0.10101 0.12246,0.16328 0.0427,0.0853 0.009,0.21298 0.0816,0.28573"
       id="path4" />
    <path
       id="path5"
       style="fill:#00d400;stroke-width:0.264583"
       d="m 119.55549,115.67098 c -0.0654,-0.003 -0.1782,0.0103 -0.2005,0.0103 l -1.0449,0.28836 c 0.006,0.031 0.01,0.0613 0.0119,0.091 0.0546,0.0926 0.0513,0.26278 0.0946,0.31471 0.0616,0.0739 0.14099,0.13107 0.20361,0.20412 0.0551,0.0642 0.0384,0.13182 0.0817,0.20412 0.0198,0.033 0.0644,0.0473 0.0816,0.0816 0.0251,0.0502 0.0157,0.11312 0.0408,0.1633 0.0172,0.0344 0.0619,0.0486 0.0816,0.0816 0.0377,0.0628 0.0453,0.14051 0.0817,0.20413 0.0208,0.0364 0.13198,0.20747 0.1633,0.28577 0.0224,0.0561 0.02,0.0554 0.0274,0.077 -0.009,-0.0452 0.0118,-0.0634 0.17673,0.16744 0.0326,0.0457 0.01,0.11661 0.0408,0.16329 0.22669,0.34004 0.027,-0.26358 0.24495,0.24495 0.0161,0.0375 -0.0161,0.0849 0,0.12247 0.0268,0.0625 0.0894,0.10383 0.12247,0.1633 0.2016,0.36288 0.3281,0.79075 0.44907,1.18391 0.0215,0.07 0.0674,0.13227 0.0816,0.20412 0.0205,0.10221 0.0341,0.34691 0,0.44907 -0.0141,0.0423 -0.0614,0.082 -0.0816,0.12247 -0.0187,0.0374 0.0277,0.1356 0,0.1633 -0.0215,0.0215 -0.068,0.0136 -0.0816,0.0408 -0.0182,0.0365 0.01,0.0829 0,0.12248 -0.0219,0.0874 -0.16112,0.25779 -0.20412,0.32659 -0.0645,0.10321 -0.0988,0.2234 -0.1633,0.3266 -0.0721,0.11538 -0.16331,0.21722 -0.24494,0.32607 -0.077,0.10269 -0.12195,0.22799 -0.20413,0.3266 -0.0314,0.0377 -0.0918,0.0434 -0.12247,0.0817 -0.0269,0.0336 -0.0216,0.084 -0.0408,0.12247 -0.0258,0.0516 -0.0904,0.0744 -0.12248,0.12247 -0.0311,0.0466 0.0536,0.0502 -0.0408,0.0816 -0.0258,0.009 -0.059,-0.0151 -0.0817,0 -0.0253,0.0169 -0.0272,0.0545 -0.0408,0.0816 -0.0408,0.0408 -0.0744,0.0904 -0.12248,0.12248 -0.0358,0.0239 -0.0874,0.0158 -0.12247,0.0408 -0.14086,0.10061 -0.34904,0.30763 -0.48989,0.40824 -0.035,0.025 -0.0846,0.0195 -0.12196,0.0408 -0.17584,0.10048 -0.31406,0.26694 -0.48989,0.36742 -0.0839,0.0479 -0.20171,0.0804 -0.28577,0.12247 -0.0258,0.0129 -0.24495,0.0575 -0.24495,0.12247 0,0.0604 0.032,-0.009 0.0816,0.0408 0.0192,0.0192 -0.0122,0.0573 0,0.0816 0.0172,0.0344 0.0645,0.0467 0.0816,0.0811 0.047,0.094 0.0645,0.15806 0.12247,0.24495 0.0657,0.0985 0.0136,-0.0136 0.12248,0.0408 0.0122,0.006 -0.01,0.0312 0,0.0408 0.0204,0.0204 0.0607,0.0204 0.0811,0.0408 0.0189,0.0189 -0.0123,0.0978 0,0.12247 0.0654,0.1308 0.11512,0.2229 0.16329,0.36742 0.0449,0.13461 0.0344,0.30709 0.0816,0.44907 0.066,0.19801 0.18136,0.47918 0.28577,0.65319 0.0297,0.0495 0.0904,0.0744 0.12248,0.12247 0.0805,0.12081 0.0154,0.11777 0.0408,0.24495 0.0112,0.0562 0.10702,0.16805 0.12247,0.20412 0.0678,0.15819 0.12156,0.32292 0.1633,0.48989 0.0132,0.0528 -0.008,0.10942 0,0.1633 0.077,0.53878 0.003,-0.18998 0.0816,0.20412 0.0184,0.092 -0.032,0.13081 0.0408,0.20361 0.0155,0.0155 0.23086,0.0134 0.28577,0.0408 0.19341,0.0967 -0.27577,-0.0239 0.16329,0.12248 0.0387,0.0129 0.0846,-0.0152 0.12248,0 0.0988,0.0395 0.1492,0.19707 0.24494,0.24494 0.0385,0.0192 0.0856,0.0187 0.12248,0.0408 0.066,0.0396 0.10172,0.11711 0.16329,0.16329 0.0838,0.0629 0.2112,0.0887 0.28577,0.1633 0.0678,0.0678 0.0392,0.0808 0.12248,0.12247 0.0726,0.0363 0.0222,-0.0227 0.0403,-0.0408 0.0189,-0.0189 0.0978,0.0123 0.12247,0 0.0876,-0.0438 0.002,-0.0446 0.0408,-0.12247 0.006,-0.0122 0.0312,0.01 0.0408,0 0.0539,-0.0539 -0.11705,-0.22868 -0.12248,-0.24495 -0.009,-0.0276 -0.0468,-0.29671 -0.0408,-0.32659 0.0299,-0.14941 0.10891,-0.50987 0.20412,-0.65268 0.032,-0.048 0.0889,-0.0755 0.12247,-0.12247 0.0354,-0.0495 0.0494,-0.1117 0.0816,-0.1633 0.0462,-0.0739 0.16095,-0.19942 0.20413,-0.28577 0.0192,-0.0385 0.017,-0.0867 0.0408,-0.12247 0.032,-0.048 0.0889,-0.0755 0.12247,-0.12248 0.0354,-0.0495 0.0421,-0.11709 0.0817,-0.16329 0.0443,-0.0517 0.11903,-0.0708 0.1633,-0.12248 0.0396,-0.0462 0.0421,-0.11709 0.0816,-0.16329 0.56342,-0.65732 -0.26784,0.47849 0.32659,-0.28577 0.0487,-0.0626 0.0664,-0.14802 0.12248,-0.20413 0.0561,-0.0561 0.14065,-0.0749 0.20412,-0.12247 0.12594,-0.0945 0.3725,-0.44701 0.40824,-0.48989 0.0739,-0.0887 0.17283,-0.15479 0.24495,-0.24495 0.0939,-0.11734 -0.0165,-0.0567 0.0816,-0.20412 0.064,-0.0961 0.17231,-0.15479 0.24443,-0.24495 0.0841,-0.10512 0.013,-0.052 0.0408,-0.16329 0.0408,-0.1631 0.0411,-5.5e-4 0.12247,-0.1633 0.0637,-0.12748 0.0563,-0.41131 0.0817,-0.5302 0.0207,-0.0969 0.0653,-0.18807 0.0816,-0.28577 0.0224,-0.13422 -0.015,-0.27301 0,-0.40825 0.0261,-0.23497 0.0809,-0.49415 0.0408,-0.73484 -0.0163,-0.0977 -0.0695,-0.18748 -0.0816,-0.28577 -0.0763,-0.6106 0.11753,0.30201 -0.0408,-0.48989 -0.0683,-0.34145 -0.21442,-0.67378 -0.36742,-0.97978 -0.0875,-0.175 -0.0581,-0.42559 -0.20412,-0.57155 -0.01,-0.01 -0.0286,0.006 -0.0408,0 -0.0876,-0.0438 -0.002,-0.0446 -0.0403,-0.12247 -0.0146,-0.0292 -0.1793,0.0248 -0.20412,0 -0.0237,-0.0237 -0.058,-0.13913 -0.0816,-0.16278 -0.0215,-0.0215 -0.0661,-0.0147 -0.0817,-0.0408 -0.0289,-0.0481 -0.0157,-0.11312 -0.0408,-0.1633 -0.097,-0.19407 -0.20066,-0.29164 -0.3266,-0.44907 -0.0697,-0.0871 -0.0264,-0.13456 -0.0816,-0.24495 -0.0304,-0.0609 -0.092,-0.10244 -0.12247,-0.16329 -0.0735,-0.14695 -0.049,-0.34295 -0.12247,-0.4899 -0.0172,-0.0344 -0.0645,-0.0472 -0.0816,-0.0816 -0.0122,-0.0243 0.0122,-0.0573 0,-0.0816 -0.0408,-0.0816 -0.0816,-0.0612 -0.12248,-0.12248 -0.14718,-0.22078 -0.27052,-0.49762 -0.44906,-0.69401 -0.20049,-0.22054 -0.42205,-0.42693 -0.65319,-0.61185 -0.0752,-0.0601 -0.21882,-0.0968 -0.28526,-0.1633 -0.01,-0.01 0.006,-0.0286 0,-0.0408 -0.0849,-0.16988 0.003,0.0436 -0.0817,-0.0408 -0.01,-0.01 0.01,-0.0312 0,-0.0408 -0.0189,-0.0189 -0.0978,0.0123 -0.12247,0 -0.16987,-0.0849 0.0436,0.003 -0.0408,-0.0817 -0.006,-0.006 -0.0226,-0.009 -0.0444,-0.0103 z m -0.37723,2.00607 c 0.008,0.0399 0.0219,0.0642 0,0 z" />
    <path
       style="fill:#00d400;stroke-width:0.264583"
       d="m 117.27336,135.35624 c 0.0544,0.0408 0.10885,0.0816 0.16328,0.12246 0.0272,0 0.0599,-0.0163 0.0816,0 0.0392,0.0294 0.0502,0.0848 0.0816,0.12245 0.5097,0.61165 -0.29202,-0.37365 0.28573,0.2041 0.0304,0.0304 0.017,0.0867 0.0408,0.12246 0.032,0.048 0.0889,0.0755 0.12246,0.12245 0.21363,0.29909 -0.0896,0.0329 0.24491,0.36738 0.0347,0.0347 0.10052,0.0377 0.12246,0.0816 0.0243,0.0487 -0.0132,0.11048 0,0.16328 0.0358,0.14313 0.10254,0.16427 0.16328,0.28573 0.0872,0.17439 0.1474,0.36 0.24491,0.53065 0.0753,0.13171 0.1889,0.26816 0.24491,0.40819 0.0152,0.0379 0.0289,0.0936 0,0.12246 -0.01,0.01 -0.1986,0.001 -0.20409,0 -0.0475,-0.0119 -0.1158,-0.0698 -0.16328,-0.0816 -0.0396,-0.01 -0.0828,0.01 -0.12245,0 -0.0187,-0.005 -0.022,-0.037 -0.0408,-0.0408 -0.20737,-0.0415 -0.178,0.0828 -0.4082,-0.0816 -0.008,-0.006 -0.14751,-0.30449 -0.16327,-0.32656 -0.16739,-0.23434 -0.14008,-0.076 -0.24492,-0.28573 -0.0486,-0.0973 -0.0501,-0.23009 -0.12245,-0.32655 -0.0462,-0.0616 -0.12368,-0.0973 -0.16328,-0.16328 -0.0449,-0.0749 -0.21919,-0.43196 -0.24491,-0.48983 -0.0566,-0.1273 -0.003,-0.2133 -0.0408,-0.32655 -0.006,-0.0183 -0.0347,-0.0226 -0.0408,-0.0408 -0.0129,-0.0387 0.0182,-0.0859 0,-0.12246 -0.049,-0.0979 -0.049,-0.1062 0,-0.20409 0.007,-0.0149 -0.006,-0.2041 0,-0.2041 0.0561,0 0.10885,0.0272 0.16327,0.0408 z"
       id="path6" />
    <path
       style="fill:#00d400;stroke-width:0.264583"
       d="m 119.55924,135.31542 c 0.44923,0.12419 0.57174,0.25925 0.73474,0.69392 0.0601,0.16034 0.21586,0.36008 0.28573,0.48983 0.0347,0.0645 0.0606,0.13392 0.0816,0.2041 0.0199,0.0665 -7.9e-4,0.14859 0.0408,0.2041 0.0476,0.0635 0.15246,0.0622 0.2041,0.12245 0.056,0.0653 0.0279,0.17772 0.0816,0.24492 0.0361,0.0451 0.0774,0.0864 0.12246,0.12245 0.0238,0.019 0.068,0.0136 0.0816,0.0408 0.0183,0.0365 -0.008,0.0824 0,0.12246 0.0236,0.11776 0.19556,0.18035 0.12246,0.32655 -0.006,0.0122 -0.0286,-0.006 -0.0408,0 -0.0172,0.009 -0.0236,0.0322 -0.0408,0.0408 -0.0682,0.0341 -0.34464,-0.034 -0.40819,-0.0816 -0.0243,-0.0183 -0.0165,-0.0634 -0.0408,-0.0816 -0.0315,-0.0236 -0.26877,-0.076 -0.28574,-0.0816 -0.33673,-0.11225 -0.46973,-0.41886 -0.6531,-0.69393 -0.0213,-0.032 -0.0711,-0.0446 -0.0816,-0.0816 -0.0224,-0.0785 0.0303,-0.16912 0,-0.24492 -0.19224,-0.48059 -0.0197,0.0859 -0.0816,-0.28573 -0.0276,-0.16587 -0.13096,-0.32828 -0.16327,-0.48983 -0.0195,-0.0974 0.0313,-0.2325 0,-0.32656 -0.0182,-0.0544 -0.0771,0.068 -0.0408,-0.0408 0.0232,-0.0695 0.0544,-0.13607 0.0816,-0.2041 z"
       id="path7" />
    <path
       style="fill:#c87137;fill-opacity:1;stroke-width:0.264583"
       d="m 119.23268,117.43664 c -0.0883,0.1508 -0.22248,0.006 -0.32655,0.0408 -0.0183,0.006 -0.0222,0.0362 -0.0408,0.0408 -0.0887,0.0222 -0.7398,0.0235 -0.8572,0 -0.0298,-0.006 -0.0521,-0.0334 -0.0816,-0.0408 -0.14882,-0.0372 -0.39534,-0.004 -0.53065,0.0408 -0.20587,0.0686 -0.16883,0.15337 -0.24491,0.20409 -0.034,0.0226 -0.0936,-0.0289 -0.12246,0 -0.0272,0.0272 0.0272,0.0544 0,0.0816 -0.0215,0.0215 -0.0601,0.0193 -0.0816,0.0408 -0.0304,0.0304 -0.0104,0.092 -0.0408,0.12246 -0.0844,0.0844 -0.10897,0.05 -0.16328,0.12245 -0.19214,0.2562 -0.34674,0.50916 -0.40819,0.81639 -0.0302,0.15115 -0.009,0.40398 -0.0408,0.53065 -0.0168,0.0673 -0.0189,0.13827 -0.0408,0.20409 -0.006,0.0183 -0.0347,0.0226 -0.0408,0.0408 -0.0172,0.0516 0.0132,0.11048 0,0.16328 0.0303,0.0755 -0.0697,0.0749 -0.0816,0.12246 -0.0393,0.15729 0.006,0.19225 -0.0816,0.36737 -0.0522,0.10439 0.0284,0.29457 0,0.40819 -0.007,0.0295 -0.0348,0.0518 -0.0408,0.0816 -0.039,0.19503 0.0482,0.41959 0,0.61228 -0.005,0.0187 -0.0362,0.0221 -0.0408,0.0408 -0.0196,0.0786 -0.004,0.21179 -0.0408,0.28574 -0.006,0.0122 -0.0365,-0.0129 -0.0408,0 -0.0129,0.0387 0.01,0.0829 0,0.12246 -0.009,0.0363 -0.0626,0.12511 -0.0816,0.16327 -0.0163,0.0327 0.0163,0.0898 0,0.12246 -0.0558,0.11165 -0.10745,0.2149 -0.16327,0.32655 -0.017,0.034 0.0259,0.13739 0,0.16328 -0.01,0.01 -0.0312,-0.01 -0.0408,0 -0.0261,0.0261 -0.0643,0.37946 -0.0816,0.44901 -0.0377,0.15072 -0.17287,0.25206 -0.20409,0.40819 -0.0223,0.11131 -0.0436,0.21229 -0.0816,0.32655 -0.0155,0.0465 -0.0661,0.0759 -0.0816,0.12246 -0.0356,0.10669 -0.0131,0.21552 -0.0408,0.32655 -0.0262,0.10466 -0.38984,0.65585 -0.44901,0.73475 -0.14967,0.20409 -0.29934,0.40819 -0.44901,0.61229 -0.0816,0.0952 -0.1679,0.18671 -0.24492,0.28573 -0.11362,0.14608 -0.20534,0.30916 -0.32655,0.44901 -0.0707,0.0815 -0.26689,0.24617 -0.36737,0.32655 -0.0766,0.0613 -0.17554,0.0939 -0.24492,0.16328 -0.0215,0.0215 -0.0239,0.0563 -0.0408,0.0816 -0.0446,0.0669 -0.0516,0.025 -0.12246,0.0816 -0.11412,-0.0123 -0.11238,0.1532 -0.16328,0.2041 -0.0907,0.0907 -0.23589,0.15425 -0.32655,0.24492 -0.50413,0.63016 0.1394,-0.1394 -0.32656,0.32655 -0.0347,0.0347 -0.0469,0.0878 -0.0816,0.12246 -0.28382,0.28381 -0.61808,0.53498 -0.93884,0.77556 -0.0809,-0.004 -0.0193,0.0601 -0.0408,0.0816 -0.26366,0.26365 -0.002,-0.0791 -0.2041,0.16327 -0.0386,0.0463 -0.13486,0.19876 -0.20409,0.24492 -0.0506,0.0337 -0.1146,0.0451 -0.16328,0.0816 -0.0616,0.0462 -0.10318,0.11519 -0.16328,0.16327 -0.0667,0.0534 -0.32925,0.2068 -0.40819,0.28574 -0.0347,0.0347 -0.0433,0.0918 -0.0816,0.12246 -0.0336,0.0269 -0.0889,0.0139 -0.12245,0.0408 -0.0383,0.0306 -0.047,0.0878 -0.0816,0.12245 -0.10024,0.10024 -0.25444,0.12591 -0.36738,0.2041 -0.18348,0.12702 -0.3627,0.26124 -0.53064,0.40819 -0.17085,0.14949 -0.33347,0.3307 -0.53065,0.44901 -0.0628,0.0377 -0.14127,0.0439 -0.2041,0.0816 -0.46242,0.27745 -0.0417,0.0618 -0.28573,0.24491 -0.0243,0.0183 -0.0528,0.0312 -0.0816,0.0408 -0.0129,0.004 -0.0408,-0.0136 -0.0408,0 0,0.0272 0.0544,0 0.0816,0 0.0816,0 0.16327,0 0.24491,0 0.2529,0 0.49852,-0.0634 0.73475,-0.12246 0.12753,-0.0319 0.27839,0.0216 0.40819,0 0.10533,0.0422 0.16053,-0.0648 0.24491,-0.0816 0.04,-0.008 0.0829,0.01 0.12246,0 0.0476,-0.0119 0.0749,-0.0697 0.12246,-0.0816 0.0528,-0.0132 0.10991,0.0107 0.16328,0 0.21939,-0.0439 0.46087,-0.19836 0.6531,-0.28574 0.17105,-0.0778 0.0969,0.003 0.28574,-0.12245 0.0725,-0.0483 0.12938,-0.11846 0.20409,-0.16328 0.0628,-0.0377 0.13606,-0.0544 0.2041,-0.0816 0.13606,-0.0816 0.27471,-0.15911 0.40819,-0.24491 0.14764,-0.0949 0.21943,-0.18218 0.36737,-0.28574 0.1668,-0.11676 0.36972,-0.20585 0.53065,-0.32655 0.0616,-0.0462 0.1017,-0.1171 0.16327,-0.16328 0.17051,-0.12788 0.39459,-0.20273 0.57147,-0.32655 0.21446,-0.15012 0.45432,-0.31944 0.65311,-0.48983 0.1931,-0.16552 0.40094,-0.34307 0.57147,-0.53065 0.0458,-0.0503 0.0708,-0.119 0.12245,-0.16327 0.0462,-0.0396 0.12025,-0.0386 0.16328,-0.0816 0.043,-0.043 0.0479,-0.11265 0.0816,-0.16328 0.25201,-0.37801 -0.15759,0.38803 0.20409,-0.24491 0.0214,-0.0374 0.0128,-0.0898 0.0408,-0.12246 0.0567,-0.0661 0.14249,-0.10167 0.2041,-0.16328 0.13796,-0.13796 0.25017,-0.33356 0.36737,-0.48983 0.1785,-0.238 0.36977,-0.4767 0.57147,-0.69392 0.2095,-0.22561 0.46838,-0.40681 0.65311,-0.65311 0.0548,-0.073 0.0688,-0.1711 0.12245,-0.24491 0.13595,-0.18693 0.35398,-0.26788 0.48983,-0.44901 0.0476,-0.0635 0.0764,-0.13954 0.12246,-0.2041 0.083,-0.11621 0.19667,-0.21522 0.28573,-0.32655 0.0496,-0.062 0.0749,-0.14063 0.12246,-0.2041 0.10885,-0.14513 -0.0544,0.16328 0.16328,-0.16328 0.0239,-0.0358 0.017,-0.0866 0.0408,-0.12245 0.032,-0.048 0.0855,-0.0781 0.12245,-0.12246 0.0628,-0.0754 0.0867,-0.18362 0.16328,-0.24491 0.0336,-0.0269 0.088,-0.015 0.12246,-0.0408 0.0544,-0.0408 0.0693,-0.12078 0.12246,-0.16328 0.13345,-0.10676 0.27279,-0.22501 0.40819,-0.32655 0.0353,-0.0265 0.12403,-0.0424 0.16327,-0.0816 0.0497,-0.0497 0.0191,-0.0912 0.0816,-0.12246 0.0385,-0.0192 0.0856,-0.0187 0.12246,-0.0408 0.11362,-0.0682 0.0562,-0.0749 0.12246,-0.16327 0.0408,-0.0544 0.12554,-0.0659 0.16327,-0.12246 0.0151,-0.0226 -0.0122,-0.0573 0,-0.0816 0.0734,-0.14681 0.0707,-0.0299 0.16328,-0.12246 0.0518,-0.0518 0.0298,-0.15228 0.0816,-0.20409 0.0192,-0.0192 0.0599,0.0163 0.0816,0 0.14792,-0.11095 0.20994,-0.41988 0.28573,-0.57147 0.0269,-0.0538 0.0956,-0.10951 0.12246,-0.16328 0.0554,-0.11082 -0.0301,-0.32867 0,-0.44901 0.0104,-0.0417 0.0337,-0.08 0.0408,-0.12246 0.0311,-0.18683 -0.005,-0.0606 -0.0408,-0.20409 -0.0384,-0.15367 0.0384,-0.33616 0,-0.48983 -0.0506,-0.20227 -0.1944,-0.36939 -0.24492,-0.57147 -0.0363,-0.14513 0.10885,0.16328 0,-0.16328 0.0454,-0.1105 -0.10094,-0.0987 -0.12245,-0.16327 -0.0545,-0.16351 -0.0674,-0.36533 -0.12246,-0.53065 -0.0155,-0.0465 -0.0634,-0.0769 -0.0816,-0.12246 -0.0303,-0.0758 -0.0112,-0.17445 -0.0816,-0.24491 -0.01,-0.01 -0.0333,0.0113 -0.0408,0 -0.12446,-0.0289 -0.0157,-0.1131 -0.0408,-0.16328 -0.0587,-0.11751 -0.19682,-0.0632 -0.28573,-0.12246 -0.032,-0.0213 -0.0472,-0.0644 -0.0816,-0.0816 -0.0243,-0.0122 -0.0816,0.0272 -0.0816,0 0,-0.0733 0.0544,-0.13607 0.0816,-0.2041 z"
       id="path8" />
    <path
       style="fill:#c87137;fill-opacity:1;stroke-width:0.264583"
       d="m 117.59992,124.86572 c -0.13939,0.15632 -0.0865,0.35103 -0.12246,0.53065 -0.0435,0.21744 -0.1457,0.43899 -0.2041,0.65311 -0.0695,0.25475 -0.0442,0.57814 -0.16327,0.81638 -0.0172,0.0344 -0.0723,0.0443 -0.0816,0.0816 -0.0198,0.0792 0.009,0.16377 0,0.24491 -0.0181,0.16295 -0.10571,0.32232 -0.12246,0.48983 -0.007,0.0677 0.008,0.13659 0,0.2041 -0.0187,0.14936 -0.10084,0.29767 -0.12246,0.44901 -0.0117,0.0819 -0.0291,0.16298 -0.0408,0.24491 -0.0123,0.0857 0.0153,0.29084 0,0.36737 -0.0144,0.0718 -0.0639,0.13301 -0.0816,0.2041 -0.0948,0.66327 0.027,-0.067 -0.12246,0.53065 -0.0717,0.2869 -0.0145,0.56812 -0.0408,0.8572 -0.0199,0.21931 -0.0656,0.42999 -0.0408,0.65311 0.006,0.0557 0.0339,0.10761 0.0408,0.16327 0.0152,0.12152 -0.0152,0.24586 0,0.36737 0.0189,0.15095 0.0628,0.29807 0.0816,0.44902 0.008,0.0675 -0.0122,0.13716 0,0.20409 0.10486,0.57673 0.0703,-0.0836 0.12246,0.48983 0.0123,0.1355 -0.0135,0.27281 0,0.40819 0.0542,0.54162 0.0408,-0.13083 0.0408,0.40819 0,0.12246 -0.0122,0.24553 0,0.36737 0.0136,0.13585 0.14471,0.89058 0.2041,0.97966 0.008,0.0113 0.0312,-0.01 0.0408,0 0.0272,0.0272 -0.0272,0.13607 0,0.16328 0.0192,0.0192 0.0624,-0.0192 0.0816,0 0.0136,0.0136 0.0272,0.10885 0.0408,0.12246 0.01,0.01 0.0312,-0.01 0.0408,0 0.01,0.01 -0.006,0.0286 0,0.0408 0.0849,0.16988 -0.003,-0.0436 0.0816,0.0408 0.0192,0.0192 -0.0192,0.0624 0,0.0816 0.0156,0.0156 0.18978,0 0.2041,0 0.0457,0 0.11592,0.0473 0.12246,0.0408 0.041,-0.041 -0.006,-0.36631 0,-0.4082 0.0193,-0.13533 0.0647,-0.27273 0.0816,-0.40819 0.0225,-0.18039 0,-0.38955 0,-0.57147 0,-0.32154 0.0408,-0.62053 0.0408,-0.93883 0,-0.36786 -0.0518,-0.78001 0,-1.14294 0.0389,-0.27242 0.13281,-0.5421 0.16328,-0.81638 0.006,-0.0541 -0.0132,-0.11048 0,-0.16328 0.0148,-0.059 0.0684,-0.10388 0.0816,-0.16328 0.0295,-0.13282 -0.0192,-0.27349 0,-0.40819 0.004,-0.0301 0.0272,-0.0544 0.0408,-0.0816 0.0136,-0.0544 0.0329,-0.10774 0.0408,-0.16327 0.0252,-0.17635 0.059,-0.27984 0.12245,-0.44901 0.1696,-0.45226 -0.0713,0.12195 0.0408,-0.32656 0.0148,-0.059 0.0603,-0.1063 0.0816,-0.16327 0.10693,-0.28514 0.13881,-0.60422 0.2041,-0.89802 0.0132,-0.0594 0.0697,-0.10361 0.0816,-0.16328 0.008,-0.04 -0.0129,-0.0837 0,-0.12246 0.004,-0.0129 0.0347,0.0122 0.0408,0 0.0408,-0.0816 -0.0204,-0.0612 0,-0.12246 0.045,-0.13498 0.0474,-0.27129 0.0816,-0.40819 0.0149,-0.0595 0.0576,-0.26168 0.0816,-0.28573 0.01,-0.01 0.0312,0.01 0.0408,0 0.0204,-0.0204 -0.0204,-0.10205 0,-0.12246 0.01,-0.01 0.0312,0.01 0.0408,0 0.0136,-0.0136 -0.003,-0.15504 0,-0.16328 0.006,-0.0182 0.0322,-0.0236 0.0408,-0.0408 0.004,-0.009 0.0408,-0.22954 0.0408,-0.24492"
       id="path9" />
    <path
       style="fill:#c87137;fill-opacity:1;stroke-width:0.264583"
       d="m 119.15104,127.96798 c -0.0755,0.51331 -0.11168,1.03521 -0.16327,1.55112 -0.0263,0.26314 -0.0791,0.54854 -0.0408,0.81638 0.0418,0.2926 0.12245,0.55326 0.12245,0.85721 0,0.18787 -0.0144,0.3842 0,0.57146 0.0207,0.26943 0.068,0.54432 0.0408,0.81639 -0.007,0.069 -0.0345,0.135 -0.0408,0.20409 -0.026,0.28589 -0.0323,0.97481 0,1.26539 -0.0429,0.12921 0.0618,0.24862 0.0816,0.36738 0.0307,0.18429 -0.0366,0.38834 0,0.57147 0.0694,0.347 0.002,-0.11631 0.12246,0.24491 0.0129,0.0387 -0.008,0.0824 0,0.12246 0.0275,0.13727 0.0648,0.0359 0.12246,0.12246 0.0169,0.0253 0.0155,0.0648 0.0408,0.0816 0.001,10e-4 0.19322,0.0109 0.20409,0 0.0424,-0.0424 1.9e-4,-0.0919 0.12246,-0.12245 0.0396,-0.01 0.0936,0.0289 0.12246,0 0.01,-0.01 -0.01,-0.0312 0,-0.0408 0.01,-0.01 0.0312,0.01 0.0408,0 0.0215,-0.0215 0.0193,-0.0601 0.0408,-0.0816 0.0304,-0.0304 0.092,-0.0104 0.12245,-0.0408 0.0892,-0.0892 0.072,-0.6187 0.0816,-0.73474 0.0321,-0.38502 0.11563,-0.76175 0.16328,-1.14294 0.05,-0.39969 0.0317,0.0731 0.0816,-0.32655 0.0135,-0.10801 -0.0135,-0.21855 0,-0.32656 0.0235,-0.18806 0.0506,-0.38534 0.0816,-0.57146 0.0717,-0.42986 0.0181,0.30926 0.0816,-0.32656 0.0186,-0.18587 -0.0307,-0.38733 0,-0.57146 0.0228,-0.13708 0.0588,-0.27112 0.0816,-0.4082 0.0301,-0.18082 0.0246,-0.9706 0,-1.14293 -0.0122,-0.0852 -0.0675,-0.16003 -0.0816,-0.24492 -0.0349,-0.20924 0.0229,-0.42105 -0.0408,-0.61228 -0.0253,-0.0758 -0.0868,-0.0104 -0.12246,-0.0816 -0.0315,-0.0631 -0.0501,-0.14101 -0.0816,-0.2041 -0.0849,-0.16988 0.003,0.0436 -0.0816,-0.0408 -0.01,-0.01 0.01,-0.0312 0,-0.0408 -0.0136,-0.0136 -0.10885,-0.0272 -0.12246,-0.0408 -0.0192,-0.0192 0.0192,-0.0624 0,-0.0816 -0.0136,-0.0136 -0.10885,-0.0272 -0.12246,-0.0408 -0.01,-0.01 0.0122,-0.0347 0,-0.0408 -0.0431,-0.0216 -0.17681,-0.0136 -0.20409,-0.0408 -0.01,-0.01 0.006,-0.0286 0,-0.0408 -0.0849,-0.16988 0.003,0.0436 -0.0816,-0.0408 -0.006,-0.006 -0.0753,-0.11609 -0.0816,-0.12246 -0.01,-0.01 -0.0279,0.004 -0.0408,0 -0.23425,-0.0781 -0.15048,-0.0816 -0.44901,-0.0816 z"
       id="path10" />
    <path
       style="fill:#00d400;fill-opacity:1;stroke-width:0.264583"
       d="m 118.37548,115.88551 c -0.0797,0.01 -0.4682,0.0192 -0.53065,0.0816 -0.01,0.01 0.01,0.0312 0,0.0408 -0.0136,0.0136 -0.10885,0.0272 -0.12246,0.0408 -0.01,0.01 0.0122,0.0347 0,0.0408 -0.0441,0.0221 -0.17312,0.0338 -0.24491,0.0816 -0.0644,0.0429 -0.13873,0.13059 -0.2041,0.16327 -0.0365,0.0183 -0.0936,-0.0289 -0.12245,0 -0.0845,0.0845 0.12906,-0.003 -0.0408,0.0816 -0.0122,0.006 -0.0347,-0.0122 -0.0408,0 -0.0122,0.0243 0.0122,0.0573 0,0.0816 -0.006,0.0122 -0.0347,-0.0122 -0.0408,0 -0.0122,0.0243 0.0122,0.0573 0,0.0816 -0.006,0.0122 -0.0312,-0.01 -0.0408,0 -0.0192,0.0192 0.0122,0.0573 0,0.0816 -0.0202,0.0405 -0.0675,0.0802 -0.0816,0.12245 -0.0196,0.0587 0.0415,0.24421 0,0.28574 -0.01,0.01 -0.0286,-0.006 -0.0408,0 -0.0779,0.0389 -0.0208,0.10328 -0.0408,0.16327 0.0739,0.17078 -0.0644,0.0472 -0.0816,0.0816 -0.002,0.004 -0.0408,0.30839 -0.0408,0.32656 0,0.13011 -0.009,0.20065 -0.0408,0.32655 -0.007,0.0264 0,0.10885 0,0.0816 0,-0.0182 -0.0127,-0.13795 0,-0.16328 0.0389,-0.0778 0.002,-0.0446 0.0408,-0.12246 0.006,-0.0122 0.0272,0 0.0408,0 0.0136,-0.0272 0.0312,-0.0528 0.0408,-0.0816 0.0163,-0.0489 0.004,-0.12682 0.0408,-0.16327 0.01,-0.01 0.0333,0.0113 0.0408,0 0.0611,-0.0916 0.0408,-0.24489 0.12246,-0.32655 0.0215,-0.0215 0.0601,-0.0193 0.0816,-0.0408 0.0215,-0.0215 0.0193,-0.0601 0.0408,-0.0816 0.01,-0.01 0.0312,0.01 0.0408,0 0.0289,-0.0289 -0.0129,-0.0837 0,-0.12246 0.0425,-0.12741 0.0272,0.0136 0.0816,-0.0408 0.0215,-0.0215 0.0193,-0.0601 0.0408,-0.0816 0.01,-0.01 0.0408,0.0136 0.0408,0 0,-0.0136 -0.0312,-0.01 -0.0408,0 -0.0272,0.0272 0.0161,0.17198 0,0.2041 -0.0172,0.0344 -0.0618,0.0486 -0.0816,0.0816 -0.0602,0.10037 -0.0585,0.23056 -0.12246,0.32655 -0.0419,0.0628 -0.13326,0.0732 -0.16328,0.16328 -0.0129,0.0387 0.0289,0.0936 0,0.12245 -0.0304,0.0304 -0.0867,0.017 -0.12246,0.0408 -0.11644,0.0776 -0.12065,0.2023 -0.12245,0.2041 -0.01,0.01 -0.0312,-0.01 -0.0408,0 -0.01,0.01 0.01,0.0312 0,0.0408 -0.0139,0.0139 -0.19064,0.0816 -0.0816,0.0816 0.0272,0 -0.0192,-0.0624 0,-0.0816 0.0189,-0.0189 0.0978,0.0123 0.12246,0 0.0321,-0.0161 0.14451,-0.0629 0.16327,-0.0816 0.0204,-0.0204 0.0204,-0.0612 0.0408,-0.0816 0.01,-0.01 0.0312,0.01 0.0408,0 0.0192,-0.0192 -0.0192,-0.0624 0,-0.0816 0.0289,-0.0289 0.0837,0.0129 0.12246,0 0.0764,-0.0254 0.0836,-0.16425 0.16328,-0.20409 0.0452,-0.0226 0.1832,-0.0269 0.20409,-0.0408 0.032,-0.0213 0.0472,-0.0644 0.0816,-0.0816 0.0365,-0.0183 0.0885,0.0226 0.12246,0 0.13306,-0.0887 0.0532,-0.0816 0.20409,-0.0816 0.0957,0 -0.0192,-0.01 0.0816,0.0408 0.0243,0.0122 0.0624,-0.0192 0.0816,0 0.0136,0.0136 0.0272,0.10885 0.0408,0.12246 0.01,0.01 0.0312,-0.01 0.0408,0 0.055,0.055 -0.031,0.27749 -0.0408,0.32655 -0.0293,0.14629 0.0438,0.10397 -0.0408,0.24491 -0.0198,0.033 -0.0618,0.0486 -0.0816,0.0816 -0.0978,0.16298 10e-4,0.0777 -0.0408,0.24492 -0.0104,0.0417 -0.16328,0.25221 -0.16328,0.28573 0,0.0875 0.17105,-0.11419 0.2041,-0.12245 0.0528,-0.0132 0.12479,0.0385 0.16328,0 0.0991,-0.0992 -0.0122,-0.06 0.0816,-0.12246 0.0253,-0.0169 0.0528,-0.0312 0.0816,-0.0408 0.0129,-0.004 0.0347,0.0122 0.0408,0 0.0408,-0.0816 -0.0204,-0.0612 0,-0.12246 0.0459,-0.13774 0.0768,-0.27118 0.12246,-0.40819 0.0136,-0.0408 0.0324,-0.0803 0.0408,-0.12246 0.005,-0.0267 -0.0151,-0.059 0,-0.0816 0.0169,-0.0253 0.0544,-0.0272 0.0816,-0.0408 0.0136,-0.068 0.024,-0.13679 0.0408,-0.2041 0.003,-0.0132 -0.008,0.0295 0,0.0408 0.0213,0.032 0.0576,0.0516 0.0816,0.0816 0.11672,0.14591 0.24778,0.33229 0.32655,0.48983 0.0934,0.18685 -0.1236,0.82208 -0.16328,1.02047 -0.009,0.0473 -0.0223,0.22388 0.0408,0.24492 0.0864,0.0288 0.14094,-0.0198 0.2041,-0.0408 0.12109,-0.0404 0.0422,-5.3e-4 0.16327,-0.0408 0.0834,-0.0278 0.1098,-0.39554 0.12246,-0.40819 0.01,-0.01 0.0365,0.0129 0.0408,0 0.0172,-0.0516 -0.0243,-0.1146 0,-0.16328 0.0398,-0.0796 0.0624,-0.089 0.0816,-0.20409 0.007,-0.0403 -0.01,-0.0829 0,-0.12246 0.005,-0.0187 0.0322,-0.0236 0.0408,-0.0408 0.0214,-0.0428 -0.0326,-0.17151 0,-0.2041 0.01,-0.01 0.0347,0.0122 0.0408,0 0.0295,-0.0589 -0.0446,-0.24113 0,-0.28573 0.01,-0.01 0.0347,0.0122 0.0408,0 0.003,-0.006 0.0408,-0.14503 0.0408,-0.16327"
       id="path12" />
  </g>
</svg>
