<?xml version="1.0" encoding="UTF-8" standalone="no"?>
<!-- Created with Inkscape (http://www.inkscape.org/) -->

<svg
   width="210mm"
   height="297mm"
   viewBox="0 0 210 297"
   version="1.1"
   id="svg1"
   inkscape:version="1.3.2 (091e20e, 2023-11-25, custom)"
   sodipodi:docname="log.svg"
   xmlns:inkscape="http://www.inkscape.org/namespaces/inkscape"
   xmlns:sodipodi="http://sodipodi.sourceforge.net/DTD/sodipodi-0.dtd"
   xmlns="http://www.w3.org/2000/svg"
   xmlns:svg="http://www.w3.org/2000/svg">
  <sodipodi:namedview
     id="namedview1"
     pagecolor="#ffffff"
     bordercolor="#000000"
     borderopacity="0.25"
     inkscape:showpageshadow="2"
     inkscape:pageopacity="0.0"
     inkscape:pagecheckerboard="0"
     inkscape:deskcolor="#d1d1d1"
     inkscape:document-units="mm"
     inkscape:zoom="1.6204616"
     inkscape:cx="396.80052"
     inkscape:cy="561.56838"
     inkscape:window-width="3840"
     inkscape:window-height="2054"
     inkscape:window-x="3829"
     inkscape:window-y="-11"
     inkscape:window-maximized="1"
     inkscape:current-layer="layer1" />
  <defs
     id="defs1" />
  <g
     inkscape:label="Layer 1"
     inkscape:groupmode="layer"
     id="layer1">
    <path
       id="path9"
       style="fill:#502d16;stroke-width:0.264583"
       d="m 60.508968,200.76966 c -0.0085,0.0422 0.01086,0.0544 0.07958,0.11575 0.03003,-0.009 0.03994,-0.0449 0.04444,-0.0868 -0.04132,-0.01 -0.08271,-0.0192 -0.124024,-0.0289 z" />
    <path
       id="path10"
       style="fill:#502d16;stroke-width:0.264583"
       d="m 62.339347,214.43601 c -0.03601,0.099 -0.07719,0.19252 -0.130741,0.27285 -0.17078,0.25617 -0.65319,0.3448 -0.65319,0.65267 0,0.0544 0.124814,0.0385 0.163297,0 0.03849,-0.0385 -0.04528,-0.13311 0,-0.1633 0.05412,-0.0361 1.254929,-0.63084 1.305864,-0.65267 0.0356,-0.0153 0.07324,-0.0245 0.110587,-0.0346 -0.265257,-0.0251 -0.530571,-0.0497 -0.795817,-0.0749 z" />
    <path
       id="path12"
       style="fill:#502d16;stroke-width:0.264583"
       d="m 85.328125,123.19558 c -0.469423,9.6e-4 -0.938769,0.001 -1.408183,0.005 -0.796014,0.006 -1.592152,0.0147 -2.387968,0.0341 -0.619578,0.0166 -1.239024,0.0392 -1.858284,0.0672 -0.06413,0.31813 -0.136978,0.63419 -0.228927,0.94619 -0.240471,0.84313 -0.572885,1.65392 -1.080037,2.37557 -0.490121,0.72494 -0.995971,1.44189 -1.562696,2.10943 -0.0506,0.0596 -0.101726,0.10562 -0.152445,0.16175 -0.07951,2.92737 -0.503474,5.85426 -0.726054,8.74778 -0.170546,2.21709 0.184665,4.47818 0,6.69417 -0.02749,0.32991 -0.135805,0.64987 -0.163297,0.97978 -0.164677,1.97614 0,4.06693 0,6.04098 0,1.39557 0.115899,2.85437 0,4.24522 -0.02749,0.32991 -0.135806,0.64987 -0.163298,0.97978 -0.08463,1.01552 0.154775,2.09609 0,3.10214 -0.06025,0.39162 -0.270561,0.75083 -0.326595,1.14308 -0.05388,0.37714 0.02376,0.76286 0,1.14309 -0.03074,0.49184 -0.134358,0.97717 -0.163298,1.46916 -0.08608,1.4633 0.104431,2.94648 0,4.40851 -0.02742,0.38387 -0.13378,0.75938 -0.163297,1.14309 -0.168987,2.19679 0,4.49337 0,6.69416 v 6.04149 c 0,1.00932 0.111551,2.0982 0,3.10214 -0.02479,0.22303 -0.131561,0.43104 -0.163298,0.65319 -0.07044,0.49307 -0.05856,1.02255 -0.03617,1.55081 h 2.668571 3.849377 3.544487 c 1.461697,-0.0382 2.919068,0.0711 4.37596,0.17053 1.930785,0.14465 3.861313,0.29112 5.793962,0.40876 2.13811,0.11959 4.27993,0.15645 6.420798,0.18655 1.04299,0.0123 2.08601,0.0135 3.12901,0.0196 0.0738,-1.00309 0.13384,-1.9701 0.13384,-2.98948 v -7.83725 c 0,-1.40771 -0.078,-2.84166 0,-4.24522 0.0243,-0.43812 0.13593,-0.86844 0.1633,-1.30638 0.0679,-1.08639 -0.0453,-2.17786 0,-3.26543 0.10463,-2.51119 0.16329,-4.99305 0.16329,-7.51065 0,-1.54423 0.006,-3.04659 -0.16329,-4.57182 -0.0649,-0.58393 0.0965,-1.21659 0,-1.79575 -0.02,-0.12004 -0.14609,-0.20612 -0.1633,-0.3266 -0.18577,-1.30037 0,-2.76693 0,-4.08192 0,-3.73775 0.20726,-7.53578 0,-11.2665 -0.0273,-0.49209 -0.13739,-0.977 -0.1633,-1.46916 -0.061,-1.15835 0.14494,-2.43252 0,-3.59203 -0.0278,-0.22267 -0.13852,-0.43016 -0.1633,-0.65319 -0.15654,-1.40888 -0.0504,-2.85111 0.004,-4.28604 -0.24783,-0.23887 -0.51953,-0.45727 -0.72192,-0.73484 -0.66893,-0.91756 -0.6779,-2.07253 -0.6749,-3.15123 -0.002,-0.43478 -0.007,-0.86953 -0.009,-1.30431 -0.36656,0.0481 -0.73348,0.0945 -1.09916,0.14934 -0.54308,0.10478 -1.08892,0.19469 -1.63452,0.28474 0.29853,0.91667 0.17762,0.93799 -0.864032,0.9772 -0.136728,0.003 -0.273561,0.006 -0.41031,0.009 -0.04952,0.13601 -0.271607,0.0594 -0.472323,0.01 -0.481884,0.0108 -0.963656,0.0246 -1.444873,0.0527 -0.610193,0.0451 -1.218631,0.12226 -1.817977,0.24701 -0.125274,0.0243 -0.250229,0.0495 -0.375688,0.0729 -0.07674,0.0144 -0.209613,0.11541 -0.230993,0.0403 -8.82e-4,-0.003 -0.0017,-0.006 -0.0026,-0.009 -0.768973,0.19311 -0.958515,0.12943 -0.972034,-0.54157 -1.488321,-0.0538 -2.976531,-0.10633 -4.46381,-0.185 -0.233478,-0.0132 -0.467257,-0.0267 -0.700732,-0.0398 -1.52507,-0.0857 -2.555995,-0.61584 -3.114539,-1.30225 z" />
    <path
       id="path13"
       style="fill:#502d16;stroke-width:0.264583"
       d="m 92.403662,217.27046 c -0.0062,0.0235 -0.0085,0.0442 0.01085,0.0506 0.313722,0.10458 0.568372,0.0979 0.800468,0.0341 -0.270422,-0.0285 -0.540893,-0.0563 -0.81132,-0.0847 z" />
    <path
       id="path15"
       style="fill:#502d16;stroke-width:0.264583"
       d="m 103.47534,181.39358 c -0.0699,0.0298 0.0419,0.35374 0.0419,0.49661 0,0.74134 -0.0139,1.27805 0.32659,1.95905 l -0.54622,3.96152 c 1.61417,0.0126 3.22833,0.0249 4.8426,0.03 0.26149,9.8e-4 0.52296,0.002 0.78445,0.002 -0.22817,-0.43967 -0.24643,-0.72063 -0.67231,-1.2175 -0.12771,-0.149 -0.32662,-0.21774 -0.4899,-0.32659 -0.16327,-0.16327 -0.34207,-0.31251 -0.48989,-0.4899 -0.46688,-0.56025 -0.78905,-1.27945 -1.30586,-1.79627 -0.15677,-0.15676 -0.69521,-0.30797 -0.81649,-0.48989 -0.0604,-0.0906 0.0604,-0.23603 0,-0.3266 -0.0101,-0.45974 -0.36819,-0.0416 -0.48989,-0.16329 -0.31834,-0.31834 -0.7804,-1.45112 -1.14308,-1.63246 -0.0183,-0.009 -0.0319,-0.011 -0.0419,-0.007 z" />
    <path
       id="path17"
       style="fill:#71c837;stroke-width:0.264583"
       d="m 98.58468,66.413 c -1.032023,0.01959 -2.060954,0.0976 -3.06803,0.203606 -1.140856,0.120091 -2.288205,0.402162 -3.428731,0.489892 -0.379857,0.02922 -0.762761,-0.02236 -1.143083,0 -2.07623,0.122134 -4.126343,0.55424 -6.204272,0.65319 -1.596865,0.07604 -3.301988,0.08402 -4.898409,0 -0.03129,-0.0016 -0.130327,-0.01966 -0.169499,-0.02325 0.20681,1.265573 0.402262,2.532998 0.615467,3.797701 0.407928,2.493591 0.760659,5.009318 0.544669,7.542692 -0.231741,3.485071 -0.611975,6.956916 -0.979268,10.429854 -0.424961,4.160274 -0.833406,8.321826 -1.1467,12.492259 -0.150319,1.51341 -0.314661,3.02795 -0.285771,4.55166 0.04737,2.17467 0.175682,4.34745 0.329696,6.51692 0.05679,0.62276 0.09692,1.24266 0.279052,1.8433 0.151363,0.63131 0.285281,1.26617 0.247531,1.92133 0.0033,0.4734 0.012,0.94675 0.02222,1.42006 0.698582,-0.033 1.397429,-0.0587 2.096513,-0.0775 0.828673,-0.0203 1.657788,-0.0297 2.48667,-0.0357 0.700123,-0.005 1.399995,-0.006 2.10013,-0.007 0.904658,-8.7e-4 1.809389,-9.2e-4 2.714047,-0.001 1.197223,0.0257 2.391969,-0.0321 3.586344,-0.1049 1.491585,-0.0952 2.985754,-0.13776 4.47983,-0.16846 2.020148,-0.009 4.038844,-0.0555 6.057514,-0.13126 0.006,-3e-4 0.0124,-7.4e-4 0.0186,-0.001 -0.003,-0.11643 -0.004,-0.2329 -0.007,-0.34933 -0.0334,-1.41328 -0.0214,-2.82648 -0.0264,-4.24005 -0.0256,-1.59786 -0.0946,-3.19469 -0.10542,-4.79299 -0.041,-1.84419 -0.0879,-3.68874 -0.0501,-5.53351 0.0224,-2.30723 0.0509,-4.614424 0.13074,-6.920509 0.0901,-2.455444 0.22473,-4.90841 0.3762,-7.360791 0.12284,-2.031674 0.24045,-4.063618 0.38034,-6.094202 0.11714,-1.875034 0.24822,-3.748954 0.43822,-5.618262 0.24351,-2.849602 0.49362,-5.699093 0.66869,-8.554 0.0208,-0.332252 0.0401,-0.664587 0.061,-0.996838 -0.3117,-0.113147 -0.64214,-0.220742 -1.02475,-0.321427 -1.31809,-0.346865 -2.68757,-0.498909 -4.063315,-0.529167 -0.343934,-0.0076 -0.688487,-0.0076 -1.032495,-0.001 z m -25.455294,63.86122 c -0.03078,0.0548 -0.06816,0.10607 -0.100252,0.1602 0.07369,-0.0457 0.137989,-0.0815 0.211357,-0.12816 -0.03634,-0.0121 -0.07588,-0.0179 -0.111105,-0.032 z" />
    <path
       style="fill:#502d16;fill-opacity:1;stroke-width:0.264583"
       d="m 80.332047,95.353488 c 0,2.884551 0,5.769102 0,8.653652 0,0.95774 0.105638,1.98825 0,2.93898 -0.03065,0.27582 -0.138152,0.54001 -0.163277,0.81638 -0.09641,1.06051 0.09836,2.05571 -0.163274,3.10226 -0.559782,2.23912 -0.607431,4.72239 -0.816385,7.02089 -0.0785,0.86356 -0.285343,1.74702 -0.326552,2.61242 -0.07977,1.67522 0,3.38028 0,5.06157 0,0.0996 0.06362,0.58949 0,0.65311 -0.03849,0.0385 -0.124793,-0.0385 -0.163277,0 -0.115453,0.11545 0.07302,0.34379 0,0.48983 -0.04868,0.0974 -0.249584,-0.077 -0.326554,0 -0.217702,0.2177 0.346364,0.15667 -0.163274,0.32655 -0.266287,0.0888 -0.653108,-0.007 -0.653108,0.48983 0,0.0831 0.97519,-0.16327 0.979659,-0.16327 0.217702,0 0.446577,0.0688 0.653106,0 0.07302,-0.0243 0.09026,-0.13894 0.163277,-0.16328 0.591722,-0.19724 1.654818,0 2.285873,0 3.265529,0 6.531059,0 9.796589,0 1.360842,0 2.60409,0.10746 3.918638,0.32655 0.423635,0.0706 0.882576,-0.0706 1.306211,0 0.497932,0.083 0.973627,0.22738 1.46949,0.32655 0.869003,0.17381 2.319431,-0.0324 3.102251,0.16328 0.0747,0.0187 0.10885,0.10885 0.16328,0.16328 0.38098,0 0.76196,0 1.14293,0 0.27969,0 2.28588,0.0755 2.28588,-0.32656 0,-0.10885 -0.24959,0.077 -0.32656,0 -0.0385,-0.0385 0.0385,-0.12479 0,-0.16327 -0.0914,-0.0914 -0.24897,-0.0938 -0.32655,-0.32655 -0.14982,-0.44947 -0.0629,-4.03085 0,-4.40847 0.20696,-1.24177 0.28165,-2.50631 0.48983,-3.75536 0.0283,-0.16977 0.10885,-0.32655 0.16328,-0.48983 0.0544,-0.2177 0.13154,-0.43096 0.16327,-0.65311 0.0385,-0.26939 -0.066,-0.55238 0,-0.81638 0.0295,-0.11807 0.13941,-0.20722 0.16328,-0.32655 0.1004,-0.50204 0,-1.11909 0,-1.63277 0,-1.63276 0,-3.26553 0,-4.89829 0,-0.7917 -0.11151,-1.6686 0,-2.44915 0.0317,-0.22215 0.13849,-0.43008 0.16327,-0.65311 0.0716,-0.644 -0.0804,-1.31636 0,-1.95932 0.1094,-0.87518 0.22919,-1.73611 0.32656,-2.61242 0.11724,-1.0552 -0.0681,-0.25874 -0.16328,-1.30621 -0.24189,-2.660804 0.10367,-0.18142 0,-1.632766 -0.0777,-1.088392 -0.17699,-2.05532 -0.32655,-3.102255 -0.0735,-0.51435 -0.0608,-0.956916 -0.16328,-1.469488 -0.12466,-0.623324 0.15392,-1.343644 0,-1.959319 -0.11949,-0.477965 -0.16327,-0.812221 -0.16327,-1.306211 0,-0.465272 0.17091,-2.107324 0,-2.449147 -0.26038,-0.520758 -0.0637,-1.0355 -0.16328,-1.632768 -0.19754,-1.185227 -0.16328,-2.212842 -0.16328,-3.428807 0,-0.186539 0.006,-2.606923 0,-2.612424 -0.0969,-0.09694 -0.6183,0.260527 -0.81638,0.326554 -0.48886,0.162952 -1.27845,0 -1.79604,0 -6.31336,0 -12.626718,0 -18.940078,0 -0.286319,0 -2.517984,0.03442 -2.775702,0.163277 -0.04868,0.02434 0.03849,0.124791 0,0.163277 -0.115453,0.115454 -0.343789,-0.07302 -0.489828,0 -0.04868,0.02434 0.03848,0.124791 0,0.163277 -0.03848,0.03848 -0.124794,-0.03849 -0.163277,0 -0.04042,0.04042 0.02349,1.865347 0,1.959316 -0.160912,0.643644 -0.362247,1.321412 -0.489829,1.959319 -0.1354,0.676995 -0.02658,1.439122 -0.163277,2.122596 -0.04285,0.214252 -0.294251,0.554435 -0.163277,0.816383 0.174932,0.349864 0.07913,0.484817 0.163277,0.653105 0.02434,0.04868 0.138936,-0.04868 0.163277,0 0.13062,0.261242 -0.130622,0.718415 0,0.97966 0.222078,0.444158 0.358749,1.108445 0.489829,1.632765 0.04541,0.181617 0.124648,1.901372 0.163277,1.959318 0.17078,0.256167 0.625231,0.346494 0.653105,0.653106 0.03753,0.41279 -0.358756,0.749713 -0.489828,1.142934 -0.08615,0.258442 0.2077,0.816385 -0.163277,0.816385"
       id="path5" />
    <path
       style="fill:#28170b;fill-opacity:1;stroke-width:0.264583"
       d="m 75.270475,187.768 c 0.756103,0.0297 0.840121,-0.33249 1.469488,-0.48983 0.135507,-0.0339 0.366141,0.0618 0.489831,0 0.243399,-0.1217 0.394944,-0.40378 0.653106,-0.48983 0.258162,-0.0861 0.552381,0.066 0.816382,0 0.364416,-0.0911 0.854099,-0.57776 1.306214,-0.65311 0.710147,-0.11836 1.405011,-0.18303 2.122593,-0.32655 1.203643,-0.24073 2.551718,0.24073 3.755361,0 0.168764,-0.0337 0.322858,-0.12154 0.489828,-0.16328 0.808003,-0.202 1.825408,0.26234 2.612425,0 0.44935,-0.14978 0.236037,-0.27934 0.816382,-0.16327 0.119338,0.0239 0.208489,0.13376 0.326554,0.16327 0.614688,0.15367 1.344631,-0.15367 1.959319,0 0.335558,0.0839 0.661953,0.0839 0.979657,0.16328 0.236133,0.059 0.416975,0.26752 0.653108,0.32655 0.608555,0.15214 1.472695,0.0333 2.122593,0.16328 0.119338,0.0239 0.217702,0.10885 0.326554,0.16327 0.217702,0.0544 0.430959,0.13155 0.653106,0.16328 0.269393,0.0385 0.552381,-0.066 0.816382,0 0.535099,0.13378 1.099788,0.35659 1.632765,0.48983 0.683112,-0.29567 0.188868,0.25771 0.326554,0.32655 0.09736,0.0487 0.220951,-0.0264 0.326554,0 0.118069,0.0295 0.207219,0.13942 0.326549,0.16328 0.8502,0.17004 1.75137,0.18304 2.61243,0.32655 0.5093,0.0849 0.97303,0.34799 1.46948,0.48983 0.20933,0.0598 0.43964,-0.0427 0.65311,0 1.00082,0.20017 2.25548,0.56193 2.61243,1.63277 0.17733,0.53201 -0.26439,0.76719 -0.48983,1.14293 -0.0885,0.14759 -0.10885,0.32656 -0.16328,0.48983 -0.16328,0.10885 -0.37209,0.16957 -0.48983,0.32656 -0.0653,0.0871 0.077,0.24958 0,0.32655 -0.2244,0.2244 -0.57543,0.2833 -0.81638,0.48983 -0.14899,0.12771 -0.15104,0.40207 -0.32656,0.48983 -0.19471,0.0974 -0.44378,-0.0598 -0.6531,0 -0.42191,0.12054 -0.73553,0.49014 -1.14294,0.65311 -0.13658,0.0546 -0.35881,-0.0655 -0.48983,0 -0.71945,0.35972 -1.45937,0.65108 -2.28587,0.81638 -0.26684,0.0534 -0.54796,-0.0447 -0.816379,0 -0.701093,0.11685 -0.278566,0.2097 -0.979659,0.32655 -1.529207,0.25487 -4.203568,-0.0747 -5.71468,-0.32655 -0.453096,-0.0755 -1.773465,-0.0469 -2.122593,-0.16328 -0.671669,-0.22389 -1.40951,-0.2077 -2.122596,-0.32655 -0.661625,-0.11027 -1.307293,-0.21788 -1.959319,-0.32655 -1.433269,-0.23888 0.249584,-0.0601 -0.816383,-0.32656 -0.1584,-0.0396 -0.343789,0.073 -0.489828,0 -0.06884,-0.0344 -0.09026,-0.13893 -0.163277,-0.16328 -0.39737,-0.13245 -0.901912,-0.0622 -1.306211,-0.16327 -1.359038,-0.33976 0.197091,0.0113 -0.816382,-0.32655 -0.154898,-0.0516 -0.331431,0.0396 -0.489831,0 -0.302178,0.12127 -0.299456,-0.27896 -0.489829,-0.32656 -0.495832,-0.12396 -1.353227,0.006 -1.796042,-0.32655 -0.09736,-0.073 -0.05443,-0.27213 -0.163277,-0.32655 -0.146039,-0.073 -0.33823,0.0606 -0.489828,0 -0.142931,-0.0572 -0.198469,-0.24117 -0.326554,-0.32656 -0.193112,-0.12874 -0.61481,-0.12498 -0.816383,-0.32655 -0.199969,-0.19997 -0.229169,-0.47933 -0.489831,-0.6531 -1.119682,-0.74646 0.736825,0.73682 -0.653105,-0.65311 -0.03848,-0.0385 -0.124791,0.0385 -0.163277,0 -0.151731,-0.15173 -0.859179,-1.24597 -0.97966,-1.30621 -0.543155,-0.27158 -0.550764,-0.35012 -1.306211,-0.97966 z"
       id="path8" />
    <path
       style="fill:#502d16;fill-opacity:1;stroke-width:0.264583"
       d="m 75.923581,186.46178 c -0.217879,-0.1344 -0.887553,0.73126 -1.142934,0.81639 -0.155078,0.0517 -0.703196,-0.11319 -0.816382,0 -0.111244,0.11124 -0.130464,0.62029 -0.163277,0.6531 -0.03849,0.0385 -0.163277,-0.0544 -0.163277,0 0,0.0794 0.419105,-0.0463 0.653105,-0.16327 0.737836,-0.36892 -0.182549,0.0304 0.979659,-0.16328 0.120045,-0.02 0.207217,-0.13941 0.326555,-0.16328 0.481795,-0.0964 0.968467,-0.16327 1.469487,-0.16327 0.10885,0 0.326554,0.10885 0.326554,0 0,-0.16328 -0.326554,0 -0.489831,0 -0.226274,0 -1.01301,-0.12993 -1.142936,0 -0.03848,0.0385 0.03849,0.12479 0,0.16327 -0.03848,0.0385 -0.10885,0 -0.163274,0 -0.05443,0.10886 -0.07722,0.2405 -0.163278,0.32656 -0.07697,0.077 -0.249584,-0.077 -0.326554,0 -0.03848,0.0385 0.03849,0.12479 0,0.16327 -0.01632,0.0163 -0.566025,-0.0762 -0.326551,0.16328 0.192421,0.19242 0.402982,-0.38263 0.653105,-0.48983 0.2001,-0.0858 0.444585,0.0626 0.653106,0 0.3497,-0.10491 0.637807,-0.36163 0.979659,-0.48983 0.28756,-0.10783 0.331582,0.15322 0.489829,-0.16328 0.02434,-0.0487 -0.03848,-0.12479 0,-0.16327 0.03849,-0.0385 0.217702,0 0.163277,0 -0.272127,0 -0.572984,-0.1217 -0.816383,0 -0.137686,0.0688 -0.180514,0.37523 -0.326554,0.32655 -0.292076,-0.0974 -0.364831,-0.76121 -0.653105,-0.65311 -1.046308,0.39237 -0.73578,1.77125 -0.326551,0.81639 0.115453,-0.26939 0.217701,-0.54426 0.326551,-0.81639 z"
       id="path11" />
    <path
       style="fill:#502d16;fill-opacity:1;stroke-width:0.264583"
       d="m 103.19076,187.60472 c 1.37437,0.23644 3.55028,-0.42909 4.73502,0.16328 0.18734,0.0937 1.17179,0.80195 0.81638,0.97966 -0.2434,0.12169 -0.54425,0 -0.81638,0 -0.4103,0 -1.07531,0.13139 -1.46949,0 -0.60969,-0.20323 -0.90583,-0.65311 -1.63276,-0.65311 -0.33702,0 -3.36322,-0.48983 -1.63277,-0.48983 2.77484,0 0.40385,0.53567 2.28587,0.32655 1.27686,-0.14187 2.65516,-0.38682 3.75536,0.16328 0.0487,0.0243 0.12479,-0.0385 0.16328,0 0.0385,0.0385 0,0.10885 0,0.16328 0,0.10885 0.077,0.24958 0,0.32655 -0.15653,0.15652 -2.81547,0.22503 -2.93898,0.16328 -0.43868,-0.21935 0.787,-0.0294 0.81638,0 0.0861,0.0861 0.0772,0.2405 0.16328,0.32655 0.16143,0.16142 1.14082,0.32338 0.81638,-0.16328 -0.41356,-0.62034 -0.27911,-0.23166 -0.6531,-0.97966 -0.1217,-0.24339 0,0.54426 0,0.81639 0,0.22835 -0.25,1.96947 -0.32656,2.12259 -0.10885,0.2177 -0.15444,0.481 -0.32655,0.65311 -0.33782,0.33782 0.0132,-0.51624 -0.32655,0.16327 -0.20107,0.40215 0.47395,-0.14739 -0.16328,0.48983 -0.13876,0.13876 -0.35107,0.1878 -0.48983,0.32656 -0.0385,0.0385 0.0385,0.12479 0,0.16327 -0.0861,0.0861 -0.25905,0.062 -0.32655,0.16328 -0.0421,0.0631 -0.14425,0.73659 -0.32656,0.97966 -0.13854,0.18473 -0.48982,0.25892 -0.48982,0.48983 0,0.2244 0.47358,-0.0286 0.6531,-0.16328 0.0974,-0.073 0.0659,-0.25353 0.16328,-0.32655 0.41698,-0.31274 0.73221,-0.0264 1.14293,-0.16328 0.14454,-0.0482 0.38009,-0.38008 0.48983,-0.48983 0.21349,-0.21349 0.92425,-3.04092 0.97966,-3.4288 0.0385,-0.2694 -0.0861,-0.55822 0,-0.81639 0.0243,-0.073 0.13894,-0.0902 0.16328,-0.16327 0.0878,-0.26328 0.11765,-0.54264 0.16328,-0.81639 0.0273,-0.16389 0.15263,-1.80667 0,-1.95931 -0.22411,-0.22411 -0.16328,0.28813 -0.16328,0.32655"
       id="path14" />
    <path
       style="fill:#502d16;fill-opacity:1;stroke-width:0.264583"
       d="m 105.63991,188.74766 c 0.2177,-0.0544 0.43306,-0.11927 0.6531,-0.16328 1.27335,-0.25467 0.78229,0.0951 0.97966,0.48983 0.24025,0.48049 0.16328,-0.25345 0.16328,0.48983 0,0.16328 -0.073,0.34379 0,0.48983 0.10574,0.21148 0.32655,-0.23584 0.32655,-0.32655"
       id="path16" />
    <path
       style="fill:#502d16;fill-opacity:1;stroke-width:0.264583"
       d="m 80.821878,67.923031 c -0.02241,1.127635 -0.436044,2.180211 -0.653108,3.265532 -0.280437,1.402191 -0.232325,2.831793 -0.326551,4.245189 -0.145632,2.184485 -0.66054,4.34924 -0.816383,6.53106 -0.05429,0.760021 0.05844,1.526159 0,2.285873 -0.212958,2.768449 -0.132254,-0.986211 -0.326554,2.122593 -0.03055,0.488876 0,0.97966 0,1.469488 -0.05442,0.489831 -0.130492,0.977739 -0.163277,1.469491 -0.08983,1.347507 0,2.730881 0,4.081912 0,1.002631 -0.163277,1.941933 -0.163277,2.938978 0,2.649675 0.165235,5.356793 0,8.000543 -0.0953,1.52483 -0.169344,3.05206 -0.326551,4.57175 -0.159846,1.54517 -0.788257,3.04052 -0.97966,4.57174 -0.054,0.43204 0.01741,0.87116 0,1.30621 -0.08043,2.01081 -0.240958,4.05028 -0.489831,6.04123 -0.230939,1.84753 0.921393,3.56039 1.142937,5.38813 0.144229,1.18989 0.120496,2.39425 0.163277,3.59208 0.0272,0.76147 0,1.52392 0,2.28587 0,0.0544 0,0.21771 0,0.16328 0,-0.88343 -0.744924,-1.18365 -0.816383,-1.46949 -0.0792,-0.3168 0,-0.6531 0,-0.97966 0,-0.27212 -0.192423,-0.62396 0,-0.81638 0.230908,-0.23091 0.653106,0 0.97966,0 1.68719,0 3.374382,0 5.061572,0 1.034084,0 2.073851,0.10825 3.102252,0 4.245843,-0.44693 -1.111723,-0.27361 3.428807,-0.48983 2.125496,-0.10121 4.234678,-0.16327 6.367785,-0.16327 2.231446,0 4.462887,0 6.694337,0 0.7351,0 2.68184,0.19456 3.26553,0 0.0516,-0.0172 0.0385,-0.1248 0,-0.16328 -0.0385,-0.0385 -0.14606,0.0516 -0.16327,0 -0.0516,-0.1549 0,-0.32656 0,-0.48983 0,-0.67683 -0.16328,-1.28972 -0.16328,-1.95932 0,-3.49283 0.16328,-6.953 0.16328,-10.4497 0,-1.17662 0.10647,-2.42085 0,-3.59208 -0.0696,-0.76521 -0.24166,-1.52179 -0.32656,-2.28587 -0.15536,-1.39824 0.12741,-2.84371 0,-4.24519 -0.03,-0.3297 -0.14125,-0.64934 -0.16328,-0.97966 -0.0579,-0.86888 0.10802,-1.74834 0,-2.61242 -0.0622,-0.49791 -0.26431,-0.97159 -0.32655,-1.46949 -0.0473,-0.378041 0.0271,-0.762928 0,-1.142938 -0.0274,-0.383868 -0.13376,-0.759225 -0.16327,-1.142937 -0.12892,-1.675873 0.15215,-3.387913 0,-5.061571 -0.03,-0.329698 -0.13579,-0.649746 -0.16328,-0.97966 -0.0855,-1.025834 0.10241,-2.078183 0,-3.102253 -0.0223,-0.223289 -0.1385,-0.430077 -0.16328,-0.653108 -0.12309,-1.107821 0,-2.314159 0,-3.428807 0,-2.29826 0.0275,-4.568782 -0.16328,-6.857613 -0.10789,-1.294768 0.14342,-2.627932 0,-3.918635 -0.12117,-1.090629 -0.20537,-2.174904 -0.32655,-3.265533 -0.10158,-0.914196 0.23857,-2.135285 -0.16327,-2.938976 -0.14092,-0.281839 0.14882,-1.32067 -0.16328,-1.632764 -0.17789,-0.17789 -1.96221,-0.02291 -2.12259,0 -1.717417,0.245342 -3.47829,0.163277 -5.224853,0.163277 -0.853358,0 -1.76871,0.105462 -2.612424,0 -0.775703,-0.09696 -1.483765,-0.230119 -2.285873,-0.163277 -1.410462,0.117538 -0.951304,0.238445 -2.449147,0.326551 -0.488985,0.02876 -0.982351,-0.05128 -1.469488,0 -2.884816,0.303665 -0.403855,0.315807 -3.102256,0.653108 -0.815133,0.101891 -1.485667,-0.156805 -2.28587,0.163274 -0.476726,0.190691 -0.794067,0.779801 -1.306211,0.816383 -0.391472,0.02796 -0.603745,-0.54033 -0.979659,-0.653106 -0.429877,-0.128963 -0.86192,0.263084 -1.306214,0.326554 -1.621306,0.231614 0.122725,-0.224639 -0.653105,0.163277 -0.09736,0.04868 -0.326554,-0.108852 -0.326554,0 0,0.149106 3.184189,0.06838 3.265532,0.163275 0.257858,0.300836 0.290679,0.748339 0.326552,1.142936 0.09672,1.0639 -0.329759,0.302236 -0.653106,1.142937 -0.199244,0.518038 -0.163324,1.102275 -0.326554,1.632765 -0.05771,0.187555 -0.253672,0.307631 -0.326551,0.489828 -0.17245,0.431123 0.241482,0.248349 -0.163277,0.653108 -0.08606,0.08605 -0.281356,0.05028 -0.326554,0.163275 -0.08085,0.202133 0.03579,0.438366 0,0.653108 -0.04818,0.289102 -0.278368,0.52728 -0.326552,0.816382 -0.05369,0.322109 0.08971,0.665671 0,0.97966 -0.06687,0.234031 -0.256614,0.419973 -0.326554,0.653105 -0.09513,0.317095 -0.06815,0.662564 -0.163277,0.979659 -0.06994,0.233133 -0.262509,0.418283 -0.326551,0.653106 -0.599414,2.197843 0.167608,0.137276 -0.163277,2.122596 -0.05659,0.339532 -0.243068,0.645718 -0.326554,0.979657 -0.250375,1.001506 -0.573622,2.068957 -0.653106,3.102255 -0.09145,1.188881 0.06999,2.402205 0,3.592084 -0.07248,1.232201 -0.318984,2.509697 -0.163277,3.755358 0.01511,0.120761 0.14327,0.20651 0.163277,0.326554 0.189379,1.136264 -0.248007,0.175183 0.163277,1.306211 0.381667,1.049586 0.554152,0.969777 0.653106,1.959319 0.04874,0.487399 -0.06076,0.983443 0,1.469488 0.189449,1.515591 0.380201,3.036961 0.489828,4.571748 0.201372,2.81918 -0.161459,5.68381 -0.326551,8.49037 -0.05433,0.92364 0.05132,1.8519 0,2.7757 -0.07544,1.35796 -0.274307,2.72353 -0.326554,4.08192 -0.03765,0.97893 0.03159,1.95983 0,2.93898 -0.215503,6.68063 -0.102532,-2.19067 -0.326552,4.08191 -0.03108,0.87025 0,1.74161 0,2.61242 0,0.2622 -0.123115,0.97966 0.163275,0.97966"
       id="path18" />
    <path
       style="fill:#502d16;fill-opacity:1;stroke-width:0.264583"
       d="m 104.66025,128.6619 c -0.70135,1.99505 -0.0271,4.62584 -0.97966,6.53106"
       id="path19" />
    <path
       style="fill:#502d16;fill-opacity:1;stroke-width:0.264583"
       d="m 101.23144,118.86531 2.1226,15.83782"
       id="path20" />
  </g>
</svg>
