<?xml version="1.0" encoding="UTF-8" standalone="no"?>
<!-- Created with Inkscape (http://www.inkscape.org/) -->

<svg
   width="210mm"
   height="297mm"
   viewBox="0 0 210 297"
   version="1.1"
   id="svg1"
   inkscape:version="1.3.2 (091e20e, 2023-11-25, custom)"
   sodipodi:docname="person.svg"
   xmlns:inkscape="http://www.inkscape.org/namespaces/inkscape"
   xmlns:sodipodi="http://sodipodi.sourceforge.net/DTD/sodipodi-0.dtd"
   xmlns="http://www.w3.org/2000/svg"
   xmlns:svg="http://www.w3.org/2000/svg">
  <sodipodi:namedview
     id="namedview1"
     pagecolor="#ffffff"
     bordercolor="#000000"
     borderopacity="0.25"
     inkscape:showpageshadow="2"
     inkscape:pageopacity="0.0"
     inkscape:pagecheckerboard="0"
     inkscape:deskcolor="#d1d1d1"
     inkscape:document-units="mm"
     inkscape:zoom="1.6204616"
     inkscape:cx="396.80053"
     inkscape:cy="561.5684"
     inkscape:window-width="3840"
     inkscape:window-height="2054"
     inkscape:window-x="-11"
     inkscape:window-y="-11"
     inkscape:window-maximized="1"
     inkscape:current-layer="layer1" />
  <defs
     id="defs1" />
  <g
     inkscape:label="Layer 1"
     inkscape:groupmode="layer"
     id="layer1">
    <path
       style="fill:#d40000;stroke-width:0.264583"
       d="m 87.189663,129.96811 c 0.505061,-0.11483 0.828474,-1.06734 1.306214,-1.30621 0.517345,-0.25867 0.151945,0.33789 0.653105,-0.16328 0.296921,-0.29692 0.446614,-0.73314 0.816383,-0.97965 0.20252,-0.13502 0.450585,-0.19154 0.653105,-0.32656 0.163277,-0.10885 0.163277,-0.38098 0.326554,-0.48983 0.186714,-0.12447 0.466392,-0.0388 0.653106,-0.16327 0.06404,-0.0427 0.108852,-0.10886 0.163277,-0.16328 0.163277,-0.16328 0.291827,-0.37103 0.489828,-0.48983 0.09334,-0.056 0.249584,0.077 0.326554,0 0.121698,-0.1217 0.06001,-0.35214 0.163277,-0.48983 0.07302,-0.0974 0.229193,-0.0903 0.326552,-0.16328 0.123153,-0.0924 0.188867,-0.25771 0.326554,-0.32655 0.09736,-0.0487 0.229192,0.0487 0.326554,0 0.04868,-0.0243 -0.03266,-0.11974 0,-0.16328 0.138543,-0.18472 0.30952,-0.34558 0.489828,-0.48982 0.09503,-0.076 0.259046,-0.062 0.326554,-0.16328 0.06038,-0.0906 -0.07697,-0.24959 0,-0.32656 0.121698,-0.12169 0.342247,-0.0747 0.489829,-0.16327 0.405402,-0.0163 0.263405,-0.50216 0.489828,-0.65311 0.243866,-0.16257 0.591225,-0.13892 0.816385,-0.32655 0.837928,-0.69827 -0.518311,-0.31231 0.489828,-0.81638 0.200711,-0.10036 0.473586,-0.0286 0.653106,-0.16328 0.08708,-0.0653 -0.06038,-0.23598 0,-0.32655 0.01013,-0.45975 0.368131,-0.0416 0.489831,-0.16328 0.03848,-0.0385 -0.03849,-0.12479 0,-0.16328 0.08164,-0.0816 0.408191,0.0816 0.489828,0 0.07697,-0.077 -0.07697,-0.24958 0,-0.32655 0.05822,-0.40109 0.346628,-0.0678 0.489831,-0.16328 0.128085,-0.0854 0.198467,-0.24116 0.326552,-0.32655 0.04529,-0.0302 0.124793,0.0385 0.163277,0 0.03848,-0.0385 -0.03848,-0.12479 0,-0.16328 0.03009,-0.0301 0.459742,-0.13318 0.489828,-0.16327 0.396569,-0.39657 -0.04855,-0.23976 0.326559,-0.48983 0.26405,-0.17604 0.53253,-0.34791 0.81638,-0.48983 0.0487,-0.0243 0.13894,0.0487 0.16327,0 0.073,-0.14604 -0.14603,-0.41681 0,-0.48983 0.31079,-0.15539 0.62012,0.0165 0.97966,-0.16328 0.0974,-0.0487 -0.077,-0.24958 0,-0.32655 0.0913,-0.0913 1.07352,-0.60682 1.14294,-0.65311 0.21772,-0.14515 0.41007,-0.53158 0.65311,-0.6531 0.0487,-0.0243 0.12479,0.0385 0.16327,0 0.0816,-0.0816 -0.0816,-0.40819 0,-0.48983 0.0385,-0.0385 0.16328,0.0544 0.16328,0 0,-0.17211 -0.13498,-0.32007 -0.16328,-0.48983 -0.11049,-0.66294 -0.10099,-1.21278 -0.48983,-1.79604 -0.25007,-0.37511 -0.0933,0.07 -0.48983,-0.32656 -0.0861,-0.0861 -0.0659,-0.25353 -0.16327,-0.32655 -0.13769,-0.10326 -0.35215,-0.06 -0.48983,-0.16328 -0.0974,-0.073 -0.0772,-0.2405 -0.16328,-0.32655 -0.26271,-0.26271 -0.67151,-0.12112 -0.97966,-0.32655 -0.1588,-0.10587 -0.31089,-0.43019 -0.48983,-0.48983 -0.10326,-0.0344 -0.22919,0.0487 -0.32655,0 -0.13769,-0.0688 -0.19847,-0.24117 -0.32655,-0.32655 -0.254074,-0.16938 -0.707339,-0.12231 -0.979664,-0.32656 -0.123151,-0.0924 -0.183624,-0.26938 -0.326552,-0.32655 -0.151598,-0.0606 -0.329723,0.032 -0.489831,0 -0.119335,-0.0239 -0.217701,-0.10885 -0.326554,-0.16328 -0.217702,-0.0544 -0.430958,-0.13154 -0.653105,-0.16327 -0.645493,-0.0922 -1.154375,-0.003 -1.796042,-0.16328 -0.355251,-0.0888 -0.79742,0.11517 -1.142934,0 -0.07302,-0.0243 -0.08861,-0.14461 -0.163277,-0.16328 -0.359981,-0.09 -0.954333,0.0587 -1.306213,0 -0.120042,-0.02 -0.211098,-0.12479 -0.326552,-0.16327 -0.549817,-0.18327 -1.436862,0.0327 -1.959319,0.16327 -0.211201,0.0528 -0.441904,-0.0528 -0.653105,0 -0.05187,0.013 -0.715431,0.30132 -0.816383,0.32656 -0.163277,0.0408 -0.326554,-0.0816 -0.489831,0 -0.137686,0.0688 -0.188865,0.25771 -0.326551,0.32655 -0.09736,0.0487 -0.22329,-0.0344 -0.326554,0 -0.215831,0.0719 -0.444982,0.38577 -0.653106,0.48983 -0.441166,0.22058 -0.86859,0.27102 -1.306213,0.48983 -0.275373,0.13769 -0.389104,0.4947 -0.653105,0.6531 -0.147582,0.0886 -0.335892,0.0863 -0.489832,0.16328 -0.351033,0.17552 -0.628623,0.47759 -0.979656,0.65311 -0.15394,0.077 -0.346628,0.0678 -0.489831,0.16327 -0.192128,0.12809 -0.301932,0.35562 -0.489829,0.48983 -0.502613,0.35901 -1.114454,0.63412 -1.632765,0.97966 -0.323461,-0.0163 -0.07722,0.2405 -0.163277,0.32656 -0.396568,0.39656 -0.23976,-0.0486 -0.489831,0.32655 -0.487749,0.73163 -0.911812,1.66035 -1.306211,2.44915 -0.316174,0.63234 -0.05696,0.39869 -0.163277,1.14293 -0.159139,1.11398 -0.727186,2.07876 -0.489828,3.26553 0.131408,0.65705 0.119147,0.075 0.326551,0.48983 0.263028,0.52605 0.227891,1.37083 0.653106,1.79604 0.08606,0.0861 0.26394,0.0589 0.326554,0.16328 0.70961,1.18268 -0.08893,0.22304 0.163277,0.97966 0.09895,0.29686 0.916374,1.31128 0.979659,1.46949 0.06064,0.1516 -0.03202,0.32972 0,0.48983 0.03062,0.15308 1.026081,1.41106 1.142934,1.46949 0.977596,0.48879 3.64191,0.6531 4.73502,0.6531 z"
       id="path1" />
    <path
       style="fill:#ff2a2a;stroke-width:0.264583"
       d="m 83.271028,113.47718 c -0.88741,-0.0406 -1.75514,0.0204 -2.612424,0.16328 -0.339535,0.0566 -0.640128,0.26996 -0.97966,0.32655 -0.501663,0.0836 -1.116827,0 -1.632765,0 -0.272129,0 -0.552381,0.066 -0.816385,0 -0.118065,-0.0295 -0.208486,-0.13376 -0.326551,-0.16327 -0.1056,-0.0264 -0.229195,0.0487 -0.326554,0 -0.04868,-0.0243 0,-0.10885 0,-0.16328 -0.10885,-0.0544 -0.208486,-0.13376 -0.326551,-0.16328 -0.391126,-0.0978 -0.937099,-0.10508 -1.306214,-0.32655 -0.132001,-0.0792 -0.188865,-0.25771 -0.326554,-0.32655 -0.20071,-0.10036 -0.452392,-0.0629 -0.653105,-0.16328 -0.137687,-0.0688 -0.198467,-0.24116 -0.326552,-0.32655 -0.20252,-0.13501 -0.480999,-0.15445 -0.653108,-0.32655 -0.121698,-0.1217 -0.06781,-0.34663 -0.163274,-0.48983 -0.09659,-0.14489 -0.340223,0.13594 -0.489831,-0.16328 -0.04868,-0.0974 0.04868,-0.22919 0,-0.32655 -0.135779,-0.27156 -0.385392,-0.50308 -0.489829,-0.81639 -0.102034,-0.3061 0.07485,-0.29591 -0.163277,-0.6531 -0.19917,-0.29876 -0.208169,-0.0163 -0.326554,-0.48983 -0.0396,-0.1584 0.115454,-0.37438 0,-0.48983 -0.03848,-0.0385 -0.12479,0.0385 -0.163277,0 -0.153059,-0.15306 0.100825,-0.77801 0,-0.97966 -0.02434,-0.0487 -0.138935,0.0487 -0.163274,0 -0.08708,-0.17416 0.08708,-0.47895 0,-0.65311 -0.431075,-0.86215 -0.07579,-2.29756 0.326551,-3.10225 0.0822,-0.16439 -0.131432,-0.91394 0,-0.97966 0.09736,-0.0487 0.229196,0.0487 0.326554,0 0.09189,-0.046 0.306277,-0.88788 0.489829,-0.97966 0.280133,-0.14006 2.227043,-0.0669 2.612424,-0.16328 0.51667,-0.12916 1.231604,-0.30438 1.796042,-0.16327 0.794181,0.19854 1.65463,0.2912 2.449147,0.48983 0.415494,0.10387 1.701541,0.72702 2.122596,0.97966 0.264002,0.1584 0.389104,0.4947 0.653106,0.6531 0.147582,0.0885 0.342249,0.0747 0.489831,0.16328 0.356206,0.21372 0.802761,0.56125 1.142934,0.81638 0.601755,0.45132 0.106254,0.17709 0.489831,0.81638 0.254891,0.42482 0.997373,0.86953 1.142933,1.30622 0.0951,0.28529 0.06818,0.53109 0.163278,0.81638 0.04868,0.14604 0.277873,0.18051 0.326554,0.32655 0.136038,0.40812 0.02413,0.88876 0.163277,1.30621 0.172098,0.5163 0.2209,0.70114 0,1.14294 -0.04868,0.0974 0.04868,0.22919 0,0.32655 -0.03442,0.0688 -0.138938,0.0903 -0.163277,0.16328 -0.03442,0.10326 0.03442,0.22329 0,0.32655 -0.02434,0.073 -0.128855,0.0944 -0.163277,0.16328 -0.02434,0.0487 0.03848,0.12479 0,0.16328 -0.03848,0.0385 -0.138936,-0.0487 -0.163277,0 -0.108398,0.21679 -0.05488,0.59958 -0.163278,0.81638 -0.02434,0.0487 -0.138935,-0.0487 -0.163274,0 -0.04868,0.0974 0.06038,0.23598 0,0.32655 -0.01013,0.45974 -0.368131,0.0416 -0.489831,0.16328 -0.08185,0.0819 -0.123968,0.4223 -0.326551,0.48983 -0.263277,0.0878 -0.544256,0.10885 -0.816383,0.16327 z"
       id="path2" />
    <path
       style="fill:#c87137;stroke-width:0.264583"
       d="m 86.863109,129.96811 c -0.35837,0.88467 -0.550283,1.75368 -0.979656,2.61243"
       id="path3" />
    <path
       style="fill:#c87137;stroke-width:0.264583"
       d="m 88.495877,129.31501 c -0.163277,0.2177 -0.326554,0.4354 -0.489831,0.6531 -0.05442,0 -0.124791,-0.0385 -0.163277,0 -0.311769,0.31177 -0.50333,2.1631 -0.653106,2.61243 -0.07697,0.2309 -0.259685,0.41907 -0.326554,0.6531 -0.04485,0.157 0.02685,0.32878 0,0.48983 -0.08364,0.50183 -0.206782,0.99042 -0.326551,1.46949 -0.191878,0.76752 0,3.18262 0,4.08191 0,0.64363 -0.03596,1.19833 0.163277,1.79605 0.176877,0.53063 -0.09244,1.24141 0,1.79604 0.09256,0.55535 0.395833,1.06879 0.489828,1.63276 0.06796,0.40775 0.19072,0.57217 0.326554,0.97966 0.03442,0.10327 -0.07697,0.24959 0,0.32656 0.206471,0.20647 0.593887,0.2153 0.816383,0.32655 0.343064,0.17153 -0.0032,0.32338 0.163277,0.48983 0.03848,0.0385 0.114596,-0.0243 0.163274,0 0.283028,0.14151 0.144174,0.37461 0.489831,0.48983 0.103265,0.0344 0.229193,-0.0487 0.326552,0 0.3122,0.1561 -0.458494,0.33282 0.326554,0.48983 0.654383,0.13087 1.303327,0.16255 1.959319,0.32655 0.163277,0.0408 0.326551,-0.0816 0.489828,0 0.04868,0.0243 -0.03848,0.12479 0,0.16328 0.06663,0.0666 2.298989,0.78635 2.449147,0.81638 0.160108,0.032 0.331431,-0.0396 0.489832,0 0.383344,0.0958 0.770699,0.2521 1.142936,0.32655 0.213474,0.0427 0.441902,-0.0528 0.653105,0 0.8366,0.20915 1.634178,0.49011 2.449148,0.65311 0.160104,0.032 0.331427,-0.0396 0.489828,0 0.07467,0.0187 0.08861,0.14461 0.163279,0.16328 0.1584,0.0396 0.32972,-0.032 0.48983,0 0.11933,0.0239 0.20651,0.14326 0.32655,0.16327 0.42948,0.0716 0.87519,-0.0616 1.30621,0 0.17038,0.0243 0.31945,0.13894 0.48983,0.16328 0.93732,0.1339 1.98992,0 2.93898,0 0.4625,0 0.85225,0.25407 1.30621,0.16327 0.11934,-0.0239 0.20722,-0.13941 0.32656,-0.16327 0.50345,-0.10069 0.82433,-0.003 1.30621,-0.16328 0.23746,-0.0791 0.59543,0.11048 0.81638,0 0.74725,-0.37362 -0.69285,0.0677 0.48983,-0.32655 0.14695,-0.049 0.34288,0.049 0.48983,0 0.41755,-0.13919 1.07513,-0.55348 1.46949,-0.81638 0.005,-0.003 1.2948,-1.44666 1.30621,-1.46949 0.0487,-0.0974 -0.0653,-0.23947 0,-0.32656 0.19041,-0.25388 0.65311,-0.2177 0.81638,-0.48982 0.11546,-0.19243 0.0231,-0.47788 0.16328,-0.65311 0.10752,-0.1344 0.35544,-0.0558 0.48983,-0.16328 0.38283,-0.30627 0.24576,-0.49095 0.48983,-0.81638 0.48473,-0.64631 0.17371,-0.0104 0.81638,-0.65311 0.12646,-0.12646 1.95221,-2.74014 1.95932,-2.7757 0.032,-0.1601 -0.0396,-0.33143 0,-0.48983 0.0187,-0.0747 0.13894,-0.0903 0.16328,-0.16327 0.0344,-0.10327 -0.0264,-0.22096 0,-0.32656 0.19711,-0.78845 0.0776,0.008 0.32655,-0.48983 0.13062,-0.26124 -0.13062,-0.71841 0,-0.97966 0.10557,-0.21114 0.30829,-0.52636 0.16328,-0.81638 -0.0243,-0.0487 -0.12479,0.0385 -0.16328,0 -0.1841,-0.18409 -0.10643,-0.75954 -0.32655,-0.97966 -0.0385,-0.0385 -0.1248,0.0385 -0.16328,0 -0.11319,-0.11318 0.0517,-0.6613 0,-0.81638 -0.0487,-0.14604 -0.27787,-0.18051 -0.32655,-0.32655 -0.0838,-0.25134 0.14234,-0.44936 -0.16328,-0.65311 -0.0906,-0.0604 -0.23598,0.0604 -0.32655,0 -0.47422,-0.31615 0.0713,-0.30124 -0.16328,-0.65311 -0.1269,-0.19034 -0.68948,-0.29948 -0.81638,-0.48982 -0.0604,-0.0906 0.0344,-0.22329 0,-0.32656 -0.0986,-0.29594 -1.24196,-0.58885 -1.46949,-0.81638 -0.19242,-0.19242 -0.29741,-0.46068 -0.48983,-0.65311 -0.11545,-0.11545 -0.34379,0.073 -0.48983,0 -0.0487,-0.0243 0.0302,-0.11799 0,-0.16327 -0.0854,-0.12809 -0.19847,-0.24117 -0.32655,-0.32656 -0.0453,-0.0302 -0.13894,0.0487 -0.16328,0 -0.073,-0.14603 0.11545,-0.37437 0,-0.48983 -0.0544,-0.0544 -0.4354,-0.10885 -0.48983,-0.16327 -0.0695,-0.0695 -0.0242,-0.93131 0,-0.97966 0.12454,-0.24907 0.36807,-0.4096 0.48983,-0.65311 0.0871,-0.17416 -0.0871,-0.47894 0,-0.6531 0.10453,-0.20907 0.25399,-0.43541 0.32655,-0.65311 0.0632,-0.18964 0.12311,-1.34638 0,-1.46949 -0.0385,-0.0385 -0.12479,0.0385 -0.16327,0 -0.0385,-0.0385 0.0385,-0.12479 0,-0.16328 -0.24469,-0.24468 -1.14335,0.16308 -1.46949,0 -0.30252,-0.15126 -0.62341,-0.37107 -0.97966,-0.48982 -0.0924,-0.0308 -0.42425,0.0656 -0.48983,0 -0.33782,-0.33783 0.51624,0.0132 -0.16328,-0.32656 -0.0487,-0.0243 -0.12479,0.0385 -0.16327,0 -0.0385,-0.0385 0.0487,-0.13893 0,-0.16328 -0.19472,-0.0974 -0.49917,0.15394 -0.65311,0 -0.077,-0.077 0.0653,-0.23947 0,-0.32655 0.0309,-0.84354 -0.45059,-0.19154 -0.65311,-0.32655 -0.49431,0.4029 -0.28084,-0.44412 -0.32655,-0.48983 -0.077,-0.077 -0.24958,0.077 -0.32655,0 -0.17211,-0.17211 -0.12404,-0.51809 -0.32656,-0.6531 -0.0906,-0.0604 -0.24958,0.077 -0.32655,0 -0.077,-0.077 0.0487,-0.2292 0,-0.32656 -0.0159,-0.0318 -0.29112,-0.12785 -0.32655,-0.16328 -0.2618,-0.2618 -0.55458,-0.71785 -0.81638,-0.97965 -0.1836,-0.1836 -0.59833,-0.34447 -0.81639,-0.48983 -0.24491,-0.16328 -0.16327,-0.32656 -0.48982,-0.48983 -0.0974,-0.0487 -0.23948,0.0653 -0.32656,0 -0.61231,-0.45924 -0.0924,-0.38819 -0.48983,-0.65311 -0.10126,-0.0675 -0.2111,-0.12479 -0.32655,-0.16328 -0.0516,-0.0172 -0.13894,0.0487 -0.16328,0 -0.073,-0.14604 0.11546,-0.37437 0,-0.48983 -0.0301,-0.0301 -0.45974,-0.13319 -0.48983,-0.16327 -0.0816,-0.0816 -0.0816,-0.24492 -0.16327,-0.32656 -0.0385,-0.0385 -0.1248,0.0385 -0.16328,0 -0.077,-0.077 0.0487,-0.22919 0,-0.32655 -0.11906,-0.23813 -0.2612,-0.2612 -0.32655,-0.32655 -0.45975,-0.0101 -0.0416,-0.36813 -0.16328,-0.48983 -0.0385,-0.0385 -0.12479,0.0385 -0.16328,0 -0.11854,-0.11854 -0.22839,-0.55495 -0.48983,-0.81638"
       id="path4" />
    <path
       style="fill:#800000;fill-opacity:1;stroke-width:0.264583"
       d="m 89.638811,146.94887 c -0.10885,0.2177 -0.544253,0.54426 -0.326552,0.65311 0.217702,0.10885 0.521272,-0.79915 0.326552,-0.65311 -0.326552,0.38098 -0.653106,0.76196 -0.97966,1.14294 0,0.0544 0.02434,0.11459 0,0.16327 -0.03442,0.0688 -0.138935,0.0903 -0.163274,0.16328 -0.03442,0.10326 0.06038,0.23598 0,0.32655 -0.09245,0.13868 -0.673013,0.39425 -0.816385,0.48983 -0.855999,0.57067 0.707533,-0.38098 -0.163275,0.48983 -0.870809,0.87081 0.08084,-0.69272 -0.489831,0.16328 -0.232584,0.34888 -0.520755,0.84731 -0.816382,1.14293 -0.138758,0.13876 -0.35107,0.1878 -0.489828,0.32656 -0.0613,0.0613 -0.420656,0.74721 -0.489831,0.81638 -0.08605,0.0861 -0.240499,0.0772 -0.326552,0.16328 -0.1217,0.1217 -0.04158,0.36813 -0.163277,0.48983 -0.186603,0.1866 -0.67365,0.36764 -0.816382,0.6531 -0.470795,0.94159 0.212061,0.0438 -0.489831,0.97966 -0.472782,0.63038 -1.760255,2.24226 -1.959317,2.93898 -0.05981,0.20932 0.06884,0.44657 0,0.65311 -0.04868,0.14603 -0.217702,0.2177 -0.326554,0.32655 -0.108852,0.2177 -0.259686,0.41907 -0.326554,0.6531 -0.04485,0.157 0.03202,0.32973 0,0.48983 -0.02387,0.11934 -0.13376,0.20849 -0.163274,0.32656 -0.08964,0.35857 0.08964,0.78437 0,1.14293 -0.02952,0.11807 -0.13376,0.20849 -0.163277,0.32656 -0.248182,0.99272 0.304059,2.84318 0,3.75536 -0.173376,0.52012 -0.359185,0.9469 -0.489831,1.46948 -0.177768,0.71108 0.231161,1.5924 0,2.28587 -0.02434,0.073 -0.10885,0.10886 -0.163277,0.16328 -0.05442,0.16328 -0.129522,0.32107 -0.163275,0.48983 -0.0628,0.31399 0.0628,0.66567 0,0.97966 -0.01511,0.0755 -0.108852,0.10885 -0.163277,0.16328 -0.05442,0.2177 -0.131543,0.43096 -0.163277,0.6531 -0.04618,0.32327 0.06404,0.65945 0,0.97966 -0.02387,0.11934 -0.139409,0.20722 -0.163277,0.32655 -0.108291,0.54147 0,1.23937 0,1.79605 0,2.14493 0.148572,4.18636 0.653106,6.20451 0.176662,0.70664 -0.01072,1.6113 0.326554,2.28587 0.162853,0.3257 0.490254,0.65395 0.653105,0.97965 0.113501,0.22701 0.02241,0.53467 0.163277,0.81639 -0.04253,0.34496 0.259046,0.062 0.326554,0.16327 0.04492,0.0674 0.461862,0.86779 0.489829,0.97966 0.0396,0.1584 -0.0396,0.33143 0,0.48983 0.05805,0.23221 0.403018,0.23974 0.489831,0.32656 0.05442,0.0544 0.108849,0.4354 0.163274,0.48982 0.03849,0.0385 0.138938,-0.0487 0.163277,0 0.04868,0.0974 -0.0264,0.22096 0,0.32656 0.05106,0.20425 0.550249,1.09151 0.653108,1.14294 0.04868,0.0243 0.124791,-0.0385 0.163275,0 0.07697,0.077 -0.04868,0.22919 0,0.32655 0.03442,0.0688 0.128854,0.0944 0.163277,0.16327 0.212682,0.42537 0,1.43775 0,1.95932 0,0.52183 -0.04735,0.88495 0.163277,1.30621 0.179533,0.35907 0,1.21555 0,1.63277 0,0.25964 -0.142269,1.16394 0,1.30621 0.150167,0.15017 0.756308,-0.0744 0.979659,0 0.657855,0.21929 0.588412,0.42514 0.97966,0.81638 0.121697,0.1217 0.36813,0.0416 0.489828,0.16328 0.165402,0.1654 0.209505,1.13064 0.326554,1.30621 0.209315,0.31398 0.474231,0.64531 0.816382,0.81639 0.04868,0.0243 0.124791,-0.0385 0.163277,0 0.07697,0.077 -0.07697,0.24958 0,0.32655 0.05443,0.0544 0.435404,0.10885 0.489829,0.16328 0.337825,0.33782 -0.516242,-0.0132 0.163277,0.32655 0.348324,0.17416 0.957889,-0.17416 1.306211,0 0.147386,0.0737 0.791178,0.35176 0.979659,0.16327 0.03849,-0.0385 -0.03848,-0.12479 0,-0.16327 0.08164,-0.0816 0.408191,0.0816 0.489831,0 0.03848,-0.0385 -0.03849,-0.12479 0,-0.16328 0.07697,-0.077 0.249584,0.077 0.326552,0 0.03849,-0.0385 0.05443,-0.16327 0,-0.16327 -0.05442,0 -0.05442,0.16327 0,0.16327 0.05443,0 -0.03848,-0.12479 0,-0.16327 0.155212,-0.15521 1.133006,0.23995 1.306213,0.32655 0.130622,0.0653 0.359209,-0.0653 0.489829,0 0.362029,0.18101 1.142584,0.97895 1.306213,1.30621 0.02434,0.0487 -0.03849,0.12479 0,0.16328 0.03848,0.0385 0.124791,-0.0385 0.163277,0 0.08605,0.0861 0.07722,0.2405 0.163274,0.32655 0.337826,0.33782 -0.0132,-0.51624 0.326555,0.16328 0.112609,0.22521 -0.197737,0.14604 0.163277,0.32655 0.09736,0.0487 0.249584,-0.077 0.326551,0 0.03849,0.0385 -0.03848,0.12479 0,0.16328 0.08496,0.0849 0.515051,0 0.653108,0 0.854157,0 1.956078,-0.20491 2.775701,0 0.374896,0.0937 0.765514,0.26365 1.142936,0.32655 0.84491,0.14082 0.4613,-0.14082 1.30621,0 0.12004,0.02 0.20722,0.13941 0.32655,0.16328 0.32022,0.064 0.65755,-0.0537 0.97966,0 1.51134,0.25189 3.22653,0.30169 4.73502,0 0.56954,-0.11391 1.2166,0.0527 1.79604,0 0.437,-0.0397 0.86923,-0.12355 1.30622,-0.16328 1.86757,-0.16978 3.83564,0 5.71468,0 0.46483,0 1.17455,0.0764 1.63276,0 0.41795,-0.0697 0.8684,-0.27183 1.30621,-0.32655 0.27003,-0.0338 0.54592,0.03 0.81638,0 1.03063,-0.11452 2.07812,-0.34353 3.10226,-0.48983 0.37336,-0.0533 0.76957,0.0533 1.14294,0 0.17037,-0.0243 0.31945,-0.13894 0.48982,-0.16328 0.73748,-0.10535 0.88506,0.0237 1.63277,-0.16328 0.40865,-0.10216 0.24446,0.10217 0.6531,0 0.23614,-0.059 0.41444,-0.27882 0.65311,-0.32655 0.30685,-0.0614 0.67491,0.0762 0.97966,0 0.2177,-0.0544 0.49443,-0.005 0.65311,-0.16328 0.0385,-0.0385 -0.0385,-0.12479 0,-0.16327 0.002,-0.002 0.6942,-0.12255 0.81638,-0.16328 0.23746,-0.0792 0.59543,0.11048 0.81638,0 0.21065,-0.10532 0.44055,-0.4734 0.48983,-0.48983 0.10327,-0.0344 0.22329,0.0344 0.32655,0 0.056,-0.0187 0.48983,-0.73532 0.48983,-0.81638 0,-0.077 -0.12058,-0.0992 -0.16327,-0.16328 -0.0675,-0.10126 -0.062,-0.25904 -0.16328,-0.32655 -0.0906,-0.0604 -0.23598,0.0604 -0.32655,0 -0.27752,-0.18501 -0.10463,-0.41853 -0.16328,-0.65311 -0.059,-0.23613 -0.28654,-0.41302 -0.32655,-0.6531 -0.24133,-1.44796 0.16328,-2.96979 0.16328,-4.40847 0,-0.95219 0.0208,-1.85522 -0.16328,-2.7757 -0.064,-0.32021 0.0537,-0.65755 0,-0.97966 -0.02,-0.12004 -0.10885,-0.2177 -0.16328,-0.32655 -0.0544,-0.16328 -0.13894,-0.31945 -0.16327,-0.48983 -0.0781,-0.54672 -0.0854,-1.08729 -0.16328,-1.63277 0.0155,-0.41343 -0.26142,-0.7521 -0.32655,-1.14293 -0.095,-0.57019 0.1134,-1.07941 -0.16328,-1.63277 -0.40148,-0.80295 -0.64379,-1.60947 -0.97966,-2.44915 -0.23516,-0.58789 -0.72457,-1.15335 -0.81638,-1.79604 -0.0308,-0.21551 0.0358,-0.43836 0,-0.6531 -0.10757,-0.64538 -0.44085,-1.48581 -0.65311,-2.1226 -0.17766,-0.53298 -0.2133,-0.13686 -0.32655,-0.81638 -0.0268,-0.16106 0.0449,-0.33283 0,-0.48983 -0.0669,-0.23403 -0.24959,-0.4222 -0.32656,-0.65311 -0.37362,-1.12087 0.62518,0.76053 -0.16327,-0.81638 -0.0344,-0.0688 -0.14461,-0.0886 -0.16328,-0.16328 -0.0396,-0.1584 0.0268,-0.32877 0,-0.48982 -0.0913,-0.54764 -0.38422,-1.10471 -0.48983,-1.63277 -0.032,-0.16011 0.032,-0.32973 0,-0.48983 -0.13141,-0.65704 -0.11915,-0.075 -0.32655,-0.48983 -0.24832,-0.49663 -0.22466,-0.96001 -0.32655,-1.46949 -0.0809,-0.40429 -0.46853,-0.77377 -0.65311,-1.14293 -0.10885,-0.21771 -0.24958,-0.4222 -0.32655,-0.65311 -0.0344,-0.10327 0.0487,-0.22919 0,-0.32655 -0.0243,-0.0487 -0.13894,0.0487 -0.16328,0 -0.56791,-1.13583 0.0202,-0.24578 -0.16327,-0.97966 -0.11945,-0.47776 -0.71623,-1.06887 -0.81639,-1.46949 -0.0396,-0.1584 0.0606,-0.33823 0,-0.48983 -0.0572,-0.14293 -0.24735,-0.19455 -0.32655,-0.32655 -0.29005,-0.48342 -0.43486,-1.01167 -0.81638,-1.46949 -0.14783,-0.17739 -0.36175,-0.2977 -0.48983,-0.48983 -0.27286,-0.40928 -0.55796,-1.20205 -0.81639,-1.63277 -0.0656,-0.10938 -1.02903,-1.19231 -1.14293,-1.30621 -0.13876,-0.13876 -0.36725,-0.17332 -0.48983,-0.32655 -0.10752,-0.1344 -0.0632,-0.34978 -0.16328,-0.48983 -0.97535,-1.36549 -0.27999,-0.11671 -1.14293,-0.97966 -0.0861,-0.0861 -0.0772,-0.2405 -0.16328,-0.32656 -0.26154,-0.26153 -0.62306,-0.26647 -0.81638,-0.6531 -0.0487,-0.0974 0.0344,-0.22329 0,-0.32655 -0.0854,-0.25613 -0.341,-0.10331 -0.48983,-0.32656 -0.14074,-0.2111 -0.36873,-0.72159 -0.65311,-0.81638 -0.10326,-0.0344 -0.22329,0.0344 -0.32655,0 -0.16044,-0.0535 -0.2694,-0.4041 -0.32655,-0.48983 -0.29738,-0.44607 -0.79723,-0.63395 -1.14294,-0.97966 -0.0861,-0.0861 -0.0772,-0.2405 -0.16328,-0.32655 -0.1217,-0.1217 -0.34662,-0.0678 -0.48983,-0.16328 -0.35318,-0.23545 -0.36509,-0.72612 -0.81638,-0.81638 -0.16011,-0.032 -0.33493,0.0516 -0.48983,0 -0.0516,-0.0172 0.0302,-0.11799 0,-0.16328 -0.63113,-0.94669 -0.0785,-0.1209 -0.48983,-0.32655 -0.13635,-0.0682 -0.30633,-0.47972 -0.32655,-0.48983 -0.0974,-0.0487 -0.2177,0 -0.32655,0 -0.10886,-0.0544 -0.2253,-0.0958 -0.32656,-0.16328 -0.73237,-0.48824 -1.16744,-0.81638 -1.95932,-0.81638"
       id="path5" />
    <path
       style="fill:#2c5aa0;fill-opacity:1;stroke-width:0.264583"
       d="m 95.353491,201.64651 c -0.170498,0.47115 0.403195,1.12295 0.489828,1.46948 0.06803,0.27213 -0.04536,0.54426 0,0.81639 0.252373,1.51423 0.03031,-0.22551 0.489831,1.30621 0.09513,0.3171 0.05859,0.66559 0.163274,0.97966 0.06206,0.18616 0.278961,0.29945 0.326554,0.48983 0.066,0.264 -0.05903,0.55073 0,0.81638 0.0528,0.2376 0.241091,0.42521 0.326554,0.65311 0.299152,0.79774 0.04438,0.6922 0.326552,1.63276 0.06994,0.23314 0.27882,0.41444 0.326554,0.65311 0.06404,0.32021 0,0.6531 0,0.97966 0.05442,0.32655 0.08298,0.65848 0.163277,0.97966 0.217596,0.87038 0.570632,1.70521 0.653105,2.61242 0.07899,0.86893 0.105238,1.74185 0.163277,2.61242 0.0181,0.27153 -0.05903,0.55074 0,0.81639 0.0528,0.2376 0.271823,0.41594 0.326552,0.65311 0.11082,0.48022 0.08225,0.98335 0.163277,1.46948 0.02829,0.16977 0.138938,0.31945 0.163277,0.48983 0.118385,0.82869 0,1.77319 0,2.61243 0,1.68719 0,3.37438 0,5.06157 0,1.8749 -0.066,-0.13545 0.163277,1.46949 0.07606,0.53246 -0.05939,1.09823 0,1.63276 0.13358,1.20222 0.53277,2.3887 0.65311,3.59209 0.20755,2.0755 0,4.27952 0,6.36778 0,0.21927 -0.0388,2.08382 0,2.1226 0.23335,0.23336 1.02569,0.25258 1.46948,0.32655 0.33954,0.0566 0.6381,0.28386 0.97966,0.32655 0.48605,0.0608 0.98917,-0.0961 1.46949,0 0.20046,0.0401 1.16839,0.61865 1.30621,0.65311 0.28664,0.0717 3.21877,0.21004 3.26553,0.16328 0.0385,-0.0385 -0.0385,-0.1248 0,-0.16328 0.0382,-0.0382 0.50305,-0.27653 0.65311,-0.32656 0.20653,-0.0688 0.45839,0.0974 0.65311,0 0.18701,-0.0935 -0.15467,-1.27177 -0.16328,-1.30621 -0.0372,-0.14873 0.16328,-0.99465 0.16328,-1.30621 0,-1.46258 0.12251,-2.97952 -0.16328,-4.40847 -0.071,-0.35492 -0.43911,-0.94004 -0.48983,-1.14293 -0.0396,-0.1584 0.032,-0.32972 0,-0.48983 -0.0239,-0.11934 -0.13941,-0.20722 -0.16328,-0.32655 -0.0953,-0.47663 -0.0943,-0.98657 -0.16327,-1.46949 -0.10954,-0.76677 -0.33899,-1.53168 -0.48983,-2.28587 -0.10467,-0.52333 0.10466,-1.10945 0,-1.63277 -0.0239,-0.11934 -0.13376,-0.20849 -0.16328,-0.32655 -0.24654,-0.98617 0.0753,-4.00636 0.16328,-5.06157 0.0362,-0.4339 -0.0616,-0.87519 0,-1.30622 -0.0155,-0.41343 0.26141,-0.7521 0.32655,-1.14293 0.0827,-0.49643 0.0252,-2.5937 0.16328,-2.93898 0.0729,-0.1822 0.25367,-0.30763 0.32655,-0.48983 0.15002,-0.37504 0.15665,-0.90978 0.32655,-1.30621 0.0773,-0.18037 0.25368,-0.30763 0.32656,-0.48983 0.0809,-0.20213 -0.0809,-0.45098 0,-0.65311 0.0729,-0.1822 0.25367,-0.30763 0.32655,-0.48983 0.0404,-0.10106 -0.077,-0.24958 0,-0.32655 0.077,-0.077 0.22329,0.0344 0.32655,0 0.23157,-0.0772 0.23313,-0.3964 0.32656,-0.48983 0.1276,-0.1276 0.4915,-0.10941 0.6531,-0.16328 0.50964,-0.16987 -0.0544,-0.10885 0.16328,-0.32655 0.0604,-0.0604 0.81836,0 0.97966,0 0.91504,0 2.31041,-0.26732 3.10225,0.32655 0.34227,0.25671 0.38807,0.55135 0.48983,0.65311 0.0385,0.0385 0.13894,-0.0487 0.16328,0 0.77874,1.55748 -0.25573,-0.11407 0.16327,1.14294 0.37828,1.13482 0.54902,0.72655 0.81639,1.79604 0.39138,1.56555 0.64288,3.16337 0.97966,4.73502 0.71405,3.33226 -0.11529,-0.90533 0.81638,2.12259 0.11318,0.36783 0.078,0.76766 0.16328,1.14294 0.3738,1.64475 0.89719,3.26223 1.30621,4.89829 0.28281,1.13124 0.51114,2.3096 0.81638,3.42881 0.29492,1.08137 0.69029,2.13072 0.81638,3.26553 0.0793,0.71349 0.24689,1.40564 0.32656,2.1226 0.0887,0.79788 -0.13199,1.65719 0,2.44914 0.0482,0.28911 0.26907,0.52899 0.32655,0.81639 0.0213,0.10673 -0.077,0.24958 0,0.32655 0.27213,0.27213 0.76196,-0.10885 1.14294,-0.16328 0.58539,-0.0836 1.21298,0.0972 1.79603,0 0.12005,-0.02 0.20722,-0.13941 0.32656,-0.16327 0.89126,-0.17826 1.87829,0.14956 2.7757,0 0.16977,-0.0283 0.31945,-0.13894 0.48983,-0.16328 0.94111,-0.13444 2.1352,-0.32445 3.10225,-0.16328 0.26592,0.0443 1.21412,0.41865 1.46949,0.16328 0.077,-0.077 0.0487,-0.22919 0,-0.32655 -0.2074,-0.41481 -0.19514,0.16721 -0.32655,-0.48983 -0.13764,-0.68821 -0.20887,-1.4165 -0.32655,-2.1226 -0.0825,-0.49495 -0.26024,-0.97211 -0.32656,-1.46949 -0.10359,-0.77695 0,-1.66096 0,-2.44915 0,-1.61371 -0.0651,-3.16624 -0.32655,-4.73501 -0.0794,-0.47659 0.0794,-0.9929 0,-1.46949 -0.12211,-0.7327 -0.5325,-1.39897 -0.65311,-2.1226 -0.12196,-0.73176 -0.25239,-1.54429 -0.32655,-2.28587 -0.16658,-1.66578 -0.79337,-3.22169 -0.97966,-4.89829 -0.14012,-1.2611 0.0579,-3.09192 -0.32655,-4.24519 -0.13355,-0.40065 -0.41883,-1.04349 -0.48983,-1.46949 -0.0883,-0.52955 0.0883,-1.10322 0,-1.63277 -0.0283,-0.16976 -0.12952,-0.32106 -0.16328,-0.48983 -0.0733,-0.36632 0.0733,-0.77661 0,-1.14293 -0.25436,-1.2718 -0.12416,0.5153 -0.32655,-1.30622 -0.0418,-0.37588 0.0952,-0.9254 0,-1.30621 -0.0295,-0.11806 -0.13941,-0.20721 -0.16328,-0.32655 -0.24623,-1.23116 0.29562,-3.06273 0,-4.24519 -0.0295,-0.11806 -0.12479,-0.2111 -0.16327,-0.32655 -0.18548,-0.55642 0.03,-1.21633 -0.16328,-1.79605 -0.0766,-0.22979 0.10792,-0.60054 0,-0.81638 -0.0344,-0.0688 -0.13894,-0.0902 -0.16328,-0.16327 -0.0637,-0.1912 0.0568,-1.79605 0,-1.79605 -0.0544,0 0.0385,0.1248 0,0.16328 -0.12439,0.12439 -1.01599,-0.0254 -1.14293,0 -0.11934,0.0239 -0.2111,0.12479 -0.32655,0.16328 -0.34289,0.11429 -0.80006,-0.1143 -1.14294,0 -0.0516,0.0172 0.0385,0.12479 0,0.16327 -0.1217,0.1217 -0.32107,0.12953 -0.48983,0.16328 -0.49752,0.0995 -0.87013,0.10851 -1.30621,0.32655 -0.35825,0.17913 -1.21315,0 -1.63277,0 -0.37521,0 -1.16567,-0.1519 -1.46949,0 -0.0688,0.0344 -0.0902,0.13894 -0.16327,0.16328 -0.84159,0.28053 -2.21551,-0.22169 -3.10226,0 -0.87219,0.21805 -1.74459,-0.0103 -2.61242,0.16328 -1.66802,0.3336 -3.50587,0.16327 -5.22485,0.16327 -0.38391,0 -0.66094,0.16719 -0.97966,0.32656 -0.28978,0.14489 -4.88611,0 -5.5514,0 -1.74162,0 -3.48323,0 -5.22485,0 -0.482526,0 -2.104054,0.17254 -2.449147,0 -0.28385,-0.14193 -0.544256,-0.32656 -0.816382,-0.48983 z"
       id="path6" />
    <path
       style="fill:#00112b;fill-opacity:1;stroke-width:0.264583"
       d="m 99.925231,244.26168 c 1.276379,0.53596 2.785549,-0.16082 4.081919,0.16328 0.0747,0.0187 0.0886,0.1446 0.16327,0.16327 0.264,0.066 0.54426,0 0.81639,0 0.45491,0 1.21085,-0.14063 1.63276,0 0.20316,0.0677 0.44995,0.42211 0.65311,0.48983 0.25816,0.0861 0.54954,-0.0534 0.81638,0 0.11933,0.0239 0.20721,0.13941 0.32655,0.16328 0.67884,0.13577 1.43454,-0.086 2.1226,0 0.27537,0.0344 0.54056,0.13263 0.81638,0.16328 0.37589,0.0418 0.92541,-0.0952 1.30621,0 0.56187,0.14046 1.25294,0.27259 1.79604,0.48982 0.28776,0.11511 1.09269,0.59973 1.30621,0.65311 0.39268,0.0982 0.50692,-0.14619 0.81639,0.16328 0.32445,0.32445 -0.38222,0.73072 -0.97966,0.97966 -0.15066,0.0628 -2.15797,0.94768 -2.28587,0.97966 -0.2112,0.0528 -0.43759,-0.0308 -0.65311,0 -0.17038,0.0243 -0.32006,0.13498 -0.48983,0.16327 -0.45155,0.0753 -1.00615,0 -1.46949,0 -0.7363,0 -1.1051,-0.0646 -1.79604,-0.16327 -1.04068,-0.14867 -2.10559,0.16894 -3.10225,-0.16328 -0.73475,-0.24492 -1.71441,0.24491 -2.44915,0 -0.29646,-0.0988 -0.67868,-0.38951 -0.97966,-0.48983 -0.24679,-0.0823 -0.76822,0.14096 -0.97966,0 -0.35862,-0.23908 -0.61566,-0.47111 -0.97966,-0.65311 -0.679517,-0.33975 0.17455,0.0113 -0.16327,-0.32655 -0.0385,-0.0385 -0.1248,0.0385 -0.16328,0 -0.0385,-0.0385 0.0385,-0.12479 0,-0.16328 -0.0385,-0.0385 -0.124792,0.0385 -0.163279,0 -0.08605,-0.0861 -0.108849,-0.2177 -0.163274,-0.32655 -0.145135,-0.29027 0.09071,-0.0907 0.163274,-0.16327 0.115459,-0.11546 0,-0.32656 0,-0.48984 0,-0.0996 -0.06362,-0.58948 0,-0.6531 0.03849,-0.0385 0.124789,0.0385 0.163279,0 0.0385,-0.0385 0,-0.10885 0,-0.16328 -0.0544,-0.27212 -0.411495,-0.69227 -0.163279,-0.81638 0.354389,-0.1772 0.749769,0.27741 1.142939,0.32655 0.25483,0.0319 0.12575,-0.2515 0.16327,-0.32655 0.054,-0.10788 0.39026,-0.27677 0.48983,-0.32655 0.29027,-0.14514 0.0907,0.0907 0.16328,0.16327 0.0678,0.0678 0.84204,0.29215 0.97966,0.32656 0.53849,0.13462 1.54784,-0.0849 1.95932,0.32655"
       id="path7" />
    <path
       style="fill:#00112b;fill-opacity:1;stroke-width:0.264583"
       d="m 133.39692,252.42551 6.20451,-8.49038"
       id="path8" />
    <path
       style="fill:#00112b;fill-opacity:1;stroke-width:0.264583"
       d="m 155.27597,242.79219 -4.40846,0.16328"
       id="path9" />
    <path
       style="fill:#00112b;fill-opacity:1;stroke-width:0.264583"
       d="M 149.23474,258.46674 123.1105,244.26168"
       id="path10" />
    <path
       style="fill:#00112b;fill-opacity:1;stroke-width:0.264583"
       d="m 165.88895,220.26003 -42.4519,24.49148"
       id="path11" />
    <path
       style="fill:#00112b;fill-opacity:1;stroke-width:0.264583"
       d="m 123.1105,244.0984 c 2.07033,-0.51758 -0.74131,0.12923 1.30621,-0.16327 0.17038,-0.0243 0.32006,-0.13498 0.48983,-0.16328 1.05909,-0.17652 2.20644,0.17651 3.26553,0 0.16977,-0.0283 0.31945,-0.13894 0.48983,-0.16328 0.32327,-0.0462 0.66286,0.0792 0.97966,0 0.11807,-0.0295 0.2177,-0.10885 0.32655,-0.16327 0.2177,-0.0544 0.43176,-0.12639 0.65311,-0.16328 0.84305,-0.14051 1.77488,0.16751 2.61242,0 0.11934,-0.0239 0.20849,-0.13376 0.32656,-0.16328 0.37871,-0.0947 0.91746,0 1.30621,0 0.74272,0 1.41858,0.0225 2.12259,0.16328 0.11934,0.0239 0.20722,0.13941 0.32656,0.16328 0.76343,0.15268 0.22795,-0.21258 0.97965,0.16327 0.0772,0.0386 1.19219,0.6303 1.30622,0.65311 0.1601,0.032 0.34379,-0.073 0.48983,0 0.10885,0.0544 0.0902,0.22919 0.16327,0.32655 0.56169,0.74892 0.81639,0.63895 0.81639,1.63277 0,0.0544 0.0385,0.12479 0,0.16328 -0.29244,0.29243 -1.17993,0.50832 -1.46949,0.6531 -1.21421,0.6071 -2.04353,0.84113 -3.42881,0.97966 -0.91112,0.0911 -1.86981,-0.12941 -2.7757,0 -1.89849,0.27121 1.06456,0.10651 -1.79604,0.32655 -0.59692,0.0459 -1.20199,-0.0743 -1.79604,0 -0.17078,0.0213 -0.31945,0.13894 -0.48983,0.16328 -0.43456,0.0621 -3.09117,0.12523 -3.59209,0 -0.28434,-0.0711 -0.53457,-0.24603 -0.81638,-0.32656 -0.26166,-0.0747 -0.54954,0.0534 -0.81638,0 -0.32181,-0.0644 -0.34066,-0.16327 -0.65311,-0.16327 -0.10885,0 -0.22919,0.0487 -0.32655,0 -0.67952,-0.33976 0.17455,0.0113 -0.16328,-0.32655 -0.0385,-0.0385 -0.11799,0.0302 -0.16327,0 -0.21664,-0.14442 -1.09105,-1.3581 -0.97966,-1.46949 0.0385,-0.0385 0.13893,0.0487 0.16327,0 0.45841,-0.91681 -0.97143,0.53328 0.16328,-0.97966 0.0653,-0.0871 0.24958,0.077 0.32655,0 0.077,-0.077 -0.054,-0.23205 0,-0.32656 0.1729,-0.30257 0.43541,-0.54425 0.65311,-0.81638 z"
       id="path12" />
    <path
       style="fill:#2c5aa0;fill-opacity:1;stroke-width:0.264583"
       d="m 101.558,126.04947 c -0.9354,-0.003 -0.48856,0.73411 -0.97966,0.97966 -0.22522,0.11261 -0.14605,-0.19773 -0.32655,0.16328 -0.0334,0.0668 -0.0457,0.77065 0,0.81638 0.0653,0.0654 0.20748,0.0884 0.32655,0.32656 0.0243,0.0487 -0.0385,0.12479 0,0.16327 0.0625,0.0625 0.75912,0 0.81638,0 1.12679,0 2.28587,0.16452 2.28587,-0.97965 0,-0.10886 0.077,-0.24959 0,-0.32656 -0.0385,-0.0385 -0.12479,0.0385 -0.16327,0 -0.0654,-0.0653 -0.0884,-0.20749 -0.32656,-0.32655 -0.52326,-0.26163 0.19671,0.26163 -0.32655,0 -0.21869,-0.10934 -0.22624,-0.38952 -0.32655,-0.48983 -0.0385,-0.0385 -0.11165,0.0172 -0.16328,0 -0.27805,-0.0927 -0.54425,-0.2177 -0.81638,-0.32656 z"
       id="path13" />
  </g>
</svg>
