<?xml version="1.0" encoding="UTF-8" standalone="no"?>
<!-- Created with Inkscape (http://www.inkscape.org/) -->

<svg
   width="210mm"
   height="297mm"
   viewBox="0 0 210 297"
   version="1.1"
   id="svg1"
   sodipodi:docname="treestump.svg"
   inkscape:version="1.3.2 (091e20e, 2023-11-25, custom)"
   xmlns:inkscape="http://www.inkscape.org/namespaces/inkscape"
   xmlns:sodipodi="http://sodipodi.sourceforge.net/DTD/sodipodi-0.dtd"
   xmlns="http://www.w3.org/2000/svg"
   xmlns:svg="http://www.w3.org/2000/svg">
  <sodipodi:namedview
     id="namedview1"
     pagecolor="#ffffff"
     bordercolor="#000000"
     borderopacity="0.25"
     inkscape:showpageshadow="2"
     inkscape:pageopacity="0.0"
     inkscape:pagecheckerboard="0"
     inkscape:deskcolor="#d1d1d1"
     inkscape:document-units="mm"
     inkscape:zoom="1.6204616"
     inkscape:cx="396.80053"
     inkscape:cy="561.5684"
     inkscape:window-width="3840"
     inkscape:window-height="2054"
     inkscape:window-x="3829"
     inkscape:window-y="-11"
     inkscape:window-maximized="1"
     inkscape:current-layer="layer1" />
  <defs
     id="defs1" />
  <g
     inkscape:label="Layer 1"
     inkscape:groupmode="layer"
     id="layer1">
    <path
       style="fill:#502d16;stroke-width:0.264583"
       d="m 50.289168,204.09565 c 0.470805,-0.19212 0.989172,0.0961 1.469491,0 0.119335,-0.0239 0.206076,-0.14606 0.326551,-0.16327 1.047245,-0.14961 2.234107,0.2292 3.265533,0 0.876662,-0.19482 1.698506,-0.70215 2.612424,-0.81639 1.544077,-0.193 2.777808,-0.42938 4.245189,-0.97965 0.54781,-0.20543 1.273927,-0.22878 1.796042,-0.48983 0.137687,-0.0688 0.18506,-0.26592 0.326552,-0.32656 0.255079,-0.10931 0.549544,-0.087 0.816382,-0.16327 0.329954,-0.0943 2.523546,-1.43104 2.775701,-1.63277 0.09503,-0.076 0.07722,-0.2405 0.163277,-0.32655 0.192424,-0.19242 0.452507,-0.30595 0.653106,-0.48983 1.505196,-1.37976 2.851748,-2.92213 4.245189,-4.40847 0.315857,-0.33691 0.691166,-0.61904 0.97966,-0.97966 4.278934,-5.9905 -0.202044,0.018 2.612424,-3.26553 2.051682,-2.39362 0.449739,-0.77629 1.142936,-1.46948"
       id="path9" />
    <path
       style="fill:#502d16;stroke-width:0.264583"
       d="m 76.576689,190.05387 c -0.568256,0.17812 -0.624848,0.78813 -0.979659,1.14294 -0.138759,0.13876 -0.39247,0.15617 -0.489829,0.32655 -0.137686,0.24095 -0.0285,0.57379 -0.163277,0.81638 -0.149519,0.26914 -0.464087,0.41009 -0.653105,0.65311 -0.194837,0.2505 -0.30784,0.5564 -0.489831,0.81638 -0.199848,0.2855 -0.473808,0.51756 -0.653106,0.81639 -0.150794,0.25132 -0.178874,0.56321 -0.326551,0.81638 -2.327934,3.2591 -0.149447,-0.0277 -0.97966,1.63276 -0.334491,0.66899 -1.35954,1.7944 -1.796042,2.44915 -0.192505,0.28876 -0.774618,1.68119 -0.816382,1.79604 -0.07669,0.21089 -0.05194,0.45827 -0.163277,0.65311 -0.464907,0.81358 -0.60743,0.15033 -0.97966,1.14293 -0.07644,0.20385 0.06884,0.44658 0,0.65311 -0.007,0.0208 -1.500277,2.18417 -1.632764,2.44915 -0.225727,0.45145 -0.270754,1.03134 -0.489831,1.46949 -0.121698,0.2434 -0.345602,0.42234 -0.489829,0.6531 -0.432821,0.69252 -0.266028,0.69533 -0.653105,1.46949 -0.887442,1.77488 -0.0035,-0.15632 -0.97966,1.79604 -0.185367,0.37074 -0.259911,0.79806 -0.489831,1.14294 -0.03019,0.0453 -0.124791,-0.0385 -0.163274,0 -0.03849,0.0385 0,0.10885 0,0.16328 -0.05443,0.10885 -0.07722,0.2405 -0.163277,0.32655 -0.08606,0.0861 -0.259048,0.062 -0.326554,0.16328 -0.237517,0.35627 -0.252315,0.94993 -0.489829,1.30621 -0.17078,0.25617 -0.653108,0.34523 -0.653108,0.6531 0,0.0544 0.124794,0.0385 0.163277,0 0.03849,-0.0385 -0.04528,-0.13308 0,-0.16327 0.05412,-0.0361 1.255279,-0.63128 1.306214,-0.65311 0.206258,-0.0884 0.448045,-0.0721 0.653105,-0.16328 0.869889,-0.38661 1.605741,-1.04778 2.449148,-1.46948 0.153939,-0.077 0.355435,-0.0558 0.489831,-0.16328 0.15323,-0.12259 0.187793,-0.35107 0.326551,-0.48983 0.138758,-0.13876 0.336598,-0.20397 0.489831,-0.32655 0.807887,-0.64631 -0.195538,0.0323 0.653105,-0.81639 0.138759,-0.13875 0.375772,-0.16687 0.489829,-0.32655 0.170357,-0.23849 0.163975,-0.57252 0.326554,-0.81638 0.170781,-0.25617 0.482327,-0.39694 0.653105,-0.65311 0.162579,-0.24386 0.184216,-0.56017 0.326554,-0.81638 1.367335,-2.4612 -0.451461,1.39275 0.97966,-1.46949 0.348493,-0.69698 0.526727,-1.48849 0.979659,-2.12259 0.134213,-0.1879 0.380355,-0.28653 0.489829,-0.48983 0.277907,-0.51612 0.375197,-1.11665 0.653105,-1.63277 0.930553,-0.93055 0.159726,0.008 0.653108,-1.14293 0.410901,-0.95877 1.258152,-1.58853 1.796042,-2.44915 0.152165,-0.24347 0.739206,-1.40124 0.816383,-1.63277 0.08776,-0.26327 0.03917,-0.56816 0.163274,-0.81638 0.155853,-0.3117 0.487886,-0.50954 0.653108,-0.81638 0.335439,-0.62296 0.59264,-1.2881 0.816382,-1.95932 0.05163,-0.1549 -0.115453,-0.37438 0,-0.48983 0.03848,-0.0385 0.124791,0.0385 0.163277,0 0.249667,-0.24967 0.19326,-0.71308 0.326552,-0.97966 0.248962,-0.49792 0.129439,0.29863 0.326554,-0.48983 0.0264,-0.1056 -0.06038,-0.23598 0,-0.32655 0.06751,-0.10126 0.259046,-0.062 0.326551,-0.16328 0.04771,-0.0716 0,-0.52711 0,-0.6531"
       id="path10" />
    <path
       style="fill:#502d16;stroke-width:0.264583"
       d="m 82.291367,189.72732 c -0.05442,0.32655 -0.05014,0.66853 -0.163274,0.97966 -0.222541,0.61198 -1.092483,2.05672 -1.306214,2.61242 -0.260664,0.67773 -0.276285,1.42858 -0.489828,2.1226 -0.31668,1.0292 -0.718677,2.05831 -0.979659,3.10225 -0.664398,2.65759 0.278071,-0.68877 -0.163277,1.95932 -0.05659,0.33953 -0.243068,0.64572 -0.326554,0.97966 -0.216961,0.86784 -0.163275,1.07662 -0.163275,1.95931 0,2.02312 -0.182933,4.03055 -0.326554,6.04124 -0.03645,0.51024 -0.15436,4.91612 0.163277,5.5514 0.33976,0.67952 -0.01127,-0.17455 0.326552,0.16328 0.08606,0.0861 0.07722,0.24049 0.163277,0.32655 0.30013,0.30013 0.503906,0.0591 0.816382,0.16327 1.237263,0.41243 -0.05896,-0.059 0.326554,0.32656 0.115454,0.11545 0.326551,0 0.489828,0 0.217702,0 0.446577,0.0688 0.653108,0 0.656548,-0.21885 1.821514,-2.44289 1.959317,-2.93898 0.443235,-1.59565 0.539655,-2.82014 0.653108,-4.40847 0.02742,-0.38386 0.108849,-0.76195 0.163274,-1.14293 0.05443,-0.4354 0.134088,-0.86839 0.163277,-1.30621 0.100574,-1.50861 0,-3.05953 0,-4.57175 0,-2.7757 0,-5.5514 0,-8.3271 0,-0.19462 0.0391,-3.22643 0,-3.26553 -0.217702,-0.2177 -0.163277,0.27213 -0.163277,-0.16328"
       id="path11" />
    <path
       id="path12"
       style="fill:#502d16;stroke-width:0.264583"
       d="m 99.281278,137.23452 c -0.02577,0.009 -0.05123,0.0196 -0.077,0.0289 0.03509,-0.004 0.07033,-0.006 0.10542,-0.0103 -0.0095,-0.006 -0.01894,-0.0127 -0.02842,-0.0186 z m -10.396264,6.39134 c -0.08199,0.0104 -0.163989,0.0206 -0.24598,0.031 0.01719,0.14837 0.03057,0.29465 0.05529,0.44804 0.06434,-0.15938 0.126505,-0.3196 0.190686,-0.47904 z M 83.1696,145.5937 v 5.1e-4 c 0.0096,0.005 0.02047,0.008 0.02997,0.0129 0.04225,0.0211 0.181893,0.0322 0.141593,0.008 -0.01897,-0.0117 -0.09706,-0.0119 -0.171566,-0.0212 z m 20.67884,19.18487 c -0.086,0.0453 -0.16208,0.10656 -0.24856,0.14986 -0.25365,0.12702 -0.51641,0.23018 -0.78393,0.31936 0.12249,6.8e-4 0.24489,0.01 0.36742,0.008 0.031,-6.3e-4 0.17152,-1.6e-4 0.3116,-0.007 0.0352,-0.039 0.0657,-0.0802 0.0977,-0.12092 0.14838,-0.18908 0.20067,-0.27354 0.2558,-0.34882 z m -28.884023,4.069 c -0.0059,0.0479 -0.01696,0.0955 -0.02067,0.14367 -0.168987,2.19676 0,4.49337 0,6.69416 v 6.04149 c 0,1.00932 0.111551,2.0982 0,3.10214 -0.02479,0.22303 -0.131561,0.43104 -0.163298,0.65319 -0.118434,0.82909 0,1.77417 0,2.61224 0,0.21771 -0.15393,0.49925 0,0.65319 0.03849,0.0385 0.124814,-0.0385 0.163298,0 0.0736,0.0736 0.105249,0.91092 0.163297,1.14308 0.217702,0.87081 0.05448,-0.16321 0.489893,0.4899 0.06038,0.0906 -0.03442,0.22332 0,0.32659 0.117646,0.35294 1.014843,0.88209 1.30638,0.97927 0.437491,0.14583 1.021678,-0.11187 1.469161,0 0.32616,0.0815 0.958103,0.44364 1.143083,0.48989 0.158401,0.0396 0.331498,-0.0396 0.489892,0 0.07467,0.0187 0.108873,0.10888 0.163298,0.1633 0.163277,0.0544 0.321126,0.12955 0.489893,0.1633 0.622703,0.12454 0.02726,-0.23132 0.816487,0.1633 0.06884,0.0344 0.108873,0.10887 0.163298,0.16329 0.326547,0 0.655998,-0.0462 0.979268,0 0.0762,0.0109 0.08782,0.14821 0.163298,0.1633 0.678361,0.13567 1.445954,0.0279 2.122867,0.1633 0.287398,0.0575 0.529089,0.26911 0.816488,0.32659 0.649365,0.12988 1.292904,0.0681 1.959054,0.1633 0.469702,0.0671 0.850731,0.25066 1.30638,0.3266 0.61834,0.10306 1.331241,0 1.959053,0 h 3.429248 c 2.66125,0 6.562966,0.19592 8.816516,-1.30638 0.35225,-0.23484 -0.0115,-0.20246 0.3266,-0.65319 0.073,-0.0974 0.27216,-0.0544 0.32659,-0.1633 0.073,-0.14603 -0.0606,-0.3383 0,-0.48989 0.0572,-0.14293 0.25776,-0.18891 0.3266,-0.3266 0.15394,-0.30787 0.27001,-0.63973 0.32659,-0.97927 0.0917,-0.55013 -0.0423,-1.24604 0,-1.79627 0.0898,-1.16727 0.1633,-2.25949 0.1633,-3.42873 v -7.83725 c 0,-1.40771 -0.078,-2.84166 0,-4.24522 0.0243,-0.43812 0.13593,-0.86844 0.1633,-1.30638 0.0269,-0.4316 0.0205,-0.86393 0.0114,-1.29656 -0.14305,0.032 -0.28569,0.0663 -0.43046,0.0889 -1.12956,0.17577 -2.28352,0.0437 -3.4184,0.0377 -1.592785,-0.0573 -3.184142,-0.13984 -4.776449,-0.20774 -1.260773,-0.0521 -2.522625,-0.0725 -3.782198,-0.1509 -0.269193,-0.0208 -0.536088,-0.0597 -0.804602,-0.0863 -0.468077,-0.0244 -0.936772,-0.0347 -1.404565,-0.0656 -2.821248,-0.17826 -5.642465,-0.35788 -8.463566,-0.53846 -0.361812,-0.0214 -0.723864,-0.0392 -1.085722,-0.06 -0.446965,0.12666 -1.21032,0.17546 -1.556494,0.19637 -0.579106,0.007 -1.155958,-0.0501 -1.734261,-0.0739 -0.133464,-0.0106 -0.267029,-0.0214 -0.400493,-0.032 -0.662636,-0.0529 -1.225897,-0.19152 -1.699121,-0.38705 -0.104738,-0.006 -0.209457,-0.0115 -0.314192,-0.0171 z" />
    <path
       style="fill:#502d16;stroke-width:0.264583"
       d="m 88.495876,192.33974 c 0,0.2177 -0.03894,0.43892 0,0.65311 0.07088,0.38983 0.217702,0.76195 0.326552,1.14293 0.163277,0.70753 0.374208,1.40574 0.489831,2.1226 0.156953,0.97311 0.184311,1.9636 0.326551,2.93897 0.238871,1.63796 0.616003,3.25519 0.816383,4.8983 0.129971,1.06575 -0.01463,2.19807 0.163277,3.26553 0.244924,1.46954 0.691692,2.91218 0.816382,4.40847 0.231937,2.78321 -0.319519,-1.01558 0.163277,2.12259 0.133461,0.8675 0.39311,1.74194 0.489829,2.61242 0.02405,0.21638 -0.0528,0.44191 0,0.65311 0.0264,0.1056 0.249584,-0.077 0.326554,0 0.03848,0.0385 -0.05163,0.14607 0,0.16328 0.782277,0.26076 1.204851,-0.15201 1.796042,-0.48983 0.433972,-0.24798 0.81643,-0.24508 0.979659,-0.81638 0.700262,-2.45092 0.33964,-3.38727 0,-5.87796 -0.147807,-1.08391 -0.258315,-2.17372 -0.326554,-3.26553 -0.02376,-0.38024 0.05388,-0.76578 0,-1.14293 -0.584727,-4.0931 -0.122447,1.75533 -0.489828,-2.28588 -0.386046,-1.18407 -0.07135,-2.39701 -0.163277,-3.59208 -0.07909,-1.0282 -0.473105,-1.94897 -0.653106,-2.93898 -0.04868,-0.26773 0.04868,-0.54864 0,-0.81638 -0.133424,-0.73384 -0.799401,-2.26889 -1.306213,-2.7757 -0.158676,-0.15868 -0.466392,-0.0388 -0.653106,-0.16328 -0.163277,-0.10885 -0.169566,-0.37209 -0.326554,-0.48983 -0.23972,-0.17979 -1.294492,0 -1.632765,0"
       id="path13" />
    <path
       style="fill:#502d16;stroke-width:0.264583"
       d="m 99.108849,192.50302 c 0.437025,1.03497 0.565682,2.23059 0.979661,3.26553 0.16296,0.40741 0.44661,0.75577 0.65311,1.14294 0.46969,0.88068 1.09674,2.23251 1.46948,3.10225 0.23091,0.53879 0.36573,1.12186 0.65311,1.63277 0.2084,0.37048 0.57442,0.63016 0.81638,0.97966 1.08374,1.56539 0.17484,0.91801 1.79604,2.44914 1.20269,1.13587 2.59084,1.93774 3.75536,3.10226 0.21771,0.2177 0.43541,0.4354 0.65311,0.6531 0.32655,0.16328 0.70828,0.2456 0.97966,0.48983 0.29172,0.26255 0.37559,0.70215 0.65311,0.97966 0.2244,0.2244 0.55233,0.3138 0.81638,0.48983 0.56962,0.37975 0.9903,0.82702 1.46949,1.30621 0.22212,0.22212 1.51983,1.7457 1.63276,1.63277 0.32898,-0.32898 -1.71261,-3.4869 -1.95932,-3.91864 -0.48631,-0.85104 -0.90985,-1.54318 -1.30621,-2.44915 -0.34492,-0.78839 -0.43153,-1.67945 -0.81638,-2.44914 -0.15585,-0.31171 -0.48623,-0.51045 -0.65311,-0.81639 -0.3388,-0.62113 -0.47758,-1.33818 -0.81638,-1.95931 -0.61354,-1.12482 -1.44449,-2.03666 -2.1226,-3.10226 -1.52827,-2.40157 1.06852,0.82557 -1.63276,-2.61242 -0.33287,-0.42366 -0.84407,-0.69464 -1.14293,-1.14294 -0.0955,-0.1432 -0.0678,-0.34662 -0.16328,-0.48983 -0.21348,-0.32021 -0.54426,-0.54425 -0.81638,-0.81638 -0.60148,-0.60148 -1.71215,-2.1226 -2.44915,-2.1226"
       id="path14" />
    <path
       style="fill:#502d16;stroke-width:0.264583"
       d="m 103.19076,188.58439 c 1.47262,0.36815 -0.32412,-0.11787 1.79605,0.6531 1.67605,0.60948 2.04096,0.968 3.4288,1.95932 0.64329,0.45949 0.0314,-0.28888 0.81638,0.6531 0.70003,0.84004 1.3837,1.80475 2.28588,2.44915 0.19806,0.14148 0.48099,0.15445 0.6531,0.32656 0.1217,0.12169 0.0747,0.34224 0.16328,0.48982 0.2376,0.39601 0.68401,0.62489 0.97966,0.97966 0.5509,0.66109 0.90281,1.47497 1.46948,2.1226 0.1792,0.2048 0.46069,0.29741 0.65311,0.48983 0.67864,0.67863 1.13658,1.65524 1.63277,2.44915 0.0816,0.13054 0.24735,0.19455 0.32655,0.32655 0.56285,0.93808 -0.12623,0.20032 0.32655,0.65311 0.10886,0.10885 0.17721,0.28921 0.32656,0.32655 0.46034,0.11508 2.21251,0.14672 2.44914,-0.32655 0.40925,-0.81849 -2.67841,-3.16825 -3.26553,-3.75536 -1.20839,-1.2084 -2.41991,-2.35843 -3.4288,-3.75536 -0.25691,-0.35572 -0.379,-0.8003 -0.65311,-1.14294 -2.17702,-2.72127 0.81638,1.79604 -1.14293,-1.14294 -0.95149,-1.42722 -2.01909,-2.79965 -2.93898,-4.24519 -0.38179,-0.59995 -0.31435,-0.88378 -0.81638,-1.46948 -0.12771,-0.149 -0.32656,-0.21771 -0.48984,-0.32656 -0.16327,-0.16327 -0.342,-0.31244 -0.48982,-0.48983 -0.46688,-0.56025 -0.7894,-1.27922 -1.30621,-1.79604 -0.15677,-0.15676 -0.69511,-0.30791 -0.81639,-0.48983 -0.0604,-0.0906 0.0604,-0.23598 0,-0.32655 -0.0101,-0.45974 -0.36813,-0.0416 -0.48983,-0.16328 -0.31834,-0.31834 -0.78025,-1.45142 -1.14293,-1.63276 -0.14604,-0.073 0,0.32655 0,0.48983 0,0.74134 -0.0139,1.27831 0.32655,1.95931"
       id="path15" />
    <path
       id="path17"
       style="fill:#71c837;stroke-width:0.264583"
       d="m 99.85437,67.776225 c -0.01393,0.0048 -0.02791,0.0052 -0.04186,0.01033 0.0036,0.004 0.0023,4.33e-4 0.0052,0.0036 0.01213,-0.0049 0.02455,-0.0091 0.03669,-0.01395 z m 15.93443,3.899503 c 0.10414,0.122485 0.192,0.255568 0.28577,0.38499 0.0145,-0.07491 0.0284,-0.149889 0.0429,-0.224793 -0.10992,-0.05267 -0.21977,-0.105451 -0.32866,-0.160197 z m -66.62901,27.53372 c -0.647128,0.421684 -1.29593,0.840832 -1.938383,1.269692 -0.41865,0.27946 -0.834306,0.56342 -1.25057,0.84646 0.129873,0.0892 0.26055,0.1774 0.387057,0.27078 0.658355,-0.81231 1.527313,-1.46524 2.450496,-2.07739 0.126769,-0.110677 0.248946,-0.218279 0.3514,-0.309542 z m 57.99801,8.195362 c -0.21431,0.22115 -0.43342,0.43383 -0.65112,0.65164 0.18292,-0.0729 0.36589,-0.14566 0.5488,-0.21859 0.0342,-0.14432 0.068,-0.28875 0.10232,-0.43305 z m 20.30522,16.72922 c -0.005,0.007 -0.0105,0.0132 -0.0155,0.0202 0.007,0.0253 0.0116,0.0521 0.0217,0.0755 0.016,0.004 0.0531,0.0291 0.0481,0.0134 -0.0143,-0.0409 -0.0352,-0.0738 -0.0543,-0.10903 z m -4.70927,1.81642 c -0.10088,0.088 -0.19525,0.1775 -0.30128,0.26458 0.12723,-0.0211 0.25461,-0.0412 0.38189,-0.062 -0.0301,-0.066 -0.0552,-0.13434 -0.0806,-0.20257 z" />
    <path
       style="fill:#803300;stroke-width:0.264583"
       d="m 84.577239,170.13414 c -0.217702,0.0544 -0.440219,0.0923 -0.653105,0.16327 -0.582179,0.19406 -1.237184,-0.023 -1.796042,0.16328 -0.05163,0.0172 0.03848,0.12479 0,0.16328 -0.104614,0.10461 -1.677702,-0.11594 -1.796042,-0.16328 -0.142928,-0.0572 -0.217702,-0.2177 -0.326554,-0.32655 -0.163277,0 -0.33823,0.0606 -0.489829,0 -0.142928,-0.0572 -0.183626,-0.26939 -0.326554,-0.32656 -0.151598,-0.0606 -0.331427,0.0396 -0.489828,0 -0.07467,-0.0187 -0.09026,-0.13893 -0.163277,-0.16327 -0.154898,-0.0516 -0.334931,0.0516 -0.489829,0 -0.05426,-0.0181 -0.615299,-0.28875 -0.653108,-0.32655 -0.03848,-0.0385 0.03849,-0.1248 0,-0.16328 -0.09463,-0.0946 -0.558469,-0.23192 -0.653105,-0.32656 -0.292642,-0.29264 -0.155035,-1.64924 0,-1.95931 0.09797,-0.19593 0.391864,-0.2939 0.489828,-0.48983 0.157465,-0.31493 0.277673,-0.66142 0.489831,-0.97966 0.08539,-0.12809 0.25771,-0.18887 0.326554,-0.32655 0.02434,-0.0487 -0.03849,-0.1248 0,-0.16328 0.08605,-0.0861 0.250527,-0.0683 0.326552,-0.16328 0.152051,-0.19006 0.174503,-0.46304 0.326554,-0.6531 0.07603,-0.095 0.240498,-0.0772 0.326551,-0.16328 0.03849,-0.0385 0,-0.10885 0,-0.16328 0.108853,-0.10885 0.206349,-0.23039 0.326554,-0.32655 0.30067,-0.24053 0.877163,-0.38733 1.142937,-0.65311 0.08605,-0.0861 0.05892,-0.26393 0.163277,-0.32655 0.192421,-0.11545 0.442214,-0.0866 0.653105,-0.16328 1.787941,-0.65016 2.479948,-1.03071 4.408467,-1.30621 0.614687,-0.0878 1.177737,-0.43362 1.796041,-0.48983 1.263084,-0.11482 2.499617,-0.14716 3.755359,-0.32655 0.691483,-0.0988 1.433906,0.11478 2.122596,0 1.664501,-0.27742 5.830141,-0.75865 7.347448,0 0.10885,0.0544 0.0544,0.27213 0.16327,0.32655 0.14604,0.073 0.32878,-0.0268 0.48983,0 0.29449,0.0491 1.27606,0.3952 1.46949,0.65311 0.10326,0.13768 0.0256,0.38656 0.16328,0.48983 0.13062,0.098 0.35921,-0.098 0.48983,0 0.23447,0.17585 0.17576,0.56506 0.32655,0.81638 0.20192,0.33654 0.4985,0.61893 0.6531,0.97966 0.0884,0.20626 0.0845,0.44299 0.16328,0.65311 0.45168,1.20449 0.34444,0.0984 0.65311,1.79604 0.13747,0.75608 0.35468,3.15302 0.16327,3.91863 -0.06,0.24003 -0.35473,0.94029 -0.48982,1.14294 -0.0302,0.0453 -0.13894,-0.0487 -0.16328,0 -0.0487,0.0974 0.0344,0.22329 0,0.32655 -0.0933,0.27983 -0.65981,0.58152 -0.81638,0.81639 -0.0302,0.0453 0.0487,0.13893 0,0.16327 -0.0974,0.0487 -0.22329,-0.0344 -0.32656,0 -0.31999,0.10667 -0.44967,0.44967 -0.6531,0.65311 -0.2703,0.27029 -2.64482,1.26419 -2.93898,1.30621 -0.269393,0.0385 -0.544255,0 -0.816384,0 -0.966147,0 0.703305,-0.0213 -1.142937,0.16328 -1.045617,0.10456 -3.391564,0.14527 -4.408463,0 -0.869323,-0.12419 -1.745396,-0.5086 -2.612425,-0.65311 -0.322111,-0.0537 -0.66567,0.0897 -0.979659,0 -0.234035,-0.0669 -0.415504,-0.27375 -0.653108,-0.32655 -0.705951,-0.15688 -1.748396,0.0637 -2.449148,0 -0.22348,-0.0203 -0.430437,-0.13545 -0.653105,-0.16328 -0.223922,-0.028 -1.312042,0.035 -1.469488,0 -0.604996,-0.13444 -1.156898,-0.52528 -1.796042,-0.65311 -0.483274,-0.0967 -0.995608,-0.0279 -1.46949,-0.16327 -0.234032,-0.0669 -0.415502,-0.27375 -0.653106,-0.32655 -0.265647,-0.059 -0.546989,0.0385 -0.816382,0 -0.556228,-0.0795 -1.092047,-0.54497 -1.632765,-0.65311 -0.266843,-0.0534 -0.58996,0.15095 -0.816383,0 -0.101261,-0.0675 -0.07722,-0.2405 -0.163277,-0.32655 -0.07697,-0.077 -0.223287,0.0344 -0.326554,0 -0.245469,-0.0818 -0.995817,-0.43243 -1.142933,-0.65311 -0.06038,-0.0906 0.0264,-0.22095 0,-0.32655 -0.07994,-0.31976 -0.355682,-0.54809 -0.489831,-0.81638 -0.170953,-0.34191 0.06822,-2.37478 0.163277,-2.61243 0.106857,-0.26714 0.411435,-0.5028 0.489831,-0.81638 0.07106,-0.28423 0.20548,-0.7901 0.489828,-0.97966 0.09057,-0.0604 0.235985,0.0604 0.326554,0 0.297704,-0.19847 0.266764,-0.78649 0.653105,-0.97966 0.594075,-0.29704 1.059527,-0.69304 1.632765,-0.97966 0.174162,-0.0871 0.478944,0.0871 0.653106,0 0.04868,-0.0243 0,-0.10885 0,-0.16328 0.05443,-0.0544 0.09444,-0.12885 0.163277,-0.16327 0.224771,-0.11239 0.578453,-0.1838 0.816382,-0.32656 0.132001,-0.0792 0.183626,-0.26938 0.326554,-0.32655 0.308121,-0.12325 0.844892,0.14902 1.142934,0 0.36675,-0.18337 0.123084,0.0201 0.489831,-0.16328 0.04868,-0.0243 -0.03848,-0.12479 0,-0.16327 0.203698,-0.2037 3.280587,0.12761 3.918635,0 1.540796,-0.30816 4.183605,-0.67364 5.71468,-0.16328 0.244914,0.0816 0.571468,-0.0816 0.816383,0 0.07302,0.0243 0.09026,0.13894 0.163277,0.16328 0.206528,0.0688 0.458388,-0.0974 0.653105,0 0.04868,0.0243 -0.04868,0.13893 0,0.16327 0.231434,0.11572 1.834068,-0.12524 1.959319,0 0.03848,0.0385 -0.03849,0.1248 0,0.16328 0.139062,0.13907 1.157031,0.0887 1.306211,0.16328 0.387408,0.1937 0.530603,0.6531 0.979659,0.6531"
       id="path26" />
  </g>
</svg>
