<?xml version="1.0" encoding="UTF-8" standalone="no"?>
<!-- Created with Inkscape (http://www.inkscape.org/) -->

<svg
   width="210mm"
   height="297mm"
   viewBox="0 0 210 297"
   version="1.1"
   id="svg1"
   inkscape:version="1.3.2 (091e20e, 2023-11-25, custom)"
   sodipodi:docname="tree.svg"
   xmlns:inkscape="http://www.inkscape.org/namespaces/inkscape"
   xmlns:sodipodi="http://sodipodi.sourceforge.net/DTD/sodipodi-0.dtd"
   xmlns="http://www.w3.org/2000/svg"
   xmlns:svg="http://www.w3.org/2000/svg">
  <sodipodi:namedview
     id="namedview1"
     pagecolor="#ffffff"
     bordercolor="#000000"
     borderopacity="0.25"
     inkscape:showpageshadow="2"
     inkscape:pageopacity="0.0"
     inkscape:pagecheckerboard="0"
     inkscape:deskcolor="#d1d1d1"
     inkscape:document-units="mm"
     inkscape:zoom="1.6204616"
     inkscape:cx="396.80053"
     inkscape:cy="561.25984"
     inkscape:window-width="3840"
     inkscape:window-height="2054"
     inkscape:window-x="3829"
     inkscape:window-y="-11"
     inkscape:window-maximized="1"
     inkscape:current-layer="layer1" />
  <defs
     id="defs1" />
  <g
     inkscape:label="Layer 1"
     inkscape:groupmode="layer"
     id="layer1">
    <path
       style="fill:#502d16;stroke-width:0.264583"
       d="m 50.289168,204.09565 c 0.470805,-0.19212 0.989172,0.0961 1.469491,0 0.119335,-0.0239 0.206076,-0.14606 0.326551,-0.16327 1.047245,-0.14961 2.234107,0.2292 3.265533,0 0.876662,-0.19482 1.698506,-0.70215 2.612424,-0.81639 1.544077,-0.193 2.777808,-0.42938 4.245189,-0.97965 0.54781,-0.20543 1.273927,-0.22878 1.796042,-0.48983 0.137687,-0.0688 0.18506,-0.26592 0.326552,-0.32656 0.255079,-0.10931 0.549544,-0.087 0.816382,-0.16327 0.329954,-0.0943 2.523546,-1.43104 2.775701,-1.63277 0.09503,-0.076 0.07722,-0.2405 0.163277,-0.32655 0.192424,-0.19242 0.452507,-0.30595 0.653106,-0.48983 1.505196,-1.37976 2.851748,-2.92213 4.245189,-4.40847 0.315857,-0.33691 0.691166,-0.61904 0.97966,-0.97966 4.278934,-5.9905 -0.202044,0.018 2.612424,-3.26553 2.051682,-2.39362 0.449739,-0.77629 1.142936,-1.46948"
       id="path9" />
    <path
       style="fill:#502d16;stroke-width:0.264583"
       d="m 76.576689,190.05387 c -0.568256,0.17812 -0.624848,0.78813 -0.979659,1.14294 -0.138759,0.13876 -0.39247,0.15617 -0.489829,0.32655 -0.137686,0.24095 -0.0285,0.57379 -0.163277,0.81638 -0.149519,0.26914 -0.464087,0.41009 -0.653105,0.65311 -0.194837,0.2505 -0.30784,0.5564 -0.489831,0.81638 -0.199848,0.2855 -0.473808,0.51756 -0.653106,0.81639 -0.150794,0.25132 -0.178874,0.56321 -0.326551,0.81638 -2.327934,3.2591 -0.149447,-0.0277 -0.97966,1.63276 -0.334491,0.66899 -1.35954,1.7944 -1.796042,2.44915 -0.192505,0.28876 -0.774618,1.68119 -0.816382,1.79604 -0.07669,0.21089 -0.05194,0.45827 -0.163277,0.65311 -0.464907,0.81358 -0.60743,0.15033 -0.97966,1.14293 -0.07644,0.20385 0.06884,0.44658 0,0.65311 -0.007,0.0208 -1.500277,2.18417 -1.632764,2.44915 -0.225727,0.45145 -0.270754,1.03134 -0.489831,1.46949 -0.121698,0.2434 -0.345602,0.42234 -0.489829,0.6531 -0.432821,0.69252 -0.266028,0.69533 -0.653105,1.46949 -0.887442,1.77488 -0.0035,-0.15632 -0.97966,1.79604 -0.185367,0.37074 -0.259911,0.79806 -0.489831,1.14294 -0.03019,0.0453 -0.124791,-0.0385 -0.163274,0 -0.03849,0.0385 0,0.10885 0,0.16328 -0.05443,0.10885 -0.07722,0.2405 -0.163277,0.32655 -0.08606,0.0861 -0.259048,0.062 -0.326554,0.16328 -0.237517,0.35627 -0.252315,0.94993 -0.489829,1.30621 -0.17078,0.25617 -0.653108,0.34523 -0.653108,0.6531 0,0.0544 0.124794,0.0385 0.163277,0 0.03849,-0.0385 -0.04528,-0.13308 0,-0.16327 0.05412,-0.0361 1.255279,-0.63128 1.306214,-0.65311 0.206258,-0.0884 0.448045,-0.0721 0.653105,-0.16328 0.869889,-0.38661 1.605741,-1.04778 2.449148,-1.46948 0.153939,-0.077 0.355435,-0.0558 0.489831,-0.16328 0.15323,-0.12259 0.187793,-0.35107 0.326551,-0.48983 0.138758,-0.13876 0.336598,-0.20397 0.489831,-0.32655 0.807887,-0.64631 -0.195538,0.0323 0.653105,-0.81639 0.138759,-0.13875 0.375772,-0.16687 0.489829,-0.32655 0.170357,-0.23849 0.163975,-0.57252 0.326554,-0.81638 0.170781,-0.25617 0.482327,-0.39694 0.653105,-0.65311 0.162579,-0.24386 0.184216,-0.56017 0.326554,-0.81638 1.367335,-2.4612 -0.451461,1.39275 0.97966,-1.46949 0.348493,-0.69698 0.526727,-1.48849 0.979659,-2.12259 0.134213,-0.1879 0.380355,-0.28653 0.489829,-0.48983 0.277907,-0.51612 0.375197,-1.11665 0.653105,-1.63277 0.930553,-0.93055 0.159726,0.008 0.653108,-1.14293 0.410901,-0.95877 1.258152,-1.58853 1.796042,-2.44915 0.152165,-0.24347 0.739206,-1.40124 0.816383,-1.63277 0.08776,-0.26327 0.03917,-0.56816 0.163274,-0.81638 0.155853,-0.3117 0.487886,-0.50954 0.653108,-0.81638 0.335439,-0.62296 0.59264,-1.2881 0.816382,-1.95932 0.05163,-0.1549 -0.115453,-0.37438 0,-0.48983 0.03848,-0.0385 0.124791,0.0385 0.163277,0 0.249667,-0.24967 0.19326,-0.71308 0.326552,-0.97966 0.248962,-0.49792 0.129439,0.29863 0.326554,-0.48983 0.0264,-0.1056 -0.06038,-0.23598 0,-0.32655 0.06751,-0.10126 0.259046,-0.062 0.326551,-0.16328 0.04771,-0.0716 0,-0.52711 0,-0.6531"
       id="path10" />
    <path
       style="fill:#502d16;stroke-width:0.264583"
       d="m 82.291367,189.72732 c -0.05442,0.32655 -0.05014,0.66853 -0.163274,0.97966 -0.222541,0.61198 -1.092483,2.05672 -1.306214,2.61242 -0.260664,0.67773 -0.276285,1.42858 -0.489828,2.1226 -0.31668,1.0292 -0.718677,2.05831 -0.979659,3.10225 -0.664398,2.65759 0.278071,-0.68877 -0.163277,1.95932 -0.05659,0.33953 -0.243068,0.64572 -0.326554,0.97966 -0.216961,0.86784 -0.163275,1.07662 -0.163275,1.95931 0,2.02312 -0.182933,4.03055 -0.326554,6.04124 -0.03645,0.51024 -0.15436,4.91612 0.163277,5.5514 0.33976,0.67952 -0.01127,-0.17455 0.326552,0.16328 0.08606,0.0861 0.07722,0.24049 0.163277,0.32655 0.30013,0.30013 0.503906,0.0591 0.816382,0.16327 1.237263,0.41243 -0.05896,-0.059 0.326554,0.32656 0.115454,0.11545 0.326551,0 0.489828,0 0.217702,0 0.446577,0.0688 0.653108,0 0.656548,-0.21885 1.821514,-2.44289 1.959317,-2.93898 0.443235,-1.59565 0.539655,-2.82014 0.653108,-4.40847 0.02742,-0.38386 0.108849,-0.76195 0.163274,-1.14293 0.05443,-0.4354 0.134088,-0.86839 0.163277,-1.30621 0.100574,-1.50861 0,-3.05953 0,-4.57175 0,-2.7757 0,-5.5514 0,-8.3271 0,-0.19462 0.0391,-3.22643 0,-3.26553 -0.217702,-0.2177 -0.163277,0.27213 -0.163277,-0.16328"
       id="path11" />
    <path
       style="fill:#502d16;stroke-width:0.264583"
       d="m 75.760307,121.64101 c 0.05883,1.39504 0.700603,2.69256 0.816382,4.08191 0.331639,3.97966 -0.350113,7.98027 -0.653105,11.91919 -0.170546,2.21709 0.184665,4.47835 0,6.69434 -0.02749,0.32991 -0.135785,0.64974 -0.163277,0.97965 -0.164677,1.97614 0,4.06719 0,6.04124 0,1.39557 0.115903,2.85434 0,4.24519 -0.02749,0.32991 -0.135785,0.64974 -0.163277,0.97965 -0.08463,1.01552 0.154775,2.09621 0,3.10226 -0.06025,0.39162 -0.270518,0.75069 -0.326552,1.14294 -0.05388,0.37714 0.02376,0.7627 0,1.14293 -0.03074,0.49188 -0.134337,0.9775 -0.163277,1.46949 -0.08608,1.46334 0.104431,2.94644 0,4.40847 -0.02742,0.38387 -0.13376,0.75922 -0.163277,1.14293 -0.168987,2.19683 0,4.49355 0,6.69434 0,2.01374 0,4.02749 0,6.04123 0,1.00932 0.111551,2.09831 0,3.10225 -0.02479,0.22303 -0.13154,0.43096 -0.163277,0.65311 -0.118441,0.82909 0,1.77435 0,2.61242 0,0.21771 -0.153937,0.49917 0,0.65311 0.03849,0.0385 0.124793,-0.0385 0.163277,0 0.0736,0.0736 0.105222,0.91071 0.163277,1.14294 0.217702,0.87081 0.05442,-0.16328 0.489829,0.48983 0.06038,0.0906 -0.03442,0.22328 0,0.32655 0.117646,0.35294 1.014669,0.88248 1.306213,0.97966 0.437491,0.14583 1.021998,-0.11187 1.469488,0 0.32616,0.0815 0.957956,0.44358 1.142936,0.48983 0.158401,0.0396 0.331428,-0.0396 0.489829,0 0.07467,0.0187 0.108852,0.10885 0.163277,0.16327 0.163277,0.0544 0.321064,0.12953 0.489831,0.16328 0.62271,0.12454 0.02715,-0.23134 0.816382,0.16328 0.06884,0.0344 0.10885,0.10885 0.163275,0.16327 0.326554,0 0.656389,-0.0462 0.979659,0 0.0762,0.0109 0.0878,0.14819 0.163277,0.16328 0.678368,0.13567 1.445676,0.0279 2.122596,0.16328 0.287398,0.0575 0.528984,0.26907 0.816383,0.32655 0.649372,0.12988 1.293166,0.0681 1.959316,0.16328 0.469709,0.0671 0.850564,0.25061 1.306213,0.32655 0.618347,0.10306 1.3315,0 1.959319,0 1.142934,0 2.285871,0 3.428807,0 2.661264,0 6.563379,0.19616 8.816929,-1.30621 0.35225,-0.23484 -0.0115,-0.20238 0.32656,-0.65311 0.073,-0.0974 0.27212,-0.0544 0.32655,-0.16328 0.073,-0.14603 -0.0606,-0.33823 0,-0.48982 0.0572,-0.14293 0.25771,-0.18887 0.32655,-0.32656 0.15394,-0.30787 0.26997,-0.64012 0.32655,-0.97966 0.0917,-0.55013 -0.0423,-1.24581 0,-1.79604 0.0898,-1.16727 0.16328,-2.25957 0.16328,-3.42881 0,-2.61242 0,-5.22484 0,-7.83727 0,-1.40771 -0.078,-2.84163 0,-4.24519 0.0243,-0.43812 0.13591,-0.86827 0.16328,-1.30621 0.0679,-1.08639 -0.0453,-2.17796 0,-3.26553 0.10463,-2.51119 0.16328,-4.99308 0.16328,-7.51072 0,-1.54423 0.006,-3.04651 -0.16328,-4.57174 -0.0649,-0.58393 0.0965,-1.21685 0,-1.79605 -0.02,-0.12004 -0.14607,-0.20607 -0.16328,-0.32655 -0.18577,-1.30037 0,-2.76692 0,-4.08191 0,-3.73775 0.20726,-7.53536 0,-11.26608 -0.0273,-0.49209 -0.13737,-0.97733 -0.16328,-1.46949 -0.061,-1.15835 0.14494,-2.43257 0,-3.59208 -0.0278,-0.22267 -0.13849,-0.43008 -0.16327,-0.65311 -0.23861,-2.1475 0.14379,-4.37412 0,-6.53106 -0.17055,-2.55821 -0.16328,-5.10678 -0.16328,-7.674"
       id="path12" />
    <path
       style="fill:#502d16;stroke-width:0.264583"
       d="m 88.495876,192.33974 c 0,0.2177 -0.03894,0.43892 0,0.65311 0.07088,0.38983 0.217702,0.76195 0.326552,1.14293 0.163277,0.70753 0.374208,1.40574 0.489831,2.1226 0.156953,0.97311 0.184311,1.9636 0.326551,2.93897 0.238871,1.63796 0.616003,3.25519 0.816383,4.8983 0.129971,1.06575 -0.01463,2.19807 0.163277,3.26553 0.244924,1.46954 0.691692,2.91218 0.816382,4.40847 0.231937,2.78321 -0.319519,-1.01558 0.163277,2.12259 0.133461,0.8675 0.39311,1.74194 0.489829,2.61242 0.02405,0.21638 -0.0528,0.44191 0,0.65311 0.0264,0.1056 0.249584,-0.077 0.326554,0 0.03848,0.0385 -0.05163,0.14607 0,0.16328 0.782277,0.26076 1.204851,-0.15201 1.796042,-0.48983 0.433972,-0.24798 0.81643,-0.24508 0.979659,-0.81638 0.700262,-2.45092 0.33964,-3.38727 0,-5.87796 -0.147807,-1.08391 -0.258315,-2.17372 -0.326554,-3.26553 -0.02376,-0.38024 0.05388,-0.76578 0,-1.14293 -0.584727,-4.0931 -0.122447,1.75533 -0.489828,-2.28588 -0.386046,-1.18407 -0.07135,-2.39701 -0.163277,-3.59208 -0.07909,-1.0282 -0.473105,-1.94897 -0.653106,-2.93898 -0.04868,-0.26773 0.04868,-0.54864 0,-0.81638 -0.133424,-0.73384 -0.799401,-2.26889 -1.306213,-2.7757 -0.158676,-0.15868 -0.466392,-0.0388 -0.653106,-0.16328 -0.163277,-0.10885 -0.169566,-0.37209 -0.326554,-0.48983 -0.23972,-0.17979 -1.294492,0 -1.632765,0"
       id="path13" />
    <path
       style="fill:#502d16;stroke-width:0.264583"
       d="m 99.108849,192.50302 c 0.437025,1.03497 0.565682,2.23059 0.979661,3.26553 0.16296,0.40741 0.44661,0.75577 0.65311,1.14294 0.46969,0.88068 1.09674,2.23251 1.46948,3.10225 0.23091,0.53879 0.36573,1.12186 0.65311,1.63277 0.2084,0.37048 0.57442,0.63016 0.81638,0.97966 1.08374,1.56539 0.17484,0.91801 1.79604,2.44914 1.20269,1.13587 2.59084,1.93774 3.75536,3.10226 0.21771,0.2177 0.43541,0.4354 0.65311,0.6531 0.32655,0.16328 0.70828,0.2456 0.97966,0.48983 0.29172,0.26255 0.37559,0.70215 0.65311,0.97966 0.2244,0.2244 0.55233,0.3138 0.81638,0.48983 0.56962,0.37975 0.9903,0.82702 1.46949,1.30621 0.22212,0.22212 1.51983,1.7457 1.63276,1.63277 0.32898,-0.32898 -1.71261,-3.4869 -1.95932,-3.91864 -0.48631,-0.85104 -0.90985,-1.54318 -1.30621,-2.44915 -0.34492,-0.78839 -0.43153,-1.67945 -0.81638,-2.44914 -0.15585,-0.31171 -0.48623,-0.51045 -0.65311,-0.81639 -0.3388,-0.62113 -0.47758,-1.33818 -0.81638,-1.95931 -0.61354,-1.12482 -1.44449,-2.03666 -2.1226,-3.10226 -1.52827,-2.40157 1.06852,0.82557 -1.63276,-2.61242 -0.33287,-0.42366 -0.84407,-0.69464 -1.14293,-1.14294 -0.0955,-0.1432 -0.0678,-0.34662 -0.16328,-0.48983 -0.21348,-0.32021 -0.54426,-0.54425 -0.81638,-0.81638 -0.60148,-0.60148 -1.71215,-2.1226 -2.44915,-2.1226"
       id="path14" />
    <path
       style="fill:#502d16;stroke-width:0.264583"
       d="m 103.19076,188.58439 c 1.47262,0.36815 -0.32412,-0.11787 1.79605,0.6531 1.67605,0.60948 2.04096,0.968 3.4288,1.95932 0.64329,0.45949 0.0314,-0.28888 0.81638,0.6531 0.70003,0.84004 1.3837,1.80475 2.28588,2.44915 0.19806,0.14148 0.48099,0.15445 0.6531,0.32656 0.1217,0.12169 0.0747,0.34224 0.16328,0.48982 0.2376,0.39601 0.68401,0.62489 0.97966,0.97966 0.5509,0.66109 0.90281,1.47497 1.46948,2.1226 0.1792,0.2048 0.46069,0.29741 0.65311,0.48983 0.67864,0.67863 1.13658,1.65524 1.63277,2.44915 0.0816,0.13054 0.24735,0.19455 0.32655,0.32655 0.56285,0.93808 -0.12623,0.20032 0.32655,0.65311 0.10886,0.10885 0.17721,0.28921 0.32656,0.32655 0.46034,0.11508 2.21251,0.14672 2.44914,-0.32655 0.40925,-0.81849 -2.67841,-3.16825 -3.26553,-3.75536 -1.20839,-1.2084 -2.41991,-2.35843 -3.4288,-3.75536 -0.25691,-0.35572 -0.379,-0.8003 -0.65311,-1.14294 -2.17702,-2.72127 0.81638,1.79604 -1.14293,-1.14294 -0.95149,-1.42722 -2.01909,-2.79965 -2.93898,-4.24519 -0.38179,-0.59995 -0.31435,-0.88378 -0.81638,-1.46948 -0.12771,-0.149 -0.32656,-0.21771 -0.48984,-0.32656 -0.16327,-0.16327 -0.342,-0.31244 -0.48982,-0.48983 -0.46688,-0.56025 -0.7894,-1.27922 -1.30621,-1.79604 -0.15677,-0.15676 -0.69511,-0.30791 -0.81639,-0.48983 -0.0604,-0.0906 0.0604,-0.23598 0,-0.32655 -0.0101,-0.45974 -0.36813,-0.0416 -0.48983,-0.16328 -0.31834,-0.31834 -0.78025,-1.45142 -1.14293,-1.63276 -0.14604,-0.073 0,0.32655 0,0.48983 0,0.74134 -0.0139,1.27831 0.32655,1.95931"
       id="path15" />
    <path
       style="fill:#71c837;stroke-width:0.264583"
       d="m 78.699283,121.80428 c 0.02633,1.13883 -0.3029,2.40184 -0.816382,3.42881 -0.243398,0.4868 -0.677759,0.85336 -0.97966,1.30621 -0.204094,0.30614 -0.244914,0.69393 -0.489828,0.97966 -0.177099,0.20662 -0.476007,0.28321 -0.653105,0.48983 -0.158404,0.1848 -0.168154,0.46831 -0.326554,0.65311 -0.623282,0.72716 -3.802103,2.78349 -4.735018,2.93897 -0.557752,0.093 -1.232014,0 -1.796042,0 -0.470368,0 -1.54732,0.206 -1.959319,0 -0.571585,-0.28579 -1.135481,-0.65124 -1.796042,-0.81638 -0.1056,-0.0264 -0.223287,0.0344 -0.326554,0 -0.230907,-0.077 -0.414433,-0.27882 -0.653105,-0.32655 -0.160105,-0.032 -0.331428,0.0396 -0.489829,0 -0.200649,-0.0502 -0.20583,-0.40935 -0.326554,-0.48983 -0.104132,-0.0694 -1.362652,-0.23652 -1.632765,-0.32655 -0.36721,-0.12241 -0.743529,-0.71654 -1.142936,-0.81639 -0.316802,-0.0792 -0.662856,0.0792 -0.97966,0 -0.289949,-0.0725 -0.129868,-0.6364 -0.489828,-0.81638 -0.368514,-0.18426 -0.790448,-0.27834 -1.142937,-0.48983 -0.198001,-0.1188 -0.2833,-0.38656 -0.489828,-0.48983 -0.317944,-0.15897 -1.422342,-0.72296 -1.796042,-0.81638 -0.231574,-0.0579 -1.439685,-0.0805 -1.632765,-0.16328 -0.212238,-0.091 -0.312441,-0.342 -0.489831,-0.48983 -0.150751,-0.12562 -0.367242,-0.17332 -0.489828,-0.32655 -0.679416,-0.84927 -0.326554,-2.82425 -0.326554,-3.75536 0,-1.63277 0,-3.26553 0,-4.8983 0,-0.62742 -0.08815,-1.34229 0,-1.95932 0.272518,-1.90763 0.686842,-4.28476 0.163277,-6.2045 -0.40508,-1.4853 -0.275402,-0.79327 -1.469488,-2.28587 -0.292473,-0.3656 -0.485325,-0.81188 -0.816383,-1.14294 -0.277518,-0.27752 -0.671618,-0.40992 -0.979659,-0.65311 -1.061085,-0.83769 -2.05594,-1.75634 -3.102255,-2.61242 -0.42123,-0.34464 -0.921364,-0.59481 -1.306211,-0.97966 -0.29518,-0.29517 -0.06883,-0.36976 -0.163277,-0.6531 -0.07697,-0.23091 -0.286539,-0.41302 -0.326554,-0.653108 -0.15421,-0.925259 0,-2.001179 0,-2.938976 0,-1.632765 0,-3.26553 0,-4.898297 0,-0.779148 -0.128538,-1.677924 0,-2.449148 0.07097,-0.425844 0.353716,-0.734591 0.489831,-1.142933 0.141922,-0.425776 0.125841,-0.904791 0.326551,-1.306214 0.155853,-0.311703 0.48623,-0.510442 0.653108,-0.816382 0.164828,-0.302186 0.202986,-0.658387 0.326552,-0.97966 0.34476,-0.896371 0.71148,-1.912786 1.142936,-2.775701 0.42227,-0.84454 1.222814,-1.465966 1.632765,-2.285871 0.124111,-0.248218 0.05396,-0.561305 0.163277,-0.816382 0.372803,-0.869876 1.405673,-0.835684 2.122593,-1.142936 0.958234,-0.410671 0.59454,-0.482508 1.959319,-0.653106 2.055612,-0.256953 6.026814,0.811586 7.837273,-0.163277 2.30582,-1.241594 0.698577,-0.558861 2.449148,-1.959319 1.003016,-0.802412 2.095862,-1.487696 3.102255,-2.28587 1.026962,-0.814488 1.967016,-1.733032 2.938978,-2.612425 1.057572,-0.956852 2.374636,-2.411891 3.755359,-3.102255 0.70246,-0.351229 5.270952,0.603972 6.204508,0.653108 1.596427,0.08402 3.301423,0.07604 4.898294,0 2.077935,-0.09895 4.12827,-0.530974 6.204509,-0.653108 0.380322,-0.02236 0.763079,0.02922 1.142936,0 1.140529,-0.08773 2.287945,-0.369737 3.428807,-0.489828 2.685542,-0.282689 5.527654,-0.367176 8.163834,0.326554 1.61451,0.42487 2.38945,0.95578 4.08191,1.632765 1.82968,0.731874 3.61386,1.374838 5.5514,1.796041 0.23835,0.05181 1.58822,0.269304 1.95932,0.163277 0.14801,-0.04229 0.18886,-0.257709 0.32655,-0.326554 0.49671,-0.248356 1.87091,-0.605477 2.44915,-0.489828 0.94872,0.189743 0.47803,0.119242 1.46949,0.653105 0.85722,0.461579 1.75337,0.848051 2.61242,1.306211 1.82065,0.971011 0.55436,0.37506 2.61243,1.632765 1.99302,1.217959 4.20615,2.410108 5.87795,4.081915 0.55569,0.555686 0.32656,1.414981 0.32656,2.122593 0,5.018945 -2.47499,9.676474 -3.91864,14.368336 -0.59945,1.948219 -0.62802,4.527296 -0.48983,6.531058 0.053,0.76787 0.11104,1.54697 0.32655,2.28587 0.55732,1.9108 2.93131,4.36193 4.24519,5.87795 3.214,3.70846 -1.23067,-1.50885 1.79604,2.44915 0.72508,0.94818 1.74327,1.64987 2.44915,2.61243 0.30859,0.4208 1.51707,2.68705 1.63277,3.26552 0.0534,0.26685 -0.0301,0.54593 0,0.81639 0.16497,1.48475 0.68262,2.86609 0.48983,4.40846 -0.20399,1.63186 -1.38701,2.85575 -2.1226,4.2452 -1.57227,2.96984 -0.17664,0.8051 -1.30621,2.61242 -0.26594,0.42551 -0.71372,0.71743 -0.97966,1.14293 -0.11893,0.1903 -0.0629,0.4524 -0.16328,0.65311 -0.1217,0.2434 -0.35767,0.41522 -0.48983,0.65311 -0.31096,0.55973 -0.0896,0.83879 -0.6531,0.97966 -1.19026,0.29756 -3.72874,-0.2154 -4.73502,-0.48983 -3.30954,-0.90261 -6.52083,-1.95625 -9.79659,-2.93898 -0.39701,-0.1191 -0.7444,-0.37596 -1.14294,-0.48983 -0.15699,-0.0449 -0.33493,0.0516 -0.48983,0 -0.18616,-0.0621 -0.30366,-0.2645 -0.48983,-0.32656 -0.15489,-0.0516 -0.33493,0.0516 -0.48983,0 -0.0516,-0.0172 0,-0.10884 0,-0.16327 -0.10885,-0.0544 -0.20848,-0.13376 -0.32655,-0.16328 -0.46844,-0.11711 -1.00475,-0.12738 -1.46949,-0.32655 -1.0814,-0.46346 -2.31748,-1.61457 -3.26553,-1.95932 -2.37363,-0.3956 0.26838,0.23981 -1.63276,-0.81638 -0.39233,-0.21796 -0.98886,-0.009 -1.30622,-0.32655 -0.17211,-0.17211 -0.17815,-0.46019 -0.32655,-0.65311 -0.39959,-0.51946 -0.90131,-0.95416 -1.30621,-1.46949 -0.2711,-0.34503 -0.34283,-0.83266 -0.65311,-1.14293 -0.15746,-0.15747 -0.86079,0.0682 -0.97966,0.16327 -0.84725,0.67781 -3.540703,2.84193 -4.408467,3.10226 -0.381323,0.11439 -0.871905,0.10775 -1.142937,-0.16328"
       id="path17" />
  </g>
</svg>
