<?xml version="1.0" encoding="UTF-8" standalone="no"?>
<!-- Created with Inkscape (http://www.inkscape.org/) -->

<svg
   width="210mm"
   height="297mm"
   viewBox="0 0 210 297"
   version="1.1"
   id="svg1"
   inkscape:version="1.3.2 (091e20e, 2023-11-25, custom)"
   sodipodi:docname="witch.svg"
   xmlns:inkscape="http://www.inkscape.org/namespaces/inkscape"
   xmlns:sodipodi="http://sodipodi.sourceforge.net/DTD/sodipodi-0.dtd"
   xmlns="http://www.w3.org/2000/svg"
   xmlns:svg="http://www.w3.org/2000/svg">
  <sodipodi:namedview
     id="namedview1"
     pagecolor="#ffffff"
     bordercolor="#000000"
     borderopacity="0.25"
     inkscape:showpageshadow="2"
     inkscape:pageopacity="0.0"
     inkscape:pagecheckerboard="0"
     inkscape:deskcolor="#d1d1d1"
     inkscape:document-units="mm"
     inkscape:zoom="1.6204616"
     inkscape:cx="396.80053"
     inkscape:cy="561.5684"
     inkscape:window-width="3840"
     inkscape:window-height="2054"
     inkscape:window-x="-11"
     inkscape:window-y="-11"
     inkscape:window-maximized="1"
     inkscape:current-layer="layer1" />
  <defs
     id="defs1" />
  <g
     inkscape:label="Layer 1"
     inkscape:groupmode="layer"
     id="layer1">
    <path
       style="fill:#330080;stroke-width:0.264583"
       id="path1"
       d="m 86.039057,126.67224 c -1.374148,1.8591 -2.745439,3.72106 -4.147794,5.55906 -1.524246,2.02643 -3.102631,4.01195 -4.597876,6.06001 -0.719103,1.00668 -1.464498,1.99378 -2.183035,3.00084 -0.535209,0.80141 -0.914061,1.68317 -1.321125,2.55223 -0.591489,1.17581 -1.013582,2.42039 -1.432462,3.66449 -0.427884,1.45881 -0.721381,2.95314 -1.037347,4.43932 -0.32009,1.15538 -0.518112,2.33523 -0.718751,3.51521 -0.248946,1.11668 -0.358344,2.25401 -0.470636,3.39007 -0.08469,1.18385 -0.198371,2.36464 -0.323648,3.54479 -0.104384,1.21244 -0.213212,2.42448 -0.28733,3.63927 -0.105479,1.10561 -0.163388,2.21454 -0.25685,3.32113 -0.09885,1.01774 -0.129944,2.03996 -0.143703,3.06183 -0.0164,0.69088 -0.143303,1.42056 0.131837,2.07668 3.008207,2.0337 2.255888,2.42474 3.860604,2.01222 0,0 -3.239392,-2.31663 -3.239392,-2.31663 v 0 c -0.163726,-0.0286 -0.09316,0.006 -0.213399,-0.10152 1.08599,0.65303 2.171978,1.30606 3.257965,1.95908 -0.04384,-0.0214 -0.09607,-0.0307 -0.131524,-0.0643 -0.328544,-0.31081 -0.155753,-1.37585 -0.16169,-1.77311 0.01786,-1.0137 0.04185,-2.02781 0.131223,-3.03827 0.09154,-1.11071 0.154927,-2.2231 0.254902,-3.33317 0.06751,-1.20937 0.180623,-2.41517 0.279511,-3.62221 0.126008,-1.18025 0.244674,-2.3607 0.329547,-3.54478 0.112805,-1.12721 0.198062,-2.25925 0.456025,-3.36606 0.204856,-1.17611 0.377891,-2.35835 0.696939,-3.51136 0.300334,-1.47376 0.596815,-2.95239 1.014217,-4.39795 0.417652,-1.22799 0.83894,-2.45568 1.424556,-3.61683 0.404085,-0.84456 0.791268,-1.69677 1.299935,-2.48583 0.707422,-1.01146 1.42998,-2.01204 2.125027,-3.03214 1.454613,-2.07134 3.032961,-4.05035 4.556173,-6.07105 1.402794,-1.83683 2.76969,-3.70202 4.23522,-5.4901 z" />
    <path
       style="fill:#330080;stroke-width:0.264583"
       id="path2"
       d="m 107.59771,126.8464 c 0.95326,1.52914 2.03659,2.97175 3.03508,4.47115 0.84913,1.26368 1.71603,2.51528 2.57309,3.77358 0.75671,1.10845 1.4134,2.28015 2.12492,3.41731 0.78006,1.12209 1.47844,2.29256 2.00057,3.55633 0.50799,1.36972 0.85552,2.78988 1.25043,4.19421 0.47697,1.66781 0.95884,3.33386 1.43927,5.00065 0.44916,1.50422 0.85732,3.0207 1.25361,4.53964 0.36512,1.28763 0.76421,2.56531 1.14621,3.8481 0.32565,1.08026 0.71157,2.14173 1.11386,3.19557 0.44561,1.26769 0.99276,2.49492 1.55283,3.71513 0.36518,0.73236 0.70942,1.47805 1.13143,2.18014 0.26219,0.44276 0.53708,0.87698 0.87432,1.26655 0.32183,0.3819 0.6699,0.72702 1.06571,1.031 0.3517,0.25128 0.65036,0.57882 0.93357,0.90439 1.18395,1.08481 3.02131,1.87217 4.21152,2.54928 0.16097,0.0606 0.34036,0.0354 0.50457,0.071 0.0925,0.0201 0.17797,0.0649 0.26863,0.0922 0,0 -3.1587,-2.42668 -3.1587,-2.42668 v 0 c -0.24721,-0.0615 -0.50828,-0.0752 -0.73097,-0.21403 1.09015,0.63037 2.18357,1.2551 3.27043,1.8911 0.044,0.0257 -0.0981,-0.0317 -0.14069,-0.0597 -0.0429,-0.0282 -0.0704,-0.0755 -0.11156,-0.10623 -0.13741,-0.10241 -0.28905,-0.19372 -0.43603,-0.28233 -0.36428,-0.28846 0.0641,0.0732 -0.26852,-0.286 -0.0453,-0.0489 -0.10599,-0.0815 -0.15414,-0.12763 -0.17958,-0.17218 -0.2989,-0.39303 -0.49023,-0.55424 -0.42163,-0.25272 -0.80096,-0.55614 -1.09947,-0.95075 -0.36135,-0.35444 -0.67313,-0.75158 -0.90664,-1.20262 -0.46823,-0.67475 -0.80368,-1.4272 -1.19224,-2.14854 -0.57379,-1.20469 -1.12699,-2.42279 -1.55615,-3.68737 -0.41091,-1.04456 -0.78804,-2.10326 -1.13076,-3.17168 -0.39962,-1.27645 -0.76967,-2.5625 -1.1665,-3.83979 -0.39769,-1.5262 -0.80501,-3.05112 -1.26795,-4.55888 -0.49002,-1.66069 -0.9389,-3.33313 -1.43118,-4.9933 -0.40046,-1.40759 -0.72718,-2.83671 -1.21204,-4.21951 -0.4883,-1.29606 -1.17963,-2.49351 -1.97704,-3.62515 -0.71581,-1.13735 -1.3773,-2.30636 -2.11514,-3.4295 -0.86431,-1.26378 -1.74206,-2.51827 -2.60592,-3.78236 -0.98085,-1.48342 -2.06358,-2.90092 -2.97806,-4.42656 z" />
    <path
       style="fill:#330080;stroke-width:0.264583"
       id="path3"
       d="m 71.393967,176.13936 c 1.130194,-0.18508 2.268495,-0.31064 3.41104,-0.38453 0.904888,-0.0618 1.812854,-0.11339 2.715197,-0.20765 1.04418,-0.125 2.088983,-0.22721 3.13926,-0.28472 1.199062,-0.0977 2.399191,-0.17725 3.59597,-0.30113 1.156542,-0.13472 2.319012,-0.19309 3.482269,-0.22455 0.682135,-5.3e-4 1.366104,-0.0464 2.047391,0.007 0.350117,0.0275 0.705334,0.0838 1.052422,0.13299 1.041329,0.11923 2.072984,0.30043 3.096477,0.5246 0.9208,0.21875 1.841736,0.43045 2.776246,0.58219 1.056717,0.18423 2.114786,0.36049 3.154207,0.628 0.948444,0.21421 1.901074,0.40768 2.845654,0.6389 1.09005,0.3059 2.19608,0.52877 3.32164,0.64735 1.39688,0.15933 2.80062,0.25578 4.20492,0.32316 1.4298,0.0922 2.85862,0.0619 4.28859,0.008 1.30523,-0.0706 2.60358,-0.1954 3.90108,-0.34979 1.1669,-0.10121 2.3216,-0.29777 3.475,-0.49535 0.83111,-0.13793 1.67291,-0.1837 2.51088,-0.26207 1.00365,-0.0734 2.00898,-0.0991 3.01316,-0.16509 1.08063,-0.1148 2.15363,-0.30678 3.22261,-0.50186 0.84838,-0.14866 1.70793,-0.20838 2.56284,-0.30621 0.57429,-0.0517 1.14569,-0.10126 1.71728,-0.17251 0,0 -3.23707,-2.29226 -3.23707,-2.29226 v 0 c -0.56777,0.068 -1.13915,0.10027 -1.70606,0.17724 -0.85713,0.0999 -1.71902,0.16704 -2.56705,0.33373 -1.05861,0.18783 -2.11827,0.3925 -3.19212,0.46827 -1.00994,0.0626 -2.02228,0.0757 -3.03038,0.16686 -0.84302,0.0781 -1.69046,0.12738 -2.52263,0.29258 -1.14363,0.20411 -2.29202,0.3788 -3.44916,0.48744 -1.28986,0.15459 -2.58373,0.25947 -3.88133,0.3245 -1.41749,0.0517 -2.8348,0.0644 -4.25165,-0.0238 -1.40887,-0.0782 -2.81604,-0.19155 -4.21676,-0.36405 -1.11483,-0.14619 -2.20835,-0.3907 -3.293517,-0.68451 -0.946906,-0.22358 -1.899843,-0.41931 -2.847022,-0.6415 -1.049089,-0.24156 -2.11079,-0.41962 -3.170584,-0.60723 -0.92963,-0.17206 -1.848599,-0.39218 -2.771773,-0.59531 -1.02907,-0.20341 -2.062699,-0.37414 -3.105118,-0.49448 -1.04381,-0.12759 -2.089364,-0.14216 -3.139858,-0.0903 -1.165169,0.0415 -2.328317,0.11888 -3.486753,0.25375 -1.198047,0.11245 -2.398734,0.19175 -3.598672,0.281 -1.054571,0.0704 -2.104599,0.18099 -3.155839,0.28873 -0.90034,0.0746 -1.800926,0.14845 -2.702488,0.20642 -1.147625,0.0917 -2.286876,0.25014 -3.429963,0.38435 z" />
    <path
       style="fill:#330080;stroke-width:0.264583"
       id="path4"
       d="m 90.465737,96.963096 c -0.700667,0.613492 -1.421469,1.194618 -2.193899,1.714696 -0.5525,0.385146 -1.106852,0.759309 -1.63408,1.178476 -0.47258,0.355152 -0.941284,0.716112 -1.387583,1.104052 -0.210092,0.22002 -0.479436,0.37126 -0.687364,0.59334 -0.305744,0.32656 0.02822,0.0149 -0.249496,0.26543 -0.337117,0.32383 -0.64492,0.66428 -0.921975,1.04145 -0.438942,0.5169 -0.815383,1.08218 -1.177748,1.65411 -0.583793,0.91112 -1.085416,1.87539 -1.497478,2.87567 -0.213445,0.54897 -0.238345,1.1252 -0.230307,1.70539 0.0024,0.65075 0.04233,1.29822 0.10223,1.9458 0.04471,0.59415 0.154061,1.17966 0.207608,1.77299 0.0074,0.77816 0.210788,1.5269 0.383738,2.27921 0.222642,0.94825 0.4879,1.88663 0.752933,2.82389 0.248616,0.68281 0.392441,1.39474 0.594333,2.09098 0.255977,0.81875 0.570686,1.61725 0.86069,2.42413 0.23703,0.62062 0.464981,1.24539 0.727157,1.856 0.251185,0.81213 0.801521,1.42571 1.393013,2.00917 1.401686,1.31971 3.145753,2.07396 4.82351,3.03588 0.08814,0.0197 0.176273,0.0395 0.264409,0.0592 0,0 -3.133786,-2.43607 -3.133786,-2.43607 v 0 c -0.07668,-0.0357 -0.153368,-0.0715 -0.23005,-0.10721 6.069272,3.52907 3.127221,1.98729 1.930889,0.94842 -0.585488,-0.52148 -1.218395,-1.07246 -1.444773,-1.85022 -0.145015,-0.35388 -0.06645,-0.17822 -0.236159,-0.52677 -0.184266,-0.43313 -0.316206,-0.88894 -0.514847,-1.31669 -0.284872,-0.80238 -0.597747,-1.59465 -0.865849,-2.40306 -0.212418,-0.69526 -0.333738,-1.41304 -0.598668,-2.09251 -0.28666,-0.92447 -0.535072,-1.86204 -0.769815,-2.80078 -0.155165,-0.73621 -0.38725,-1.46357 -0.392338,-2.22261 -0.04054,-0.59752 -0.135178,-1.18459 -0.206597,-1.77798 -0.05762,-0.6384 -0.123957,-1.27373 -0.107474,-1.9161 -0.01209,-0.53043 -0.03148,-1.06435 0.138655,-1.57601 0.379106,-0.98697 0.864471,-1.93261 1.454071,-2.81111 0.370326,-0.55705 0.758081,-1.10416 1.18564,-1.61911 0.270134,-0.35498 0.574548,-0.67384 0.897853,-0.98087 0.292531,-0.29761 0.593987,-0.57945 0.917067,-0.84545 0.44396,-0.38107 0.906751,-0.7397 1.372592,-1.09342 0.521473,-0.41124 1.076592,-0.77211 1.61608,-1.15901 0.766371,-0.54139 1.471076,-1.155796 2.208509,-1.734535 z" />
    <path
       style="fill:#330080;stroke-width:0.264583"
       id="path5"
       d="m 103.35396,102.20311 c 0.91922,-0.0394 1.8304,0.0871 2.73499,0.23295 0.0881,0.026 0.17653,0.0511 0.26439,0.0781 0.12143,0.0372 0.30107,0.0914 0.41505,0.15206 0.0691,0.0368 0.26522,0.16644 0.19707,0.12787 -3.15561,-1.78601 -4.17844,-2.54361 -2.97672,-1.6673 0.44574,0.34215 0.83523,0.74844 1.19275,1.18009 0.44714,0.46874 0.71881,1.03953 0.9762,1.62486 0.27801,0.67307 0.57385,1.3387 0.83318,2.01932 0.19666,0.59281 0.41501,1.17712 0.66473,1.74965 0.34517,0.79585 0.76386,1.55544 1.10025,2.35507 0.3472,0.91911 0.62134,1.86331 0.8724,2.81248 0.21781,0.77658 0.36013,1.56645 0.37118,2.37297 -0.003,0.82624 -0.077,1.65058 -0.16917,2.47104 -0.0766,0.77763 -0.21837,1.54638 -0.30692,2.32237 -0.10915,0.76713 -0.18738,1.53801 -0.30491,2.30399 -0.0713,0.64027 -0.23986,1.25575 -0.4113,1.87388 -0.18243,0.44129 -0.32095,0.89764 -0.48103,1.34723 -0.12471,0.42129 -0.27522,0.8158 -0.51483,1.18351 -0.12511,0.24308 -0.0641,0.12322 -0.18304,0.35951 0,0 3.4553,1.9693 3.4553,1.9693 v 0 c 0.11304,-0.22287 0.0586,-0.11504 0.16348,-0.32346 0.25062,-0.39566 0.42575,-0.81215 0.55036,-1.26464 0.17033,-0.45806 0.30629,-0.92708 0.49739,-1.37728 0.16573,-0.63509 0.35333,-1.26201 0.41502,-1.91946 0.12574,-0.77013 0.20627,-1.54586 0.31979,-2.31771 0.0811,-0.77714 0.22089,-1.54629 0.29693,-2.32416 0.10139,-0.83249 0.18044,-1.66978 0.19925,-2.50849 0.007,-0.84258 -0.10822,-1.6529 -0.33489,-2.46636 -0.24774,-0.96395 -0.53435,-1.91783 -0.85876,-2.85886 -0.30165,-0.81408 -0.72909,-1.56568 -1.07113,-2.36223 -0.26123,-0.56107 -0.49494,-1.13305 -0.68086,-1.72352 -0.23776,-0.69516 -0.55665,-1.35791 -0.8284,-2.04003 -0.24461,-0.60545 -0.47389,-1.23486 -0.92191,-1.72316 -0.35668,-0.44915 -0.72386,-0.88398 -1.15347,-1.26638 -1.4044,-1.11453 -2.96723,-2.2293 -4.75535,-2.53393 -0.92212,-0.124667 -1.85049,-0.211456 -2.7824,-0.168199 z" />
    <path
       style="fill:#330080;stroke-width:0.264583"
       id="path6"
       d="m 86.509033,96.405275 c -1.786929,0.874483 -3.577314,1.74193 -5.387329,2.56779 -1.278959,0.59305 -2.54894,1.212415 -3.723576,1.996015 -0.773184,0.4824 -1.4282,1.11981 -2.097903,1.73139 -0.693933,0.64564 -1.414819,1.26501 -2.163723,1.84607 -0.912055,0.61629 -1.838925,1.2096 -2.767472,1.80061 -0.754968,0.48308 -1.506324,0.98271 -2.213269,1.5346 -0.682763,0.5614 -1.409547,1.06948 -2.137153,1.57161 -1.168609,0.8445 -2.542892,1.32911 -3.90511,1.76082 -0.973968,0.26089 -0.507791,0.1423 -1.397741,0.35887 0,0 3.231393,2.22533 3.231393,2.22533 v 0 c 0.880848,-0.24026 0.41696,-0.11019 1.391015,-0.39254 1.394463,-0.46298 2.801062,-0.96926 4.007181,-1.82964 0.733526,-0.5049 1.458323,-1.02556 2.149615,-1.58699 0.708756,-0.5313 1.44086,-1.03458 2.18584,-1.51343 0.935482,-0.60538 1.878311,-1.20003 2.799201,-1.82739 0.742215,-0.60254 1.475108,-1.21758 2.172711,-1.87167 0.657789,-0.59621 1.311386,-1.20509 2.064314,-1.6821 1.153141,-0.76473 2.387891,-1.38722 3.635464,-1.98203 1.818077,-0.85554 3.631761,-1.720293 5.466184,-2.540697 z" />
    <path
       style="fill:#330080;stroke-width:0.264583"
       id="path7"
       d="m 61.409963,112.92039 c -0.03449,1.331 -0.115054,2.66068 -0.05675,3.99178 0.07109,0.6542 0.101862,1.3567 0.502193,1.90554 1.0805,1.03837 3.176706,1.91118 4.021616,2.38441 0.145434,0.0815 0.245907,0.10071 0.406175,0.14796 0.648404,0.0485 1.294048,-0.13114 1.923939,-0.26648 0.878949,-0.0647 1.62809,-0.50689 2.406139,-0.87561 0.854562,-0.42403 1.657784,-0.94012 2.434035,-1.49238 0.833138,-0.59038 1.654357,-1.19739 2.494039,-1.77861 0.970312,-0.59872 1.810657,-1.36466 2.671527,-2.10439 0.754078,-0.72475 1.498894,-1.45902 2.241235,-2.19576 0.751753,-0.73515 1.461789,-1.51085 2.201331,-2.25802 0.802327,-0.90005 1.644883,-1.76203 2.475902,-2.63517 0.131013,-0.15307 0.262027,-0.30613 0.393038,-0.45919 0,0 -3.366632,-2.02756 -3.366632,-2.02756 v 0 c -0.126664,0.14774 -0.253328,0.29548 -0.379989,0.44322 -0.828977,0.87227 -1.671064,1.73177 -2.477815,2.62512 -0.738196,0.74776 -1.455677,1.51572 -2.206631,2.25089 -0.733697,0.73156 -1.467474,1.46326 -2.219028,2.17656 -0.849524,0.73525 -1.694098,1.47401 -2.653493,2.06721 -0.837986,0.58461 -1.663711,1.18586 -2.494246,1.78084 -0.768008,0.53253 -1.566087,1.02215 -2.408277,1.42974 -0.383199,0.18251 -0.764339,0.38769 -1.164381,0.5319 -0.319834,0.11529 -0.442172,0.12399 -0.780875,0.18703 -0.137483,0.0256 -0.275014,0.0509 -0.412523,0.0764 -0.586848,0.11993 -1.225285,0.2915 -1.808609,0.0778 -0.06715,-0.0295 -0.13448,-0.0585 -0.201441,-0.0884 -0.06296,-0.0281 -0.247785,-0.12045 -0.188304,-0.0856 5.664973,3.32085 3.984927,2.2968 2.769005,1.60912 -0.09663,-0.0665 -0.21358,-0.13606 -0.285803,-0.2321 -0.301397,-0.40081 -0.27672,-0.96704 -0.380294,-1.43118 -0.09823,-1.31202 -0.02524,-2.62718 0.06196,-3.9384 z" />
    <path
       style="fill:#330080;stroke-width:0.264583"
       id="path8"
       d="m 105.30349,100.28965 c 0.95998,-0.2593 1.90868,-0.554157 2.84045,-0.900758 0.40085,-0.164952 0.75956,-0.40989 1.14405,-0.60547 0.37608,-0.243322 0.8323,-0.268973 1.2673,-0.252788 0.61833,0.03937 1.23622,0.07603 1.85562,0.09355 0.57439,0.07456 1.15493,0.0801 1.7092,0.2579 -0.55346,-0.357748 1.13888,0.668986 0.59584,0.357238 -5.40649,-3.103758 -3.81911,-2.369217 -2.7289,-1.482429 0.42727,0.373309 0.8544,0.74421 1.25139,1.14984 0.46954,0.478785 0.87522,1.008824 1.25497,1.559837 0.52056,0.7787 1.1575,1.46639 1.72244,2.21148 0.64756,0.89402 1.3004,1.77334 2.0611,2.57464 1.01364,1.01377 2.12562,1.9211 3.2556,2.80062 1.94531,1.38541 4.02362,2.5754 6.14442,3.67133 1.20361,0.54161 2.45985,0.98911 3.73619,1.32797 0.43373,0.0936 0.87203,0.20754 1.31674,0.23928 0.31507,0.0225 0.63764,-0.0118 0.95169,-0.0348 0.37427,-0.0731 0.74586,-0.15624 1.12409,-0.20648 0,0 -3.25383,-2.28766 -3.25383,-2.28766 v 0 c -0.36311,0.0653 -0.72318,0.15479 -1.09213,0.18062 -0.73604,0.0277 -1.45589,-0.0799 -2.16387,-0.28789 -1.26147,-0.36867 -2.51531,-0.79924 -3.6885,-1.39608 -1.47362,-0.78328 -0.66084,-0.35911 2.4698,1.46187 0.1445,0.0841 -0.29071,-0.16529 -0.43288,-0.25323 -0.31035,-0.19199 -0.63022,-0.41851 -0.93445,-0.61818 -0.17722,-0.1163 -0.35662,-0.22924 -0.53492,-0.34386 -1.13783,-0.85838 -2.24646,-1.75836 -3.27487,-2.74656 -0.39241,-0.39467 -0.77402,-0.79023 -1.11627,-1.23023 -0.37741,-0.48522 -0.25292,-0.36763 -0.6185,-0.86012 -0.10801,-0.1455 -0.22301,-0.28568 -0.33451,-0.42852 -0.28652,-0.40518 -0.58034,-0.79998 -0.90666,-1.17453 -0.0986,-0.11322 -0.20899,-0.21614 -0.30407,-0.33235 -0.17968,-0.2196 -0.32184,-0.46816 -0.50239,-0.68717 -0.26787,-0.39291 -0.51719,-0.80341 -0.82469,-1.16777 -0.0662,-0.0784 -0.14516,-0.14535 -0.21302,-0.22235 -0.0636,-0.0722 -0.12071,-0.14985 -0.18106,-0.22478 -0.39283,-0.41765 -0.79726,-0.814131 -1.23525,-1.184132 -1.23839,-1.126001 -2.05629,-1.341216 -4.03545,-2.504379 -0.1538,-0.09039 -0.26259,-0.15144 -0.4301,-0.208878 -0.0756,-0.02593 -0.15398,-0.04291 -0.23098,-0.06437 -0.57786,-0.109305 -1.16846,-0.141714 -1.75408,-0.186047 -0.62288,-0.02506 -1.24488,-0.07705 -1.86852,-0.07567 -0.4927,0.0365 -0.96664,0.123169 -1.38811,0.398217 -0.35818,0.20448 -0.7135,0.41665 -1.09617,0.573415 -0.92343,0.355214 -1.87142,0.637249 -2.83063,0.879338 z" />
    <path
       style="fill:#330080;stroke-width:0.264583"
       id="path9"
       d="m 131.3992,112.18431 c -0.35139,1.03743 -0.80422,2.03823 -1.41416,2.94855 -0.61712,0.92582 -1.44034,1.68588 -2.23629,2.45455 -0.45715,0.35043 -0.84113,0.79978 -1.31384,1.12861 -0.23301,0.23781 -0.54724,0.31737 -0.84274,0.44156 -0.27374,0.0993 -0.55455,0.22802 -0.84781,0.25984 -0.0797,0.009 -0.29623,-0.009 -0.37632,-0.0149 -0.42451,-0.008 -0.8322,-0.12321 -1.25137,-0.18184 -0.11468,-0.0627 -0.25494,-0.0516 -0.37227,-0.10501 -0.0581,-0.0265 -0.10242,-0.0769 -0.15825,-0.10789 -0.16015,-0.0888 -0.65549,-0.3259 -0.49701,-0.23414 1.02961,0.59616 2.06723,1.17835 3.10084,1.76752 -0.79178,-0.46682 -1.47051,-1.09091 -2.1409,-1.71291 -0.83051,-0.76495 -1.57428,-1.61416 -2.29276,-2.48302 -0.54255,-0.68351 -1.0757,-1.37487 -1.59854,-2.07366 -0.46292,-0.5993 -1.09165,-1.03405 -1.66257,-1.52193 -0.49819,-0.35803 -0.95756,-0.75983 -1.37569,-1.2082 -0.48514,-0.51261 -0.87221,-1.10199 -1.35451,-1.61642 -0.58166,-0.61115 -1.25861,-1.11534 -1.91404,-1.64196 -0.69314,-0.5258 -1.43039,-0.98948 -2.12246,-1.51676 -0.45267,-0.37495 -0.9045,-0.752 -1.33042,-1.1574 0,0 -3.67953,-1.50134 -3.67953,-1.50134 v 0 c 0.45454,0.38607 0.87211,0.81638 1.34171,1.18663 0.66737,0.56005 1.4074,1.02227 2.1232,1.51731 0.65401,0.51977 1.33353,1.00971 1.92548,1.60137 0.23723,0.21728 0.30556,0.26602 0.51367,0.51166 0.29541,0.34867 0.5011,0.76628 0.8475,1.07392 0.38721,0.48357 0.83096,0.92749 1.34723,1.27352 0.81946,0.62327 -0.3693,-0.2945 0.49624,0.42311 0.40489,0.3357 0.86422,0.61328 1.2134,1.0128 0.53169,0.70072 1.06357,1.4004 1.60344,2.09478 0.72148,0.87572 1.44816,1.7515 2.28082,2.52568 0.64324,0.64946 1.3285,1.27049 2.08605,1.78507 1.23129,0.70978 2.45852,1.42665 3.69388,2.12932 0.0101,0.006 0.47784,0.22284 0.5116,0.23512 0.18948,0.0689 0.39756,0.0912 0.59419,0.12863 0.42777,0.0722 0.85476,0.15302 1.29142,0.1295 0.45743,-0.039 0.88784,-0.19155 1.31062,-0.36554 0.32859,-0.12866 0.63745,-0.28925 0.89888,-0.531 0.45505,-0.3742 0.86811,-0.79976 1.31121,-1.18795 0.80372,-0.79786 1.6349,-1.5845 2.2692,-2.52959 0.10842,-0.16231 0.22468,-0.31966 0.32526,-0.48694 0.4818,-0.80132 0.80343,-1.68998 1.16922,-2.54616 z" />
    <path
       style="fill:#330080;stroke-width:0.264583"
       id="path10"
       d="m 83.30866,192.16457 c -0.727718,1.23096 -1.564577,2.39007 -2.307863,3.61171 -0.564028,0.96902 -1.061823,1.97244 -1.541822,2.98473 -0.283551,0.63631 -0.46178,1.30969 -0.826159,1.9072 -0.202858,0.38686 -0.668806,0.6493 -0.791707,1.08251 -0.02,0.0705 -0.02122,0.14501 -0.03181,0.21751 0.01275,0.0609 0.01378,0.12543 0.03827,0.18259 0.0208,0.0486 0.04857,0.1011 0.09445,0.12729 2.076736,1.1854 2.578259,2.1349 4.337182,1.97399 0.546674,-0.0419 1.088567,-0.0947 1.629463,-0.18143 0.635669,-0.12401 1.265386,-0.27145 1.906762,-0.36396 0.551154,-0.12613 1.097722,-0.27323 1.64464,-0.41821 0.41257,-0.15876 0.810148,-0.3506 1.229341,-0.49413 0.453903,-0.23452 0.960332,-0.33467 1.445509,-0.4844 0.718587,-0.32608 1.442341,-0.64228 2.105729,-1.07192 0.479073,-0.33253 1.077534,-0.60513 1.417862,-1.10004 0.05835,-0.0849 0.09951,-0.18032 0.149262,-0.27048 0.204417,-0.43894 0.233159,-0.89714 0.174982,-1.36914 -0.04486,-0.36531 -0.240133,-0.67682 -0.44922,-0.97047 -0.30784,-0.35638 -0.547518,-0.76256 -0.808823,-1.15304 -0.253032,-0.40529 -0.556528,-0.77286 -0.858444,-1.14152 -1.093141,-1.42967 -2.213882,-1.60626 -4.181107,-2.73408 -0.412012,-0.0993 -0.822375,-0.20503 -1.240491,-0.27618 -0.446672,-0.0583 -0.896932,-0.0692 -1.346713,-0.0722 -0.422376,-0.0297 -0.835755,0.0347 -1.251942,0.094 0,0 3.24762,2.29328 3.24762,2.29328 v 0 c 0.403193,-0.0519 0.806752,-0.0693 1.213313,-0.0459 0.43766,0.0149 0.877382,0.037 1.306737,0.12979 0.39886,0.0914 0.812628,0.16649 1.172898,0.36884 -1.081598,-0.62514 -2.16962,-1.23929 -3.244794,-1.87541 -0.04894,-0.029 0.111744,0.0263 0.162536,0.0518 0.160957,0.081 0.408824,0.35883 0.504026,0.50919 0.300797,0.36389 0.624769,0.71052 0.876824,1.11128 0.143515,0.20494 0.299537,0.41037 0.433065,0.62133 0.09201,0.14537 0.12583,0.26984 0.226538,0.40878 0.03825,0.0528 0.08811,0.0961 0.13216,0.14409 0.208134,0.23894 0.403516,0.49356 0.535326,0.78227 0.06779,0.39383 0.121793,0.76625 -0.04674,1.14843 -0.03507,0.0665 -0.06225,0.13778 -0.105199,0.19949 -0.299042,0.42968 -0.926205,0.7041 -1.341371,1.00554 -0.649512,0.39166 -1.345584,0.70794 -2.053754,0.97812 -0.498433,0.14256 -1.000749,0.27377 -1.471501,0.496 -0.402254,0.15559 -0.790978,0.34712 -1.205386,0.46832 -0.534276,0.14532 -1.071108,0.2898 -1.616147,0.38762 -0.63831,0.11127 -1.269047,0.26185 -1.909974,0.35868 -0.529561,0.0771 -1.064718,0.11601 -1.599081,0.14054 -0.195336,-0.01 -0.296693,-0.007 -0.486296,-0.0474 -0.06416,-0.0137 -0.245332,-0.0888 -0.188878,-0.0554 5.119693,3.03127 4.401976,1.83224 3.011688,1.87642 -0.02706,-0.002 -0.06888,0.0174 -0.08117,-0.007 -0.02061,-0.0406 0.09616,-0.20806 0.132273,-0.25785 0.19378,-0.26713 0.429836,-0.50131 0.608248,-0.78022 0.369138,-0.61346 0.576122,-1.28773 0.835316,-1.95135 0.460988,-1.0069 0.944044,-2.00197 1.499589,-2.9612 0.728414,-1.22655 1.5479,-2.39135 2.328476,-3.58467 z" />
    <path
       style="fill:#330080;stroke-width:0.264583"
       id="path11"
       d="m 109.06185,193.11613 c -0.93768,0.32338 -1.85213,0.68614 -2.73064,1.14635 -0.47091,0.26043 -0.71172,0.47321 -0.96114,0.94415 -0.21136,0.49571 -0.40213,0.99732 -0.56974,1.50954 -0.1673,0.44958 -0.33206,0.89942 -0.37978,1.37878 -0.0104,0.5564 0.15798,1.09414 0.26302,1.63573 0.10606,0.66473 0.27384,1.30953 0.58445,1.90786 0.90685,1.28055 3.18539,2.08145 4.08995,2.59418 0.2337,0.13246 0.63864,0.26267 0.89841,0.34028 0.68195,0.17169 1.34938,0.39328 2.03874,0.53315 0.59919,0.0614 1.16011,0.27881 1.72507,0.46832 0.32671,0.17599 0.69596,0.20444 1.05493,0.25982 0.0658,0.0102 0.68686,0.12611 0.71648,0.13161 0.98469,0.17774 1.98459,0.21482 2.98216,0.24681 0.77603,0.0234 1.57212,0.0806 2.30735,-0.21106 0.45821,-0.26509 0.52712,-0.7611 0.60111,-1.24217 0.10035,-0.65069 0.007,-1.29443 -0.16236,-1.92355 -0.13293,-0.49474 -0.46006,-0.84249 -0.83041,-1.17229 -0.3475,-0.31954 -0.71684,-0.6139 -1.06002,-0.93807 -0.48888,-0.46517 -0.95032,-0.94595 -1.49489,-1.34762 -1.66741,-1.04233 -3.2906,-2.23596 -5.13869,-2.92176 -0.61845,-0.20139 -1.23558,-0.39711 -1.83799,-0.64526 -0.48749,-0.25403 -1.00859,-0.43275 -1.51285,-0.65308 -1.22046,-0.66243 -1.23223,-0.67069 3.00769,1.72455 0.0664,0.0375 -0.12665,-0.085 -0.18957,-0.12813 -0.17208,-0.11794 -0.34599,-0.23156 -0.52102,-0.34509 -2.3879,-2.52253 -2.44137,-1.53328 -3.96785,-2.1691 -0.1117,-0.0465 -0.21532,-0.11085 -0.32623,-0.15924 0,0 3.11904,2.47107 3.11904,2.47107 v 0 c 1.33215,0.59856 3.47484,1.32648 -2.53725,-1.56838 0.25545,0.13114 0.47858,0.30568 0.72422,0.45045 3.49505,2.05997 2.33546,1.54418 3.80836,2.1871 0.50381,0.21059 1.01264,0.4079 1.50897,0.63597 0.60834,0.23008 1.23532,0.40519 1.83579,0.65557 0.0904,0.0432 0.18182,0.0844 0.27127,0.12963 1.82769,0.92354 -4.36367,-2.57788 -2.54118,-1.4836 0.1007,0.0605 0.1998,0.12357 0.30036,0.18426 0.1044,0.063 0.20967,0.12456 0.31451,0.18684 0.29851,0.19333 0.60377,0.38591 0.86446,0.63048 0.0834,0.0782 0.1566,0.16672 0.2349,0.25009 0.065,0.0792 0.12131,0.16632 0.19489,0.23758 0.0634,0.0614 0.14201,0.10496 0.21301,0.15745 0.32773,0.34683 0.69,0.64952 1.05232,0.95852 0.33728,0.30394 0.73252,0.54744 0.9227,0.97922 0.20145,0.56491 0.31896,1.16461 0.23998,1.76512 -0.0433,0.32137 -0.0279,0.73557 -0.38209,0.86331 -0.71732,0.19019 -1.46023,0.13815 -2.19489,0.11577 -0.99194,-0.0402 -1.98473,-0.1062 -2.95998,-0.30338 -0.59456,-0.11202 -1.19275,-0.20256 -1.75159,-0.44717 -0.56664,-0.19435 -1.15169,-0.3202 -1.74045,-0.4274 -0.67705,-0.16812 -1.35004,-0.35979 -2.01427,-0.57247 -0.22558,-0.0919 -0.35093,-0.13871 -0.56959,-0.24476 -0.0963,-0.0467 -0.37741,-0.20186 -0.28529,-0.14737 1.02798,0.60799 2.06466,1.20119 3.09327,1.80812 0.0863,0.0509 -0.18152,-0.0863 -0.26619,-0.13999 -0.0751,-0.0476 -0.14086,-0.10848 -0.21129,-0.16273 -0.35686,-0.54423 -0.55284,-1.13839 -0.64961,-1.78276 -0.0808,-0.52109 -0.23182,-1.02927 -0.28661,-1.55273 -0.0162,-0.44879 0.17978,-0.87069 0.32017,-1.28882 0.15577,-0.49119 0.34523,-0.9668 0.54349,-1.442 0.20932,-0.38426 0.43696,-0.53844 0.82354,-0.75336 0.85448,-0.45745 1.75772,-0.80449 2.68718,-1.07972 z" />
    <circle
       id="path12"
       style="fill:#e9c6af;stroke:#000000;stroke-width:0.264583"
       cx="23.02199"
       cy="110.04838"
       r="0.021748275" />
    <path
       style="fill:#e9c6af;stroke-width:0.264583"
       id="path13"
       d="m 83.394806,174.92816 c -0.430208,1.41854 -0.797132,2.85314 -1.138394,4.29522 -0.137319,0.65844 -0.323548,1.3146 -0.373385,1.98863 -0.0443,0.5992 0.01384,1.20212 0.06198,1.79878 0.09115,1.04317 0.264943,2.07637 0.388225,3.11575 0.0868,0.9373 0.15217,1.87658 0.258959,2.81198 0.09741,0.75464 0.290435,1.48881 0.484417,2.22262 0.106196,0.43485 0.286565,0.83702 0.618969,1.14173 -0.549539,-3.94861 2.382893,2.38197 3.737766,1.98755 0.07176,-0.0209 0.206023,-0.11277 0.278236,-0.14387 0.07345,-0.0316 0.18851,-0.0552 0.264636,-0.0733 0.254471,-0.14571 0.526892,-0.29578 0.721905,-0.51885 0.198081,-0.27993 0.304226,-0.5956 0.366202,-0.92932 0.04376,-0.47015 0.11507,-0.93748 0.134985,-1.40939 -0.04524,-0.83753 -0.196876,-1.66451 -0.29265,-2.49716 -0.08504,-0.72202 -0.08524,-1.44953 -0.12837,-2.17417 -0.05424,-0.59802 -0.10051,-1.19634 -0.128244,-1.79619 -0.01812,-0.52215 -0.01876,-1.04468 -0.01857,-1.56709 -0.0013,-0.47396 0.0013,-0.94792 0.0011,-1.42188 -0.0011,-0.47802 7.93e-4,-0.95604 -5.1e-5,-1.43407 0.0029,-0.58921 -0.01752,-1.17889 0.0099,-1.76761 0.04974,-0.58954 0.07609,-1.18134 0.166936,-1.76637 0.05742,-0.52587 0.166677,-1.03914 0.290116,-1.55277 0,0 -3.493982,-1.88277 -3.493982,-1.88277 v 0 c -0.119406,0.52324 -0.256733,1.04181 -0.305821,1.57803 -0.0944,0.59794 -0.122349,1.20057 -0.176789,1.80324 -0.04487,0.59399 -0.01992,1.1898 -0.02915,1.78514 -7.93e-4,0.4778 7.94e-4,0.95561 -7.93e-4,1.43341 -7.94e-4,0.47431 5.29e-4,0.94863 -7.94e-4,1.42294 0.0016,0.52752 0.003,1.05512 0.01725,1.58248 0.01738,0.60528 0.06452,1.20882 0.128423,1.81095 0.05994,0.72967 0.04261,1.46476 0.131331,2.19297 0.08597,0.81657 0.222586,1.62597 0.300091,2.44323 0.0019,0.45614 -0.09709,0.89948 -0.121243,1.35423 -0.03377,0.25753 -0.09516,0.50397 -0.252693,0.71679 -0.172373,0.15177 -0.384027,0.27943 -0.604472,0.34372 -0.102479,0.0335 -0.262827,0.12504 -0.375304,0.11207 -0.02196,-0.003 -0.180887,-0.0883 -0.178276,-0.0867 1.089858,0.63025 2.181535,1.25734 3.272301,1.88602 -0.436597,-0.14385 -0.611267,-0.44281 -0.756632,-0.86627 -0.193463,-0.72212 -0.413975,-1.43687 -0.515258,-2.18033 -0.137816,-0.93254 -0.190664,-1.87601 -0.27778,-2.81415 -0.114128,-1.0382 -0.284896,-2.06876 -0.391054,-3.10795 -0.06031,-0.57092 -0.134523,-1.15227 -0.107911,-1.72781 0.03072,-0.66432 0.206153,-1.3122 0.33391,-1.96102 0.3341,-1.43412 0.684789,-2.867 1.175557,-4.25706 z" />
    <path
       style="fill:#e9c6af;stroke-width:0.264583"
       id="path14"
       d="m 106.26806,176.87422 c -0.24854,1.08165 -0.51748,2.1583 -0.77234,3.2385 -0.172,0.78587 -0.37171,1.56547 -0.54237,2.35227 -0.14482,0.80055 -0.33564,1.58974 -0.45096,2.39542 -0.11041,0.82917 -0.23395,1.65434 -0.37074,2.47934 -0.16525,0.84555 -0.31653,1.69292 -0.35171,2.55477 -0.0301,0.83453 0.18254,1.64665 0.36825,2.453 0.54766,2.38158 0.56775,1.43335 3.98377,3.33138 0.45277,-0.10694 0.86147,-0.34022 1.26852,-0.55788 0.46053,-0.19214 0.71583,-0.28372 0.97107,-0.73141 0.2728,-0.65795 0.23761,-1.37312 0.21411,-2.06967 -0.0755,-0.87917 -0.15669,-1.75731 -0.20298,-2.63867 -0.0346,-0.75258 -0.039,-1.50616 -0.0439,-2.25939 -0.0145,-0.74792 0.056,-1.49391 0.15556,-2.2342 0.10489,-0.68413 0.13775,-1.37511 0.16208,-2.06579 -0.0206,-0.63944 0.0864,-1.26714 0.19496,-1.89381 0.068,-0.44435 0.27336,-0.84248 0.4519,-1.24872 0,0 -3.46235,-1.95088 -3.46235,-1.95088 v 0 c -0.19591,0.43469 -0.40782,0.86604 -0.49314,1.33982 -0.10647,0.64451 -0.23375,1.28791 -0.21502,1.9453 -0.0155,0.67835 -0.0446,1.3572 -0.14102,2.0297 -0.10302,0.75715 -0.18595,1.51963 -0.17543,2.28503 -7.9e-4,0.75918 10e-4,1.51847 0.0355,2.27706 0.0458,0.87926 0.11856,1.75657 0.20586,2.63268 0.0232,0.62232 0.0845,1.26381 -0.13094,1.86186 -0.1838,0.30846 -0.54778,0.37561 -0.8472,0.54295 -0.33893,0.16994 -0.72927,0.43475 -1.1219,0.3291 1.09877,0.64203 2.19755,1.28406 3.29632,1.92608 -0.13472,-0.0366 -0.16326,-0.0193 -0.24484,-0.1604 -0.17043,-0.29486 -0.20802,-0.66146 -0.30097,-0.98128 -0.19538,-0.77208 -0.39653,-1.559 -0.40988,-2.35888 0.004,-0.84578 0.1551,-1.67926 0.32009,-2.50692 0.14296,-0.82784 0.27165,-1.65521 0.3793,-2.48866 0.1051,-0.7981 0.30012,-1.57584 0.43919,-2.3681 0.16744,-0.78686 0.37269,-1.56511 0.52923,-2.35352 0.23893,-1.08122 0.49484,-2.15947 0.78772,-3.22731 z" />
    <path
       style="fill:#e9c6af;stroke-width:0.264583"
       id="path15"
       d="m 58.430159,112.86862 c -0.96448,0.56892 -2.012606,0.93777 -3.061956,1.31005 -0.647245,0.1774 -1.279134,0.43484 -1.946598,0.52569 -0.756346,0.0848 -1.504252,0.22178 -2.261947,0.29952 -0.85231,0.0569 -1.700167,0.15168 -2.553377,0.19771 -1.100201,0.049 -2.201709,0.0548 -3.302812,0.0572 -0.829887,-0.005 -1.656909,0.0818 -2.485488,0.12234 -0.119584,0.005 -0.330092,-0.009 -0.450837,0.063 -0.09393,0.0556 -0.285091,0.39748 -0.221776,0.43936 3.033117,2.00643 2.304089,1.93202 3.902519,2.01325 0.588708,0.035 1.178938,-0.0111 1.766022,0.0453 0.720389,0.10302 1.438582,0.19552 2.166075,0.23641 1.021445,0.11179 2.048044,0.15598 3.074503,0.18805 0.873506,0.0302 1.744684,0.0438 2.615941,-0.0273 0.625084,-0.0475 1.242661,-0.16123 1.855203,-0.29046 0.472011,-0.10342 0.912233,-0.29265 1.390192,-0.38074 0.630304,-0.1539 1.258642,-0.32237 1.882794,-0.5005 0.675999,-0.18968 1.362744,-0.33147 2.044567,-0.49617 0.392713,-0.0904 0.208196,-0.0458 0.553871,-0.13249 0,0 -3.269972,-2.25342 -3.269972,-2.25342 v 0 c -0.333282,0.0862 -0.153652,0.0412 -0.539221,0.13372 -0.688747,0.15729 -1.375479,0.32171 -2.057424,0.50681 -0.622599,0.16869 -1.24211,0.35253 -1.875401,0.47771 -0.466042,0.11535 -0.91296,0.29524 -1.386834,0.37891 -0.599395,0.12263 -1.206119,0.21271 -1.816857,0.25391 -0.857536,0.0565 -1.716622,0.0257 -2.5751,0.005 -1.02689,-0.0369 -2.051661,-0.10412 -3.074275,-0.20596 -0.729528,-0.0621 -1.450576,-0.18451 -2.180117,-0.24273 -0.587216,-0.0178 -1.176562,5.2e-4 -1.761638,-0.0627 -1.522669,-0.24652 0.419222,0.0373 2.975338,1.88337 0.270041,0.19503 -0.49784,0.32493 -0.07637,0.29487 0.0912,-0.007 0.182465,-0.012 0.273698,-0.0179 0.818878,-0.0505 1.637416,-0.12592 2.458625,-0.11744 1.10508,-0.01 2.210617,-0.0185 3.314589,-0.0733 0.859903,-0.0499 1.717188,-0.13281 2.575081,-0.20878 0.765172,-0.0917 1.526738,-0.21144 2.290701,-0.31163 0.667769,-0.14663 1.31235,-0.38545 1.962007,-0.59534 1.059003,-0.38525 2.096204,-0.80952 3.096546,-1.33203 z" />
    <path
       style="fill:#e9c6af;stroke-width:0.264583"
       id="path16"
       d="m 129.85953,115.41044 c 0.81389,0.78257 1.70467,1.47434 2.64892,2.09093 2.26076,1.4966 3.70629,2.22975 6.0102,2.96444 0.84697,0.25881 1.71149,0.44133 2.55636,0.70894 0.62164,0.19891 1.25926,0.32333 1.89829,0.45046 0.64869,0.12864 1.30755,0.17206 1.96712,0.19053 0.76863,0.0171 1.5375,0.009 2.30624,0.009 0.77443,0.012 1.54508,0.005 2.31677,-0.0586 0.57322,-0.0867 1.1421,-0.18803 1.6951,-0.36402 0.13056,-0.0383 0.27893,-0.0957 0.42006,-0.0904 0.0353,0.001 0.0671,0.0224 0.10064,0.0336 -1.13209,-0.65795 -2.2505,-1.34003 -3.39628,-1.97384 -0.038,-0.021 -0.25797,0.17305 -0.32885,0.22936 -0.82975,0.54499 -1.75747,0.92383 -2.68705,1.2625 -0.79602,0.32305 -1.63058,0.32288 -2.47309,0.31676 -1.04606,-0.004 -2.09016,-0.0263 -3.13432,-0.0889 -0.94523,-0.0336 -1.87497,-0.21654 -2.81289,-0.32112 -1.0751,-0.0277 -2.06933,-0.20007 -3.10804,-0.46758 -0.88092,-0.19825 -1.74782,-0.44105 -2.58467,-0.7811 -0.10268,-0.046 -0.20802,-0.0864 -0.30804,-0.13793 -0.088,-0.0453 -0.34102,-0.2013 -0.2551,-0.15213 1.05094,0.60136 4.19142,2.4267 3.15016,1.80874 -1.1988,-0.71145 -2.42138,-1.3822 -3.62279,-2.08924 -1.05337,-0.61992 2.11478,1.2262 3.17868,1.82788 0.072,0.0407 -0.13457,-0.0962 -0.20186,-0.14434 -0.29029,-0.24964 -0.57198,-0.51466 -0.83308,-0.7954 -0.0175,-0.0171 -0.0281,-0.0508 -0.0525,-0.0512 -0.0279,-5.3e-4 -0.0256,0.075 7.9e-4,0.0837 0.15861,0.0521 0.38673,0.004 0.54761,-0.002 0.5072,-0.0131 1.01462,-0.008 1.52189,-0.003 0.30301,0.001 0.14925,7.9e-4 0.46128,0.001 0,0 -3.21247,-2.33591 -3.21247,-2.33591 v 0 c -0.31335,-0.002 -0.15906,-0.001 -0.46286,-0.003 -0.51256,1e-4 -1.02576,-0.003 -1.53758,0.0285 -0.42386,0.0428 -0.96139,0.12158 -0.91285,0.68166 0.17856,0.37755 0.53411,0.60069 0.79437,0.91832 1.32594,1.16094 -1.26526,-1.08671 3.79469,2.28935 1.01383,0.67644 -4.22957,-2.42413 -3.1657,-1.82951 1.4254,0.79669 2.71891,1.76405 4.23086,2.34538 0.84886,0.29953 1.71755,0.52913 2.59548,0.72758 1.03795,0.23766 2.0828,0.37139 3.14547,0.43751 0.93681,0.12225 1.87215,0.2679 2.81851,0.29364 1.05267,0.0546 2.10618,0.0724 3.16021,0.0797 0.87546,-0.009 1.72899,-0.0888 2.54529,-0.43748 0.96056,-0.36755 1.9191,-0.77566 2.7743,-1.35329 0.23629,-0.18715 0.54337,-0.41647 0.4876,-0.46123 -2.6983,-2.16567 -2.21171,-2.60312 -3.91531,-2.08827 -0.53691,0.14249 -1.08322,0.24882 -1.63649,0.3036 -0.76383,0.051 -1.52875,0.0361 -2.29392,0.0387 -0.76824,5.3e-4 -1.53682,-1.5e-4 -2.30463,-0.0285 -0.64848,-0.0362 -1.29486,-0.10145 -1.93056,-0.24014 -0.63117,-0.12688 -1.2545,-0.2888 -1.8703,-0.47688 -0.84533,-0.24314 -1.70687,-0.42687 -2.54021,-0.71072 -0.45261,-0.15779 -0.90654,-0.31504 -1.35265,-0.49068 -1.29328,-0.5092 -3.35985,-1.73142 2.13192,1.37309 -0.95202,-0.58129 -1.86701,-1.22984 -2.6609,-2.01823 z" />
    <path
       style="fill:#e9c6af;stroke-width:0.264583"
       id="path17"
       d="m 90.425002,93.697683 c 0.391038,0.844169 0.716092,1.717691 1.104923,2.562455 0.232392,0.453832 0.497375,0.884373 0.700276,1.352595 0.269928,0.554329 0.560948,1.101908 0.923147,1.60169 0.385426,0.513649 0.7963,1.004367 1.235757,1.472327 0.339096,0.37836 0.656688,0.76967 1.012362,1.13319 0.298305,0.27975 0.512218,0.63123 0.853186,0.86397 -1.118671,-5.131436 2.598791,2.70045 3.894607,2.01121 0.14254,-0.0758 0.20717,-0.22095 0.31888,-0.32852 0.18812,-0.23274 0.32493,-0.51087 0.42802,-0.79106 0.13254,-0.46003 0.13502,-0.94339 0.18968,-1.41644 0.10203,-0.80274 0.33439,-1.56776 0.6141,-2.323377 0.25438,-0.704496 0.61526,-1.35671 1.1014,-1.925738 0.0683,-0.07856 0.13598,-0.157597 0.20479,-0.235681 0.15371,-0.174418 0.19644,-0.23755 0.37918,-0.37117 0.1749,-0.127887 0.35418,-0.227799 0.52007,-0.369742 0.40944,-0.249481 0.81082,-0.508855 1.2258,-0.750269 0.57156,-0.427056 1.22019,-0.72654 1.82176,-1.103156 0.48975,-0.314224 1.00928,-0.58529 1.53782,-0.828643 0.32755,-0.148773 0.64854,-0.326382 0.99039,-0.44046 0.26703,-0.150244 0.56389,-0.193376 0.86419,-0.216678 0.38166,0.01519 0.73881,-0.122312 1.10806,-0.193463 0.54066,-0.114478 1.05886,-0.308314 1.57978,-0.486722 0.579,-0.247198 1.00052,-0.725184 1.47804,-1.118225 0.41743,-0.322993 0.81622,-0.657601 1.2643,-0.936921 0.44341,-0.282636 0.8969,-0.550304 1.3595,-0.80232 0.84025,-0.504849 1.67098,-1.02544 2.50189,-1.546175 0.95253,-0.644392 1.94898,-1.211103 2.96323,-1.750851 0.69351,-0.38858 1.42123,-0.702043 2.1503,-1.014447 0.67194,-0.300595 1.37672,-0.546671 1.98177,-0.974479 0.034,-0.06667 0.0876,-0.126563 0.10194,-0.200017 0.0193,-0.09892 0.0808,-0.24807 -0.004,-0.302307 -3.11951,-1.991911 -2.63245,-1.860614 -4.81192,-2.232359 -0.85415,-0.100494 -1.68981,-0.296428 -2.53253,-0.458877 -0.7504,-0.09676 -1.46978,-0.352343 -2.2004,-0.541679 -0.69675,-0.168854 -1.41372,-0.206145 -2.1272,-0.230296 -0.59107,-0.07718 -1.18353,-0.128423 -1.77905,-0.150471 -0.61515,-0.01902 -1.23065,-0.0177 -1.84602,-0.02021 -0.50633,0.03709 -0.97117,-0.126011 -1.4254,-0.323744 -1.25646,-0.754222 0.22835,0.138535 3.10607,1.775663 0.0482,0.02741 -0.0943,-0.05859 -0.13832,-0.09231 -0.17311,-0.132699 -0.34229,-0.276307 -0.50776,-0.418489 -0.50267,-0.477107 -0.89902,-1.045263 -1.32171,-1.590183 -0.47643,-0.580577 -0.93932,-1.17249 -1.39574,-1.768935 -0.34137,-0.504179 -0.72923,-0.965372 -1.14461,-1.408806 -0.32638,-0.430405 -0.6917,-0.806915 -1.11009,-1.147198 -1.44362,-1.232043 -3.16989,-1.996795 -4.82713,-2.931978 -0.64597,-0.280646 -1.31822,-0.501669 -1.99747,-0.686837 -0.9068,-0.204616 -1.835458,-0.162864 -2.756555,-0.129434 -0.832953,0.02922 -1.664118,0.04289 -2.4937,0.124886 -0.556194,0.09121 -1.076492,0.3181 -1.616845,0.470712 -0.528241,0.139131 -1.035447,0.32608 -1.52568,0.567396 -0.506963,0.278371 -0.993841,0.594548 -1.438558,0.964393 -0.601964,0.415547 -1.13478,0.914707 -1.673585,1.406443 -0.750168,0.75165 -1.482503,1.521092 -2.21062,2.294432 -0.683525,0.719241 -1.392069,1.411338 -2.061552,2.144507 -0.352435,0.313946 -0.732758,0.62531 -1.188611,0.767738 -0.94937,0.241493 -1.912996,0.405384 -2.884697,0.52328 -1.051832,0.113948 -2.111441,0.119007 -3.168221,0.124158 -0.791673,0.04139 -1.569027,-0.0903 -2.344174,-0.227258 -0.432477,-0.07411 -0.854686,-0.197303 -1.277101,-0.314865 -0.138216,0.03652 -0.21463,-0.237334 -0.347046,-0.200964 -0.185542,0.05096 -0.24928,0.406574 -0.257027,0.573736 1.17316,1.24932 2.356633,1.561176 4.159705,2.585915 1.228265,0.59985 2.837235,1.551078 -2.747899,-1.601028 -0.08164,-0.04607 0.155768,0.104349 0.234923,0.154559 0.534451,0.339011 -0.0081,-0.02207 0.5309,0.342358 0.515125,0.383455 1.00294,0.800491 1.522394,1.178173 0.722297,0.468075 1.375786,1.028528 2.060964,1.547257 0.979228,0.682141 1.965142,1.356495 2.869361,2.136913 0.732915,0.643964 1.393672,1.361371 2.015429,2.111497 0.439021,0.544983 0.874872,1.092747 1.321449,1.631587 0.384262,0.462799 0.777808,0.919583 1.196578,1.351566 0.45385,0.478906 0.913452,0.949912 1.418569,1.375161 1.336272,1.087996 2.803839,2.159331 4.478565,2.601539 0.325373,0.08591 0.568153,0.113411 0.90221,0.164407 0.151098,0.01831 0.302197,0.03663 0.453295,0.05495 0,0 -3.161057,-2.363351 -3.161057,-2.363351 v 0 c -0.146894,-0.02268 -0.29379,-0.04537 -0.440684,-0.06806 -0.359463,-0.0782 -0.524494,-0.09857 -0.863984,-0.231092 -0.117287,-0.04578 -0.449567,-0.225923 -0.341677,-0.161018 5.450059,3.278659 3.701269,2.330072 2.651955,1.482604 -0.516458,-0.406752 -1.009576,-0.838518 -1.437349,-1.340491 -0.05302,-0.05074 -0.416528,-0.396226 -0.467074,-0.454085 -0.06719,-0.07691 -0.11697,-0.167823 -0.183163,-0.245587 C 89.521254,93.174127 89.290781,93.007048 89.146905,92.765955 88.685014,92.234878 88.244637,91.684531 87.807534,91.133473 87.183366,90.368827 86.536016,89.622115 85.802488,88.95868 85.552832,88.732525 85.201031,88.405762 84.937491,88.2014 84.778034,88.07775 84.607275,87.969395 84.44349,87.851539 83.947327,87.494513 83.47212,87.106557 82.945292,86.794153 82.672237,86.587839 82.390601,86.392711 82.122991,86.179383 81.72543,85.862462 81.366407,85.490347 80.912723,85.248441 80.389666,84.8745 79.880988,84.486769 79.386098,84.075752 79.142944,83.876055 78.904427,83.723986 78.633695,83.566268 77.273752,82.77401 75.98979,81.908286 74.580019,81.237683 c 1.071441,0.619747 2.14862,1.229686 3.214328,1.859241 0.05226,0.03087 -0.117266,-0.03409 -0.171358,-0.06164 -0.135289,-0.06891 -0.234019,-0.194705 -0.338151,-0.300911 -0.024,-0.02447 -0.0479,-0.04907 -0.07185,-0.07361 -0.171503,0.12786 -0.120105,0.07131 -0.274685,0.308576 -0.108712,0.16686 0.241398,0.16175 0.345477,0.210934 0.425579,0.115281 0.856837,0.213307 1.293458,0.276325 0.782354,0.123542 1.570423,0.189236 2.363581,0.155181 1.066138,-0.01635 2.136484,-0.01969 3.195031,-0.163089 0.998072,-0.140055 2.000105,-0.298712 2.96825,-0.584049 0.481348,-0.22424 0.903504,-0.549717 1.274008,-0.930042 0.655669,-0.738029 1.353931,-1.433002 2.028582,-2.153179 0.726699,-0.763839 1.467215,-1.51524 2.219444,-2.253774 0.537432,-0.484471 1.076317,-0.966227 1.672209,-1.379331 0.434607,-0.335989 0.893913,-0.641554 1.387533,-0.884751 0.484817,-0.215239 0.98748,-0.372658 1.49756,-0.51675 0.512572,-0.164131 1.020979,-0.362685 1.561171,-0.413115 0.820743,-0.07243 1.644953,-0.07605 2.467763,-0.113083 0.90421,-0.02283 1.81706,-0.02692 2.69253,0.236649 0.6689,0.207954 1.33474,0.432046 1.96579,0.739298 -1.04268,-0.606062 -2.08734,-1.208714 -3.12802,-1.818184 -0.0829,-0.04856 0.17187,0.08631 0.25451,0.135334 0.32504,0.192804 0.63467,0.415901 0.91828,0.665491 0.40964,0.336026 0.86387,0.622855 1.12915,1.099457 0.41557,0.437319 0.84715,0.85448 1.1693,1.370036 0.44521,0.609431 0.92223,1.196642 1.39717,1.782038 0.43645,0.537109 0.80767,1.121476 1.28695,1.623533 0.12856,0.150083 0.16584,0.209638 0.31947,0.329404 0.0538,0.04195 0.1183,0.06937 0.17043,0.113387 0.046,0.03885 0.0702,0.102447 0.12183,0.133406 3.31737,1.988209 2.28388,1.579774 3.7267,2.134737 0.48548,0.165159 0.9927,0.222033 1.50491,0.201377 0.61131,5.3e-4 1.22289,0.004 1.8336,0.03395 0.59371,0.03621 1.18384,0.109526 1.77745,0.1462 0.69788,0.036 1.39592,0.104871 2.07096,0.29599 0.7337,0.201324 1.46623,0.414046 2.22065,0.524552 0.83844,0.17004 1.68158,0.309896 2.52658,0.443585 0.27785,0.04995 0.56079,0.09573 0.83531,0.163544 0.10458,0.02582 0.40182,0.146664 0.31052,0.08949 -1.02279,-0.640527 -4.40876,-1.372952 -2.93552,-2.030561 -0.58995,0.399545 -1.27143,0.629166 -1.91769,0.918808 -0.74092,0.309594 -1.46443,0.65518 -2.16384,1.050946 -1.01029,0.556803 -2.00093,1.144694 -2.96675,1.776034 -0.83318,0.510794 -1.66056,1.03083 -2.50975,1.514793 -0.4723,0.257516 -0.94154,0.51947 -1.39133,0.814927 -0.45182,0.296542 -0.84797,0.661871 -1.27778,0.988431 -0.44003,0.374734 -0.85122,0.805113 -1.41357,0.99184 -0.5032,0.185217 -1.01792,0.345586 -1.54557,0.444429 -0.36436,0.08091 -0.72781,0.137388 -1.10025,0.162666 -0.32084,0.05781 -0.62535,0.158099 -0.92081,0.296682 -0.3353,0.151236 -0.6709,0.30234 -0.99796,0.470916 -0.52777,0.267473 -1.05218,0.544029 -1.54875,0.866733 -0.61034,0.35927 -1.23034,0.700614 -1.81861,1.096597 -0.43193,0.252429 -0.87006,0.500589 -1.27451,0.795314 -0.40647,0.320545 -0.832293,0.608439 -1.126367,1.049152 -0.502332,0.61358 -0.886854,1.301163 -1.165294,2.044843 -0.28938,0.781632 -0.533267,1.57172 -0.655335,2.3991 -0.07078,0.44503 -0.09629,0.89262 -0.176261,1.33506 -0.07178,0.22746 -0.186814,0.455 -0.342492,0.63565 -0.03041,0.0321 -0.05842,0.0666 -0.09123,0.0963 -0.03084,0.0279 -0.227957,-0.1654 -0.263033,-0.12885 1.081292,0.63078 2.16258,1.26155 3.243871,1.89233 -0.35284,-0.26204 0.106541,0.0664 -0.289451,-0.17377 -0.256194,-0.15538 -0.411583,-0.41417 -0.592315,-0.64376 -0.386897,-0.33328 -0.719891,-0.70833 -1.025655,-1.11671 -0.446971,-0.45476 -0.882351,-0.91818 -1.255204,-1.43693 -0.09379,-0.11082 -0.320522,-0.37043 -0.397976,-0.49502 -0.202123,-0.325119 -0.338965,-0.692623 -0.560017,-1.007546 -0.09084,-0.22044 -0.166486,-0.458965 -0.275402,-0.671176 -0.08748,-0.170455 -0.17535,-0.259064 -0.273465,-0.426382 -0.05469,-0.09327 -0.10041,-0.191508 -0.150612,-0.28726 -0.458134,-0.800169 -0.726776,-1.70316 -1.112993,-2.539042 z" />
    <path
       style="fill:#4d4d4d;stroke-width:0.264583"
       id="path18"
       d="m 85.048883,92.912532 c -1.468311,0.110956 -2.94409,-0.04116 -4.393229,-0.27568 -0.936525,-0.109916 -1.802564,-0.406223 -2.596555,-0.908473 6.565424,3.148883 3.491013,2.293136 2.553026,1.4064 -0.08153,-0.07707 -0.292561,-0.319148 -0.361194,-0.396557 -0.348273,-0.396383 -0.736756,-0.74917 -1.15385,-1.070867 -1.173123,-0.966896 -2.50742,-1.535128 -3.898887,-2.30306 -0.05877,-0.03244 -0.133575,-0.01738 -0.198289,-0.03525 -0.130678,-0.03607 -0.199509,-0.08479 -0.315423,-0.150884 -1.164696,-0.83683 -0.07241,-0.04471 3.095013,1.766212 0.05464,0.03124 -0.103235,-0.07204 -0.155564,-0.107013 -0.134321,-0.08976 -0.260443,-0.1866 -0.392353,-0.279765 -1.087475,-1.015005 -2.031937,-1.269143 -3.749577,-2.211591 -0.04997,-0.02742 -0.114388,-0.004 -0.170331,-0.01487 -0.09302,-0.0181 -0.268068,-0.08996 -0.351126,-0.121735 -0.455274,-0.219599 -0.939557,-0.395824 -1.378051,-0.64675 -0.06661,-0.02622 -0.136842,-0.04464 -0.199816,-0.07868 -0.06321,-0.03416 -0.114048,-0.08805 -0.175998,-0.124447 -0.0663,-0.03895 -0.273963,-0.13943 -0.207465,-0.100833 1.003078,0.582248 4.025342,2.306373 3.020084,1.727904 -1.203973,-0.692819 -2.409822,-1.382369 -3.614732,-2.07355 -0.374566,-0.273286 -0.824116,-0.360863 -1.25417,-0.50029 -0.592011,-0.226555 -1.196351,-0.422942 -1.773825,-0.68516 -0.10823,-0.04242 -0.215762,-0.08665 -0.324686,-0.127251 -0.372197,-0.138719 -0.278125,-0.0752 -0.619347,-0.265748 -0.09109,-0.05087 -0.357952,-0.214482 -0.267396,-0.162668 3.02115,1.728666 4.161213,2.443165 2.847168,1.624782 -0.69922,-0.430241 -1.3798,-0.88587 -2.029963,-1.387025 -0.54275,-0.45194 -1.094965,-0.903208 -1.536763,-1.457452 -0.272984,-0.41488 -0.590445,-0.805617 -0.799508,-1.257961 -0.130333,-0.390086 -0.183422,-0.80018 -0.144547,-1.20908 0.01767,-0.355267 0.120685,-0.693574 0.199327,-1.037601 0.05858,-0.217402 0.142708,-0.42205 0.330536,-0.554 0.428617,-0.188947 0.873135,-0.332454 1.302086,-0.520938 0.452093,-0.161161 0.889608,-0.408004 1.162777,-0.811403 0.230344,-0.517597 -0.196977,-0.770864 -0.550958,-1.060059 -0.06963,-0.05074 -0.134612,-0.108593 -0.208909,-0.15223 -1.216229,-0.714309 -2.438067,-1.419056 -3.661516,-2.120929 -0.1,-0.05737 -0.408099,-0.214445 -0.308401,-0.156552 1.024075,0.594686 2.053259,1.180534 3.081967,1.767171 0.111281,0.06346 -0.219834,-0.131593 -0.329623,-0.197599 -0.107021,-0.06434 -0.213876,-0.128963 -0.320813,-0.193445 -0.462274,-0.322762 -0.97287,-0.574352 -1.425702,-0.910971 -0.314523,-0.233804 -0.415358,-0.34835 -0.697917,-0.620347 -0.57135,-0.588415 -1.092756,-1.220301 -1.457095,-1.957612 -0.196538,-0.503674 -0.329806,-0.598628 0.239953,-0.71722 0.07408,0.0013 0.148836,-0.0059 0.222242,0.0042 0.102489,0.01408 0.201552,0.0468 0.302824,0.06792 0.5018,0.104613 1.002786,0.200443 1.502568,0.315484 0.768443,0.137681 1.547543,0.210875 2.324069,0.288448 0.700315,0.06096 1.402995,0.08248 2.105654,0.08877 0.701551,-0.0049 1.397683,-0.01339 2.093778,0.08172 0.695925,0.07445 1.375561,0.240543 2.067541,0.339839 0.447829,0.08831 0.91064,0.02708 1.356596,0.109246 0.353954,0.062 0.714576,0.145235 1.072171,0.08257 0.349837,-0.0024 0.611518,-0.212895 0.919025,-0.340273 0.327702,-0.21985 0.699934,-0.332092 1.072959,-0.451006 0.443222,-0.07622 0.841724,-0.287748 1.274752,-0.400254 0.383543,-0.139324 0.733359,-0.355433 1.108416,-0.513498 0.361818,-0.170283 0.694211,-0.387281 0.98688,-0.6595 0.333756,-0.318299 0.586306,-0.711833 0.788017,-1.123961 0.175757,-0.324551 0.395195,-0.623363 0.616127,-0.918173 0.260839,-0.337317 0.493646,-0.690033 0.760309,-1.023535 0.402233,-0.649243 0.868572,-1.255223 1.310889,-1.877089 0.568095,-0.787281 1.122169,-1.584648 1.705277,-2.361245 0.443362,-0.624623 0.950981,-1.19689 1.488932,-1.740456 0.381116,-0.41648 0.844854,-0.72527 1.333486,-0.999064 0.429649,-0.297867 0.836412,-0.615383 1.327968,-0.802465 0.460438,-0.154554 0.897853,-0.360839 1.344181,-0.552471 0.410615,-0.308822 0.90433,-0.435359 1.378318,-0.608171 0.569346,-0.262581 1.155327,-0.443617 1.773444,-0.541137 0.493638,-0.06876 0.980614,-0.166796 1.478648,-0.204761 0.51885,-0.06776 1.001281,-0.242205 1.469405,-0.469566 0.535139,-0.25735 1.029944,-0.36602 1.472981,-0.784294 0.260662,-0.308613 0.217802,-0.67187 0.152196,-1.040088 -0.13244,-0.477499 -0.125259,-0.976294 -0.159732,-1.466635 -0.03883,-0.426691 -0.05843,-0.854665 -0.07052,-1.282835 -0.02764,-0.57318 -0.01138,-1.142686 0.06763,-1.710868 0.06978,-0.486889 0.174355,-0.96484 0.356053,-1.42222 0.197429,-0.487397 0.51132,-0.899977 0.869299,-1.280575 0.464696,-0.470313 0.965956,-0.902351 1.468106,-1.331979 0.43052,-0.309864 0.85986,-0.602252 1.37606,-0.740494 0.58302,-0.09014 1.16536,-0.223121 1.75819,-0.195866 0.0603,0.0081 0.12652,-0.0029 0.18091,0.02437 0.0314,0.01577 0.0818,0.109781 0.0514,0.09214 -1.13693,-0.659043 -2.22344,-1.406052 -3.38341,-2.023626 -0.0595,-0.03169 -0.0852,0.105423 -0.1358,0.14999 -0.15464,0.136154 -0.32922,0.247864 -0.49223,0.373877 -0.4565,0.344003 -0.897869,0.709369 -1.291516,1.124344 -0.300675,0.27881 -0.454033,0.634101 -0.568788,1.017903 -0.197353,0.569359 -0.391284,1.140153 -0.579821,1.712968 -0.184441,0.676708 -0.359876,1.357841 -0.500105,2.045438 -0.104743,0.46288 -0.240472,0.91627 -0.328165,1.382971 -0.08594,0.515382 -0.122563,1.029854 -0.03149,1.545321 0.122555,0.602906 0.376351,1.156028 0.734854,1.652508 0.320254,0.464015 0.7298,0.80786 1.203597,1.103003 1.575864,1.358847 3.355274,1.872517 5.111544,2.731994 1.20907,0.676326 3.00792,1.670341 -2.60764,-1.505439 -0.0843,-0.04767 0.16224,0.105902 0.2405,0.16293 0.14429,0.105143 0.3188,0.254191 0.45541,0.367872 1.51144,1.280959 3.32846,2.137383 5.03222,3.121125 1.52272,0.879356 -1.98145,-1.144481 -2.88784,-1.660429 -0.0694,-0.03953 0.13322,0.08826 0.19975,0.132511 0.14864,0.09886 0.28787,0.206732 0.43239,0.311224 1.11238,1.038034 2.46416,1.546661 3.86485,2.336384 0.19625,0.04273 0.10735,0.0068 0.269,0.101802 0.0258,-0.08497 0.57387,0.268946 0.54165,0.250438 -1.06167,-0.60974 -4.25605,-2.422355 -3.18515,-1.828974 7.40581,4.103534 2.17086,1.292862 3.86645,2.202357 0.19883,0.14632 0.42664,0.235646 0.64804,0.33846 0.0646,0.02998 0.25204,0.132316 0.19038,0.09675 -3.55353,-2.04973 -4.28209,-2.513791 -3.04932,-1.735177 1.88198,1.217168 7.91859,4.5071 1.00452,0.60271 -0.15115,-0.08535 0.28761,0.194461 0.42993,0.293841 0.40418,0.284866 0.80674,0.572698 1.22034,0.843865 1.44474,0.89332 2.83573,2.043631 4.51128,2.437913 0.50052,0.09712 0.2536,0.044 0.7409,0.158803 0.91683,0.257439 1.82859,0.523324 2.75245,0.757478 1.309,0.339796 2.6149,0.684106 3.94082,0.954005 0.99187,0.170498 1.97944,0.365141 2.97444,0.516877 0.51434,0.05858 0.98315,0.283491 1.47937,0.411284 0.25864,0.06661 0.62452,0.133575 0.88753,0.184597 0.91308,0.169334 1.81037,0.412057 2.71915,0.601425 0.98097,0.219189 1.96647,0.4182 2.9651,0.536599 1.6588,0.101012 3.30917,0.294497 4.96119,0.46927 1.08288,0.113509 2.1808,0.188489 3.26575,0.06287 0.2912,-0.06492 0.58212,-0.133527 0.87026,-0.211146 0.10274,-0.02768 0.2704,-0.09126 0.29085,-0.06072 0.0218,0.03254 -0.0196,0.07582 -0.0294,0.113734 -3.80306,-2.482186 -2.52534,-2.872169 -4.41325,-1.258766 -0.54336,0.511085 -1.17751,0.908941 -1.73662,1.400341 -0.4315,0.371827 -0.92383,0.658308 -1.38718,0.984862 -0.0933,0.0429 -0.2259,0.165515 -0.33516,0.08507 -0.016,-0.01177 -0.0125,-0.04604 -0.0319,-0.05038 -9e-5,-2.1e-5 -0.0956,0.05499 -0.10048,0.05779 -0.0144,5.3e-4 -0.0309,-0.0058 -0.0431,0.0019 -0.17218,0.106344 -0.31486,0.254075 -0.49576,0.352359 -0.1684,0.09149 -0.36369,0.159182 -0.54161,0.22728 -0.55952,0.219496 -1.13009,0.403307 -1.72334,0.502714 -0.37714,0.05018 -0.76569,0.04546 -1.13748,0.135429 -0.18979,0.04593 -0.37168,0.119888 -0.55765,0.179422 -0.20401,0.07402 -0.42446,0.07098 -0.63235,0.125352 -0.0728,0.01902 -0.74117,0.256262 -0.79077,0.272296 -0.31581,0.102097 -0.63501,0.193434 -0.95134,0.293888 -0.18474,0.05673 -0.37137,0.107628 -0.5542,0.170196 -0.0425,0.01455 -1.1837,0.444924 -1.21273,0.455462 -0.67186,0.243909 -1.34944,0.473673 -2.02492,0.707258 -0.89389,0.309779 -1.7706,0.66671 -2.66794,0.966385 -0.45121,0.168304 -0.93884,0.138814 -1.40172,0.235199 -0.48427,0.08218 0.0853,-0.02556 -0.39144,0.100033 -0.0791,0.02082 -0.16943,0.0019 -0.2421,0.0393 -0.0261,0.01347 -0.0846,0.04846 -0.06,0.06452 1.17619,0.767696 2.38353,1.486588 3.5753,2.229882 0.79561,-0.102849 1.58897,-0.06146 2.38074,0.04043 0.60688,0.09516 1.22053,0.122259 1.83371,0.134827 0.88618,-0.07628 1.76865,-0.188968 2.65584,-0.258617 0.56669,-0.12178 1.15516,-0.122066 1.71574,-0.262993 0.65174,-0.237882 1.34007,-0.345014 2.00969,-0.519142 0.53334,-0.145029 1.079,-0.215543 1.62943,-0.245893 0.42296,-0.0028 0.85036,-0.04334 1.26949,0.02278 0.6857,0.169183 1.33746,0.459807 1.97306,0.763609 1.54716,0.901682 -1.1039,-0.644668 -2.72816,-1.555337 -0.1,-0.05607 0.19022,0.128061 0.28467,0.19305 0.21815,0.150096 0.43361,0.301517 0.64136,0.465606 0.37972,0.329555 0.62426,0.768673 0.8584,1.205654 0.34186,0.681267 0.47499,1.436007 0.603,2.179994 0.13903,0.787326 0.19898,1.585119 0.23095,2.383041 0.0299,0.663917 -0.19727,1.27389 -0.4722,1.864966 -0.3291,0.688012 -0.74249,1.331627 -1.15578,1.971477 -0.39897,0.696791 -0.95891,1.255823 -1.53698,1.801773 -0.58611,0.605327 -1.33296,0.999453 -2.02878,1.457415 -0.62683,0.332345 -1.22499,0.721894 -1.85414,1.049617 -0.38616,0.201145 -0.72325,0.335532 -1.12402,0.506447 -1.13446,0.458931 -2.27773,0.884727 -3.46303,1.1917 -1.35192,0.349488 -2.73232,0.562951 -4.10571,0.80591 -1.07351,0.193675 -2.16263,0.254928 -3.25091,0.2872 -0.91847,0.01736 -1.83721,0.01564 -2.75582,0.0159 -1.05881,7.94e-4 -2.11761,-6.3e-5 -3.17641,-0.0057 -0.67035,-0.03926 -1.33364,-0.157351 -1.99229,-0.284401 -0.68767,-0.08499 -1.34168,-0.317246 -2.02246,-0.439161 -0.49607,-0.05101 -0.96332,-0.247293 -1.41456,-0.448524 0,0 3.12289,2.464247 3.12289,2.464247 v 0 c 0.46661,0.183764 0.95743,0.298683 1.45205,0.377217 0.67366,0.149539 1.33871,0.338883 2.02426,0.430956 0.66963,0.112376 1.34102,0.231558 2.02309,0.219847 1.05678,-0.0042 2.11355,-0.0026 3.17033,0.0013 0.92246,0.0021 1.84523,0.0096 2.76723,-0.02643 1.09582,-0.04975 2.19092,-0.13245 3.26985,-0.340976 1.37894,-0.248852 2.7616,-0.48614 4.11978,-0.835218 1.19718,-0.323176 2.35389,-0.7639 3.4989,-1.2386 1.04891,-0.461478 2.04476,-1.019508 3.03398,-1.597014 0.72312,-0.458129 1.46373,-0.900134 2.0652,-1.519695 0.60228,-0.567227 1.17519,-1.156436 1.59106,-1.880108 0.42381,-0.654254 0.84662,-1.312762 1.18431,-2.016504 0.30511,-0.642456 0.57086,-1.30639 0.56601,-2.030547 -0.0346,-0.813919 -0.0898,-1.627889 -0.21774,-2.433259 -0.13201,-0.772091 -0.2404,-1.553729 -0.53935,-2.284561 -0.23069,-0.461811 -0.45138,-0.935143 -0.79526,-1.326102 -0.1959,-0.213328 -0.39739,-0.355243 -0.63407,-0.521224 -0.0954,-0.06688 -0.18167,-0.147076 -0.28172,-0.206698 -3.39179,-2.021128 -2.45306,-1.542531 -4.05277,-2.340887 -0.66499,-0.288931 -1.34294,-0.597565 -2.07221,-0.670153 -0.43601,-0.01164 -0.87272,-0.0016 -1.30773,0.03113 -0.56028,0.05633 -1.11239,0.16011 -1.65599,0.308512 -0.66952,0.161446 -1.34258,0.307782 -2.00436,0.499468 -0.55939,0.08085 -1.11976,0.155498 -1.67934,0.235 -0.87741,0.08316 -1.75399,0.213577 -2.6364,0.214749 -0.60652,-0.02675 -1.2106,-0.078 -1.81261,-0.157935 -0.80793,-0.07604 -1.61517,-0.05385 -2.42395,0.0058 1.00023,0.752427 2.00982,1.492572 3.00069,2.257282 0.0124,0.0096 -0.0371,0.03778 -0.0219,0.04161 0.0967,0.02437 0.50139,-0.181132 0.61391,-0.130485 0.48546,-0.053 0.96767,-0.132347 1.42824,-0.302077 0.87988,-0.321104 1.74582,-0.678498 2.62866,-0.991767 1.26648,-0.440079 2.5239,-0.909204 3.80328,-1.309428 0.79541,-0.240517 1.58363,-0.503032 2.39789,-0.67305 0.54778,-0.157644 1.10971,-0.201015 1.67208,-0.282377 0.60398,-0.136498 1.1906,-0.334788 1.76403,-0.568251 0.28149,-0.122806 0.317,-0.129995 0.58499,-0.279998 0.0334,-0.01865 0.30236,-0.190391 0.36975,-0.214521 0.0348,-0.01246 0.0776,0.03423 0.11077,-0.0063 0.0128,0.0095 0.0105,0.04162 0.0263,0.03979 0.18501,-0.02154 0.35449,-0.200633 0.51234,-0.279841 0.47708,-0.327417 0.9586,-0.649468 1.39873,-1.026997 0.56519,-0.480983 1.18287,-0.897146 1.73234,-1.39768 0.24676,-0.206438 0.49154,-0.414229 0.73371,-0.626009 1.28233,-1.121455 0.56006,-0.315394 -2.81431,-2.68669 -0.33114,0.256167 -0.82858,0.240916 -1.21936,0.337677 -1.06085,0.07883 -2.12323,0.02122 -3.17955,-0.09656 -1.65681,-0.166463 -3.31293,-0.338733 -4.97105,-0.491286 -0.99458,-0.147955 -1.97916,-0.355026 -2.96062,-0.572971 -0.90635,-0.204111 -1.80975,-0.422225 -2.72191,-0.599398 -0.79937,-0.177795 -1.56882,-0.469273 -2.38222,-0.582258 -0.98222,-0.15567 -1.96047,-0.336423 -2.93867,-0.515348 -1.32299,-0.283315 -2.62799,-0.633465 -3.93697,-0.974259 -0.92913,-0.244554 -1.844,-0.537011 -2.77706,-0.76572 -0.35677,-0.08416 -0.71149,-0.164632 -1.04914,-0.311684 -0.10139,-0.04416 -0.39251,-0.203544 -0.29718,-0.14749 2.36309,1.389505 4.25717,2.439437 2.93838,1.707264 -0.41108,-0.275524 -0.81933,-0.549264 -1.2278,-0.82718 -1.2627,-0.965425 -2.64275,-1.610339 -4.0647,-2.43768 -0.0873,-0.05081 -0.3528,-0.197065 -0.26555,-0.146135 1.04488,0.609854 2.09169,1.216398 3.13849,1.822955 0.0797,0.04619 -0.15812,-0.09454 -0.23719,-0.141816 -1.39524,-1.083668 -3.04179,-1.784599 -4.57873,-2.643056 -0.0782,-0.04099 -0.31077,-0.167452 -0.23453,-0.12297 1.05356,0.614683 4.23277,2.426401 3.1667,1.833695 -1.48395,-0.825027 -2.68761,-1.727949 -4.18041,-2.326828 -0.0883,-0.03105 -0.33568,-0.165272 -0.25478,-0.11816 5.71607,3.32908 4.02929,2.504196 2.92575,1.663112 -0.17583,-0.192492 -0.39814,-0.371017 -0.62308,-0.503658 -3.13181,-1.846757 -2.44471,-1.455354 -3.88819,-2.274054 6.27382,3.636534 3.27155,1.988865 2.20473,1.236623 -0.14167,-0.09989 -0.34355,-0.272955 -0.47851,-0.385763 -0.20975,-0.170846 -0.4505,-0.43874 -0.67728,-0.574315 -1.36649,-0.816951 -2.74662,-1.689261 -4.18744,-2.402168 -1.416362,-0.657892 -4.377793,-1.972304 1.68956,1.160635 -0.47385,-0.258895 -0.95606,-0.503426 -1.2539,-0.975985 -0.40768,-0.416716 -0.66389,-0.906724 -0.81588,-1.469919 -0.0325,-0.148669 -0.0889,-0.293211 -0.10316,-0.444719 -0.0301,-0.319993 0.0542,-0.650868 0.0699,-0.969055 0.0774,-0.468099 0.21724,-0.918091 0.32417,-1.379699 0.11778,-0.675931 0.28584,-1.343234 0.46227,-2.005701 0.19259,-0.574206 0.39193,-1.145079 0.60545,-1.711298 0.10011,-0.327864 0.20175,-0.625015 0.47334,-0.858012 0.38141,-0.397748 0.80351,-0.752975 1.24578,-1.081387 0.0644,-0.04942 0.81901,-0.612701 0.74099,-0.681024 -3.75908,-3.291895 -1.87344,-2.413122 -3.52591,-2.375463 -0.61544,0.04695 -1.231346,0.133545 -1.828156,0.29343 -0.533173,0.206658 -1.005592,0.522031 -1.453849,0.875242 -0.510188,0.442603 -1.02,0.88745 -1.493636,1.369467 -0.382098,0.421201 -0.728035,0.870408 -0.947952,1.398945 -0.202316,0.483254 -0.319661,0.988872 -0.392615,1.507527 -0.100819,0.585499 -0.127116,1.174261 -0.107487,1.767991 0.0044,0.435914 0.01992,0.871511 0.05963,1.305835 0.0488,0.505664 0.0353,1.017606 0.127882,1.51684 0.02588,0.08425 0.14996,0.49743 0.117758,0.579094 -0.01342,0.03406 -0.04304,0.05923 -0.06455,0.08884 -0.402792,0.34032 -0.941237,0.438065 -1.398202,0.687409 -0.448394,0.189053 -0.913053,0.319865 -1.400249,0.35905 -0.49979,0.06036 -0.99346,0.158123 -1.49045,0.237384 -0.626124,0.132252 -1.219087,0.352835 -1.811849,0.591667 -0.484409,0.169137 -0.955032,0.356002 -1.395338,0.623533 -0.448683,0.185451 -0.886822,0.393948 -1.344914,0.556376 -0.482336,0.231526 -0.902806,0.555646 -1.351759,0.843947 -0.506513,0.306938 -0.984284,0.64793 -1.382966,1.091575 -0.548508,0.557922 -1.045279,1.161664 -1.50408,1.795627 -0.576723,0.783735 -1.137581,1.578761 -1.710534,2.364999 -0.445836,0.611124 -0.901983,1.215258 -1.318614,1.846935 -0.273931,0.335354 -0.511419,0.692753 -0.776015,1.034819 -0.231045,0.318355 -0.473313,0.63237 -0.652532,0.983925 -0.171476,0.368514 -0.398716,0.714407 -0.707117,0.983247 -0.282908,0.227113 -0.583742,0.422116 -0.919332,0.56419 -0.354499,0.169111 -0.704924,0.354973 -1.082791,0.467198 -0.425204,0.14283 -0.841243,0.310603 -1.279176,0.413605 -0.38037,0.134387 -0.750422,0.281704 -1.102561,0.479978 -0.269613,0.132479 -0.524642,0.232127 -0.833451,0.218908 -0.344667,-0.03324 -0.685482,-0.09192 -1.029287,-0.131934 -0.448091,-0.01947 -0.89661,-0.04149 -1.339575,-0.117393 -0.687292,-0.112874 -1.370364,-0.253209 -2.064994,-0.317423 -0.707556,-0.06177 -1.415814,-0.05309 -2.125569,-0.05791 -0.693386,-0.0145 -1.387086,-0.03779 -2.077242,-0.110755 -0.769593,-0.08102 -1.542409,-0.160022 -2.298842,-0.328046 -0.550511,-0.120171 -1.342705,-0.337865 -1.897375,-0.282416 -0.09324,0.0093 -0.182319,0.04334 -0.273479,0.06502 -0.321572,0.149783 -0.676539,0.370776 -0.694692,0.776052 -0.0038,0.08507 0.121729,0.454287 0.142274,0.519062 0.329999,0.793303 0.836155,1.464924 1.418169,2.094211 0.170381,0.179729 0.482907,0.518412 0.671214,0.68117 0.430493,0.372086 0.95291,0.595757 1.406223,0.933731 1.42012,0.883163 2.912034,1.705496 4.343728,2.53139 0.100399,0.05792 0.404482,0.226528 0.304417,0.16804 -1.038249,-0.606862 -2.079559,-1.208474 -3.119049,-1.813206 -0.07291,-0.04242 0.146214,0.08418 0.219321,0.126262 0.197252,0.137237 0.458576,0.406625 0.687512,0.473138 0.03241,0.0094 0.06926,-0.0071 0.101174,0.0039 0.01225,0.0042 0.0098,0.024 0.01474,0.036 -0.225689,0.339037 -0.673094,0.468807 -1.026578,0.624411 -0.467574,0.187074 -0.963604,0.330312 -1.382858,0.616644 -0.225488,0.217723 -0.372284,0.476009 -0.458634,0.778584 -0.07127,0.358092 -0.193243,0.70458 -0.213423,1.072007 -0.06455,0.462171 -0.04086,0.917392 0.07033,1.373158 0.144721,0.562115 0.462658,0.88428 0.754959,1.37138 0.0758,0.108186 0.288674,0.417508 0.371007,0.511308 0.340018,0.387358 0.778512,0.684559 1.140216,1.050033 0.643065,0.507161 1.293125,1.006324 2.008254,1.408361 1.595893,1.154838 3.327633,2.126139 5.162965,2.831664 0.59494,0.234479 1.195041,0.457679 1.801474,0.66059 0.428776,0.134758 0.826381,0.327134 1.213456,0.555128 -1.062072,-0.616649 -2.122207,-1.236642 -3.186213,-1.849946 -0.06623,-0.03817 0.126548,0.08601 0.192638,0.124421 1.260417,0.732509 2.490459,1.521301 3.787833,2.186164 0.128077,0.06564 0.265292,0.112522 0.389747,0.185756 0.469821,0.204579 0.923788,0.447892 1.413277,0.604735 0.122912,0.03677 0.249944,0.06097 0.369748,0.10687 0.04619,0.0177 0.174455,0.09327 0.131691,0.06841 -5.615975,-3.264625 -4.203634,-2.474275 -3.056642,-1.770472 0.151194,0.165287 0.340117,0.320815 0.533631,0.43476 3.560587,2.09654 2.302298,1.526339 3.723841,2.162088 0.113384,0.03978 0.230526,0.06927 0.34168,0.114911 0.05617,0.02307 0.215101,0.112612 0.162671,0.08198 -5.688055,-3.323129 -4.034539,-2.411277 -2.893073,-1.664665 0.393459,0.339992 0.843999,0.614904 1.179287,1.021683 0.181534,0.187719 0.32402,0.401299 0.500462,0.591285 1.070981,1.153187 3.864793,0.390049 4.045067,2.422062 0.831622,0.428869 1.72199,0.663041 2.652654,0.766154 1.480905,0.20024 2.976798,0.323829 4.47177,0.235662 z" />
    <path
       style="fill:#ff0000;stroke-width:0.264583"
       id="path19"
       d="m 92.119938,85.343578 c -0.908571,-0.03246 -1.813835,-0.118065 -2.722536,-0.06209 -0.24334,0.0356 -0.493493,0.02289 -0.736801,0.0565 -0.199284,0.02754 -0.314396,0.0803 -0.506383,0.01048 -0.764334,-1.155557 -0.02236,-0.0024 3.226676,1.794047 0.03877,0.02143 -0.05242,-0.07193 -0.07237,-0.111498 -0.06298,-0.124949 -0.0704,-0.261982 -0.08112,-0.398314 -0.02622,-0.263311 0.04154,-0.476425 0.209315,-0.67686 0.212614,-0.239752 0.350668,-0.538072 0.606401,-0.735896 0.249592,-0.135133 0.540231,-0.128667 0.816467,-0.133802 0.298852,0.02082 0.6326,-0.09077 0.860539,0.13267 0.105246,0.06827 0.214905,0.131077 0.325884,0.189616 0.04254,0.02244 0.174498,0.08026 0.132895,0.05614 -3.672684,-2.129332 -4.348908,-2.566585 -3.179921,-1.815462 1.347946,0.909153 2.724917,1.852694 4.242821,2.454262 1.164305,0.817298 0.11507,0.07493 -3.130404,-1.791327 -0.04386,-0.02522 0.08794,0.05071 0.127926,0.08172 0.122902,0.09531 0.2355,0.216792 0.348446,0.323668 0.215156,0.175659 0.438319,0.343236 0.634746,0.53989 1.291015,1.050242 2.729505,2.107033 4.331932,2.550284 0.147421,0.05402 0.08894,0.01849 0.183706,0.09165 -1.120479,-0.780113 -2.224945,-1.583745 -3.361436,-2.34034 -0.04166,-0.02773 -0.100536,0.0094 -0.150119,0.0026 -0.104651,-0.01437 -0.203827,-0.05607 -0.307187,-0.07786 -0.37384,-0.117488 -0.721421,-0.229142 -1.044453,-0.456187 -0.05703,-0.03219 -0.227788,-0.129333 -0.171093,-0.09656 1.034182,0.597778 4.141465,2.382785 3.110899,1.778794 -1.176961,-0.68979 -2.35245,-1.382252 -3.537809,-2.057509 -0.197673,-0.05824 -0.108657,-0.01603 -0.269587,-0.121097 -1.977067,-1.041236 4.202803,2.53305 2.798797,1.626198 0,0 -3.71634,-1.435089 -3.71634,-1.435089 v 0 c 1.346298,0.759076 2.646135,1.603518 4.023775,2.302766 1.114703,0.454885 4.372094,2.502755 -3.004174,-1.768549 -0.04864,-0.02816 0.09258,0.06391 0.140983,0.09247 3.070601,1.811587 2.381372,1.416344 3.715729,2.179889 0.360161,0.165227 0.747903,0.275998 1.138883,0.338582 2.040136,0.161923 -1.272379,-2.082739 -2.680459,-2.51815 -1.255432,-0.665935 -0.110252,-0.06081 3.103451,1.805252 0.288475,0.167505 -0.952968,-0.543767 -0.617485,-0.394653 -0.216228,-0.169336 -0.406405,-0.392784 -0.625832,-0.564488 -0.130794,-0.08192 -0.255691,-0.178332 -0.3615,-0.292103 -0.03925,-0.0422 -0.05765,-0.105989 -0.106937,-0.135858 -3.140493,-1.903188 -2.306317,-1.525977 -3.689453,-2.140157 -1.208085,-0.645247 -2.592903,-1.501425 2.948509,1.728899 0.03957,0.02307 -0.12705,-0.04674 -0.264517,-0.170606 -0.03454,-0.03112 -0.06345,-0.06798 -0.09517,-0.10197 -1.376072,-0.773409 -2.676705,-1.70764 -4.127,-2.329384 -0.321083,-0.01805 -0.644292,-0.0043 -0.96516,0.01323 -0.350049,0.03851 -0.688293,0.113834 -0.962039,0.351854 -0.246872,0.240096 -0.425743,0.531053 -0.643776,0.796337 -0.206547,0.272873 -0.356896,0.569667 -0.344112,0.921639 -0.007,1.721025 1.159272,3.033763 3.683686,2.879995 0.418298,-0.05186 0.836117,-0.105614 1.258051,-0.122394 0.89929,-0.03457 1.797981,0.04354 2.695289,0.09568 z" />
    <path
       style="fill:#ff0000;stroke-width:0.264583"
       id="path20"
       d="m 104.13411,87.66354 c 0.58005,-0.686813 1.23482,-1.301472 1.86106,-1.943846 0.38066,-0.353139 0.71763,-0.749819 1.10406,-1.096743 0.39878,-0.233735 0.741,-0.543446 1.10033,-0.830455 0.40728,-0.298916 0.45717,-0.233604 0.87964,-0.105291 0.27126,0.173603 0.59164,0.21587 0.90542,0.245975 0.20761,0.06946 0.42717,0.11507 0.62421,0.213394 0.092,0.04591 0.17333,0.111242 0.26466,0.15847 1.17323,0.548587 2.94875,1.588619 -2.9976,-1.737982 -0.0438,-0.0245 0.0704,0.07185 0.10083,0.111765 0.0721,0.09461 0.0729,0.121608 0.11304,0.230884 0.0477,0.227671 -0.0403,0.457676 -0.17935,0.63541 -0.15019,0.24993 -0.36439,0.315886 -0.63742,0.345527 -0.30809,0.03362 -0.62084,-0.0223 -0.9222,0.05266 -0.36681,0.06918 -0.72614,0.169775 -1.09601,0.228473 -0.33565,0.0372 -0.66772,0.162179 -0.951,0.345096 -0.2422,0.0607 -0.4922,0.112461 -0.7224,0.212129 -0.30632,0.113528 -0.63996,0.126982 -0.96341,0.142328 -0.36131,-0.02432 -0.70583,0.08204 -1.06018,0.1309 -0.0508,0.005 -0.10157,0.01 -0.15235,0.01498 0,0 3.25045,2.299335 3.25045,2.299335 v 0 c 0.053,-0.0082 0.10599,-0.0164 0.15898,-0.02461 0.34528,-0.06075 0.68862,-0.10278 1.0401,-0.106394 0.34993,-0.03661 0.69778,-0.09189 1.026,-0.224917 0.25955,-0.06546 0.52115,-0.147199 0.75943,-0.268857 0.2799,-0.123349 0.56861,-0.205867 0.87352,-0.240892 0.36271,-0.07467 0.72217,-0.166913 1.09062,-0.210468 0.31534,7.93e-4 0.63446,-0.0049 0.94207,-0.08166 0.32944,-0.107924 0.59916,-0.287949 0.78969,-0.584841 0.19897,-0.281678 0.31249,-0.585488 0.33906,-0.931513 -0.1877,-1.729002 -2.44321,-2.111023 -3.91192,-2.824144 -0.30209,-0.144573 -0.63264,-0.225663 -0.96316,-0.274502 -0.30667,-0.06749 -0.59002,-0.201613 -0.89743,-0.259932 -0.41359,-0.04255 -0.75387,0.137747 -1.06839,0.398555 -0.3625,0.299429 -0.73791,0.578151 -1.11997,0.852119 -0.37353,0.36638 -0.72362,0.75532 -1.09641,1.122461 -0.62284,0.643519 -1.24574,1.286417 -1.86124,1.937006 z" />
    <path
       style="fill:#892ca0;stroke-width:0.617108"
       d="m 402.97161,664.50751 c -7.3906,-0.43156 -19.14997,-2.10747 -25.30144,-3.60588 -7.70973,-1.87799 -37.93537,-7.94804 -44.24144,-8.88477 -2.44088,-0.36257 -6.84237,-0.65923 -9.78108,-0.65923 -4.86303,0 -39.14733,2.56021 -46.0641,3.43988 l -2.8921,0.36781 0.26905,-3.29234 c 0.14797,-1.81078 0.5543,-7.31897 0.90296,-12.24041 2.286,-32.26801 3.79867,-44.09125 8.06557,-63.04177 5.50274,-24.43929 9.10233,-30.86182 39.97314,-71.3216 l 13.76337,-18.03849 1.76698,0.91374 c 2.75036,1.42227 3.56462,1.03569 1.51972,-0.7215 -1.71595,-1.47452 -1.53675,-1.52947 1.38849,-0.4257 0.59397,0.22411 -0.62587,-0.86416 -2.71075,-2.41841 -2.08489,-1.55423 -4.55316,-3.78145 -5.48506,-4.94936 -4.73898,-5.93918 -13.80927,-35.18002 -15.42055,-49.71286 -1.5433,-13.91976 -1.02433,-17.86642 2.90063,-22.05864 0.97932,-1.04599 1.63072,-2.29564 1.44756,-2.77698 -0.46472,-1.2213 6.91118,-10.85773 10.89519,-14.23429 4.23039,-3.58538 18.37933,-14.11136 18.91579,-14.07223 0.22597,0.0165 1.64006,1.53406 3.14241,3.37242 1.50235,1.83835 3.91652,4.50542 5.36483,5.92684 l 2.6333,2.58438 -0.35583,-3.64265 -0.35582,-3.64265 1.94326,1.8219 c 1.85095,1.73536 2.25378,3.29118 0.76657,2.96069 -1.36514,-0.30336 -0.65256,0.47367 1.92846,2.10289 1.44249,0.91054 3.84187,3.01145 5.33195,4.66869 2.11344,2.35052 3.05904,2.97205 4.29983,2.82624 2.42704,-0.28522 4.16968,-3.40404 4.65543,-8.33191 0.59126,-5.9982 0.77631,-6.12679 4.71658,-3.27733 2.97129,2.14873 3.78137,2.43678 6.90227,2.45435 l 3.53589,0.0199 1.85594,3.23982 c 1.54698,2.70048 1.69303,3.27498 0.87728,3.45107 -0.7838,0.16918 -0.63781,0.56704 0.7332,1.99806 0.94152,0.98274 2.87699,4.63661 4.30101,8.11971 1.42403,3.48309 3.58385,8.55449 4.79961,11.26976 1.21576,2.71528 2.95627,7.83955 3.86781,11.38728 1.48028,5.76129 1.61899,7.17876 1.29837,13.26783 -0.7883,14.97053 -3.95366,31.27862 -7.49337,38.60622 l -1.0471,2.16763 12.2323,17.99152 c 14.03828,20.64778 21.83514,33.11668 23.92588,38.26275 0.80213,1.97435 4.41237,14.00342 8.02274,26.73128 3.61038,12.72785 7.80656,27.39369 9.32483,32.59074 5.19793,17.79243 11.825,34.3531 17.17816,42.92728 3.07633,4.92735 10.67436,12.20707 16.23688,15.55665 1.92598,1.15976 3.09101,2.10865 2.58896,2.10865 -1.63717,0 -14.97308,1.77261 -18.45348,2.45284 -1.86675,0.36485 -7.69842,0.94762 -12.95927,1.29506 -5.26085,0.34743 -14.28605,1.30023 -20.05601,2.11733 -17.11394,2.42356 -28.94117,3.09018 -41.6548,2.34779 z"
       id="path21"
       transform="scale(0.26458333)" />
    <path
       style="fill:#892ca0;stroke-width:0.617108"
       d="m 462.75091,446.0149 c -2.57376,-2.63042 -6.76436,-7.43618 -9.31247,-10.67945 -2.54811,-3.24328 -6.43184,-7.32831 -8.63051,-9.07785 -2.19868,-1.74954 -5.90886,-5.31648 -8.24486,-7.92655 -4.53667,-5.06893 -8.37614,-8.40979 -15.83787,-13.78107 -3.97249,-2.85958 -4.86975,-3.85109 -6.03993,-6.67434 -3.67867,-8.87545 -15.31322,-17.9562 -25.45876,-19.87053 -2.28307,-0.43078 -4.15104,-1.04329 -4.15104,-1.36112 0,-0.75155 1.79316,-4.21923 2.18178,-4.21923 0.16432,0 2.67217,1.57947 5.573,3.50993 l 5.27424,3.50993 5.36482,-1.73742 c 2.95065,-0.95558 6.66844,-2.39305 8.26175,-3.19437 3.17495,-1.59679 4.226,-1.75093 10.79983,-1.58383 l 4.44012,0.11286 2.65662,3.33295 c 1.46114,1.83313 4.73935,6.04924 7.28492,9.36916 11.71076,15.27306 17.78302,20.77725 32.70674,29.64697 9.28689,5.51956 12.52959,7.16528 18.82179,9.55238 7.01241,2.66033 6.95092,2.53203 3.81372,7.95803 -2.47092,4.27363 -13.12903,14.89791 -16.66019,16.60731 -1.47929,0.71612 -3.88475,1.28883 -5.41325,1.28883 -2.61729,0 -2.9782,-0.2323 -7.43045,-4.78259 z"
       id="path22"
       transform="scale(0.26458333)" />
    <path
       style="fill:#892ca0;stroke-width:0.617108"
       d="m 313.43798,759.18228 c 1.4594,-3.83853 5.8323,-11.79229 9.74605,-17.72686 l 4.27321,-6.47964 4.15955,0.20847 4.15956,0.20847 3.07649,4.7284 c 4.29322,6.59845 3.64641,8.50287 -4.29658,12.65049 -4.61925,2.41204 -16.42399,6.96502 -19.60662,7.56209 -2.0354,0.38184 -2.08131,0.34687 -1.51166,-1.15142 z"
       id="path23"
       transform="scale(0.26458333)" />
    <path
       style="fill:#4d4d4d;stroke-width:0.617108;fill-opacity:1"
       d="m 430.43292,769.80402 c -5.23701,-0.598 -19.57866,-4.25937 -20.17785,-5.15133 -0.23671,-0.35237 -0.76057,-2.59179 -1.16414,-4.9765 -0.79786,-4.71465 -0.42446,-7.11951 1.96951,-12.68445 0.84944,-1.97458 1.91786,-3.27748 3.29642,-4.01988 l 2.03963,-1.09842 3.31557,2.05128 c 1.82356,1.12821 6.15351,3.21223 9.62211,4.63116 5.40482,2.21099 7.03351,3.24144 11.39078,7.20678 l 5.08424,4.62691 0.24901,4.40689 c 0.24333,4.30627 0.2113,4.42123 -1.40295,5.03496 -1.87378,0.71241 -7.84422,0.70091 -14.22233,-0.0274 z"
       id="path24"
       transform="scale(0.26458333)" />
    <path
       style="fill:#4d4d4d;fill-opacity:1;stroke-width:0.264583"
       id="path25"
       d="m 86.36161,94.010436 c 0.841209,-0.130087 1.684301,-0.186491 2.534063,-0.153979 0.05176,0.01085 0.349644,0.0697 0.41194,0.09552 0.04806,0.01992 0.08777,0.05589 0.13166,0.08384 0.0492,0.02056 0.09745,0.04359 0.147616,0.0617 0.293089,0.105823 0.02122,-0.01836 0.30195,0.119808 -8.068987,-3.368421 -3.902482,-2.507776 -3.017533,-1.687322 0,0 3.644196,1.614596 3.644196,1.614596 v 0 c -0.491307,-1.390449 -3.392897,-2.062532 -3.752357,-2.391788 -0.35233,-0.121507 -0.68643,-0.261858 -1.071296,-0.232333 -0.858514,0.0038 -1.708809,0.10722 -2.561489,0.199644 z" />
    <path
       style="fill:#892ca0;fill-opacity:1;stroke-width:0.617108"
       d="m 422.41051,357.01283 c -10.05168,-2.17309 -10.05511,-2.17574 -4.07033,-3.13956 5.62114,-0.90526 10.23271,-2.83769 13.48099,-5.64905 3.2412,-2.80524 5.00879,-3.97355 18.97632,-12.54272 5.43055,-3.33167 14.10863,-8.08453 19.28463,-10.56191 7.24435,-3.46736 9.4109,-4.77373 9.4109,-5.67454 0,-0.77906 -1.59859,-2.21601 -4.78259,-4.29901 -5.96409,-3.90175 -6.61545,-4.14154 -15.46099,-5.69195 -3.96975,-0.6958 -9.99472,-1.93556 -13.38882,-2.75502 -4.07909,-0.98485 -9.09986,-1.63476 -14.81059,-1.91715 -6.86569,-0.33951 -8.78423,-0.62964 -9.34433,-1.41308 -4.06732,-5.68918 -12.67451,-15.76486 -15.41295,-18.04257 -4.392,-3.65308 -16.80187,-10.56057 -22.25927,-12.38979 -3.74118,-1.25397 -5.23209,-1.39368 -13.55756,-1.27045 -8.51584,0.12605 -9.87997,0.3069 -15.22167,2.018 -8.47454,2.71464 -12.16189,5.43446 -24.79285,18.28739 -6.91712,7.03868 -11.93396,11.64227 -13.29733,12.202 -3.25513,1.33639 -14.4355,2.83787 -21.13136,2.83787 -6.01317,0 -14.79912,-1.32724 -16.1372,-2.43774 -0.82613,-0.68563 -2.19685,0.29496 -2.19685,1.57158 0,0.95148 3.75815,4.25158 6.33369,5.56171 2.31799,1.17914 21.3966,15.17398 26.33264,19.31594 1.84453,1.54779 5.54418,5.45648 8.22144,8.68597 l 4.86776,5.8718 -4.31514,0.30856 c -2.37333,0.1697 -4.50169,0.49602 -4.7297,0.72515 -0.22801,0.22914 0.77472,1.20108 2.22829,2.15988 l 2.64284,1.74328 -3.35761,0.19397 c -1.84668,0.10669 -5.62385,-0.12675 -8.39372,-0.51876 -4.07926,-0.57731 -5.31037,-1.0115 -6.47963,-2.2852 -2.36673,-2.57815 -13.32486,-9.41259 -20.26532,-12.63921 -3.5638,-1.65681 -9.25662,-4.36821 -12.65072,-6.02533 -3.39409,-1.65711 -7.6333,-3.50576 -9.42047,-4.1081 -4.13496,-1.39363 -9.86435,-6.01425 -12.44601,-10.03742 -2.1989,-3.42669 -2.63122,-6.7539 -1.37295,-10.56651 0.60718,-1.83977 1.23294,-2.355 4.30863,-3.54763 5.9658,-2.31329 7.72616,-4.91879 5.0241,-7.43615 -0.6908,-0.64358 -3.79632,-2.66771 -6.90116,-4.49808 -3.10484,-1.83036 -6.97327,-4.65067 -8.5965,-6.26735 -3.68325,-3.66836 -6.57879,-8.40413 -5.53346,-9.05018 0.40336,-0.2493 3.29196,0.0534 6.41911,0.67262 3.12714,0.61923 10.96199,1.39883 17.41077,1.73242 6.44878,0.3336 12.83584,0.86264 14.19348,1.17563 1.35764,0.313 4.73967,0.75365 7.51562,0.97921 4.01247,0.32605 5.43763,0.20822 6.95165,-0.57471 1.04746,-0.54166 4.33019,-1.83279 7.29498,-2.86917 7.68939,-2.68795 10.36001,-4.40737 12.82101,-8.25453 3.45537,-5.40161 17.838,-25.29376 20.73546,-28.67853 5.9213,-6.91719 20.71567,-14.40074 31.78296,-16.077 5.68845,-0.86159 12.31187,-3.35697 14.13676,-5.32606 l 1.28839,-1.3902 3.0244,2.15027 c 1.66342,1.18265 4.73131,2.95674 6.81752,3.94243 3.51101,1.65887 10.57069,6.09893 16.69064,10.49727 1.40371,1.00884 5.15265,3.18111 8.33096,4.82727 3.1783,1.64616 9.11112,5.18156 13.18404,7.85646 4.07291,2.67489 8.93264,5.47105 10.79939,6.21369 3.85729,1.53452 30.34577,8.15321 40.11203,10.02283 3.5638,0.68223 11.47821,2.38656 17.58758,3.7874 6.53159,1.49764 14.28597,2.82439 18.8218,3.22035 4.24261,0.37037 7.94712,0.88027 8.23223,1.13312 0.60954,0.54055 -4.62962,4.29811 -5.99285,4.29811 -0.51278,0 -1.09865,0.26912 -1.30194,0.59804 -0.49782,0.80549 -9.83402,3.72123 -11.92297,3.7236 -2.19077,0.002 -12.52887,3.22155 -26.65807,8.30077 -6.27908,2.25723 -12.70684,4.26365 -14.28391,4.45873 -2.80465,0.34691 -4.79102,1.11119 -4.21146,1.62039 0.15987,0.14047 3.08074,2.05468 6.49082,4.25379 l 6.20015,3.99839 8.96036,0.42338 c 10.38944,0.4909 18.35164,-0.2136 27.69945,-2.45087 8.04085,-1.92447 14.11336,-2.5098 15.93328,-1.5358 1.52525,0.81629 3.36395,4.11831 4.36654,7.84164 1.31194,4.87219 1.83926,13.22684 1.03141,16.34121 -1.02068,3.93482 -5.44909,11.24947 -9.25913,15.29382 -8.49166,9.01389 -24.87877,16.55658 -43.85317,20.18482 -7.78234,1.48813 -10.32325,1.67383 -25.60999,1.87166 -15.02842,0.19449 -17.60606,0.0822 -22.52445,-0.98109 z"
       id="path26"
       transform="scale(0.26458333)" />
    <path
       style="fill:#892ca0;fill-opacity:1;stroke-width:0.617108"
       d="m 425.80461,768.64633 c -6.85342,-1.44925 -14.25952,-3.55999 -14.96438,-4.26486 -0.82807,-0.82806 -1.66605,-4.93458 -1.68282,-8.24659 -0.0286,-5.65282 4.08864,-13.44525 7.10402,-13.44525 0.51051,0 1.96404,0.65021 3.23008,1.44491 1.26604,0.7947 5.26975,2.76647 8.89712,4.38172 6.41311,2.85572 9.11349,4.68238 14.54073,9.836 2.57561,2.44576 2.62271,2.56457 2.62271,6.61573 0,3.19241 -0.22073,4.20995 -0.97614,4.49982 -1.99754,0.76653 -13.67924,0.25531 -18.77132,-0.82148 z"
       id="path27"
       transform="scale(0.26458333)" />
    <path
       style="fill:#4d4d4d;fill-opacity:1;stroke-width:0.617108"
       d="m 420.25064,356.24333 -5.86253,-1.32596 4.0112,-0.75281 c 5.72981,-1.07535 10.5221,-3.02728 13.32702,-5.42819 5.45457,-4.66891 21.91675,-14.67199 36.65874,-22.27532 12.60147,-6.49933 12.97287,-6.97122 8.21516,-10.43779 -1.63336,-1.19009 -4.35823,-2.86443 -6.05528,-3.72076 -4.36433,-2.20223 -28.47195,-6.97083 -39.18637,-7.75126 l -8.33096,-0.60683 -2.15988,-2.5815 c -14.05161,-16.79461 -16.09821,-18.58518 -28.48404,-24.92069 -9.36664,-4.79115 -12.45097,-5.46406 -23.04449,-5.02766 -8.86793,0.36532 -11.09584,0.76343 -16.97047,3.03247 -5.98746,2.31262 -9.72905,5.22173 -21.66607,16.84545 -6.43052,6.26174 -12.51634,11.81135 -13.52406,12.33246 -4.95176,2.56065 -24.90548,3.67138 -32.69176,1.81979 -6.01281,-1.42985 -6.4505,-1.41596 -6.68129,0.21204 -0.27204,1.91905 0.4127,2.62179 6.39098,6.55902 2.82589,1.8611 10.15639,7.15573 16.29,11.76585 8.88464,6.67783 12.27325,9.6629 16.66669,14.68192 l 5.51466,6.29988 -3.92593,0.61711 c -2.15926,0.33941 -4.09696,0.79083 -4.30599,1.00315 -0.20903,0.21233 0.53419,1.15719 1.65161,2.09969 l 2.03166,1.71364 -6.55732,-0.33225 c -7.05231,-0.35734 -7.82941,-0.62919 -12.9639,-4.5352 -5.31612,-4.04416 -14.22739,-9.01688 -26.14478,-14.58942 -6.10937,-2.85673 -12.07989,-5.57398 -13.26783,-6.03833 -5.12282,-2.00245 -11.16341,-7.07195 -13.3337,-11.19017 -1.26947,-2.40887 -1.45171,-7.59918 -0.33836,-9.63652 0.4188,-0.76635 2.48612,-2.17743 4.59405,-3.13571 4.51092,-2.05071 5.53499,-3.11288 5.26568,-5.4616 -0.16624,-1.44982 -1.31252,-2.46342 -6.98706,-6.17832 -7.55736,-4.9475 -12.14948,-9.12475 -13.98394,-12.72058 -0.67172,-1.31668 -1.13251,-2.47499 -1.02398,-2.57401 0.10853,-0.099 2.69661,0.19866 5.7513,0.66151 3.05468,0.46285 11.2468,1.26428 18.20469,1.78097 6.95789,0.51668 14.31691,1.21625 16.35336,1.5546 7.22113,1.19975 9.87295,0.84547 18.49241,-2.47059 4.40086,-1.69308 8.98288,-3.86572 10.18228,-4.82807 1.1994,-0.96236 4.4839,-5.05837 7.29889,-9.10226 10.67196,-15.33087 17.95059,-24.61642 21.3941,-27.29307 3.88579,-3.02043 11.95487,-7.44476 16.99385,-9.31784 1.86676,-0.6939 6.44878,-1.9395 10.18229,-2.76801 7.37844,-1.63735 12.21736,-3.46295 14.26819,-5.38304 l 1.30893,-1.22547 2.70228,1.81087 c 1.48625,0.99598 5.34041,3.26461 8.5648,5.04139 3.22439,1.77679 7.95978,4.69338 10.5231,6.4813 2.56332,1.78793 7.97844,5.13069 12.0336,7.42837 4.05518,2.29768 10.01118,5.83778 13.23557,7.86689 9.78784,6.15951 11.961,7.04878 25.91854,10.60608 18.97784,4.83679 51.95457,11.78473 61.71082,13.00197 4.58203,0.57168 8.39697,1.09722 8.47764,1.16786 0.0807,0.0706 -0.62189,0.69667 -1.56127,1.39119 -3.11631,2.30398 -10.51672,5.14793 -17.29963,6.64818 -3.68262,0.81453 -12.08639,3.32008 -18.67505,5.56788 -12.49066,4.26135 -20.02804,6.64549 -24.47582,7.74191 -1.44249,0.35558 -2.62158,0.84408 -2.6202,1.08556 0.001,0.24147 2.98665,2.38182 6.63391,4.75634 l 6.6314,4.31729 13.57638,-0.0261 c 12.90318,-0.0249 14.03153,-0.12419 22.7553,-2.00314 5.04841,-1.08734 10.79175,-1.97698 12.76298,-1.97698 3.21386,0 3.70531,0.17528 4.75804,1.69704 1.97493,2.85483 3.15234,6.60035 3.8657,12.29736 0.8645,6.90404 0.40123,9.98657 -2.26654,15.08118 -4.90356,9.36428 -11.37956,15.3173 -22.74513,20.90835 -8.72776,4.29343 -16.13278,6.82154 -26.43545,9.02519 -6.98563,1.49416 -8.83055,1.6204 -26.63585,1.82254 -17.79568,0.20203 -19.53935,0.12467 -24.99287,-1.10879 z"
       id="path28"
       transform="scale(0.26458333)" />
    <path
       style="fill:#330080;fill-opacity:1;stroke-width:0.264583"
       id="path29"
       d="m 61.978851,112.00246 c -0.284474,0.73208 -0.627483,1.43899 -0.886145,2.18099 0,0 3.467587,1.90686 3.467587,1.90686 v 0 c 0.224211,-0.7407 0.561091,-1.43793 0.869667,-2.14619 z" />
    <path
       style="fill:#892ca0;fill-opacity:1;stroke-width:0.617108"
       d="m 245.50912,446.83368 c -0.25179,-4.78487 0.32866,-11.86063 1.13038,-13.77942 0.62944,-1.50647 0.69505,-2.33792 0.2288,-2.89972 -0.50669,-0.61051 0.50267,-1.22408 4.48832,-2.72836 6.0968,-2.30108 10.12665,-4.65343 17.84534,-10.41686 3.14584,-2.34896 9.32979,-6.64445 13.74212,-9.54553 4.41232,-2.90108 10.38284,-7.40434 13.26782,-10.00724 6.07595,-5.48186 10.19521,-8.42842 16.66192,-11.91848 7.41871,-4.00385 8.22033,-4.01814 4.6783,-0.0834 -3.16018,3.51059 -8.0706,10.50204 -9.91909,14.1228 -1.25937,2.46681 -14.12457,15.99555 -23.47365,24.68433 -10.93592,10.16355 -30.92945,23.35205 -36.68098,24.1962 -1.7198,0.25241 -1.87736,0.12246 -1.96928,-1.62436 z"
       id="path30"
       transform="scale(0.26458333)" />
    <path
       style="fill:#e9c6af;fill-opacity:1;stroke-width:0.617108"
       d="m 365.79758,380.29288 c -0.84054,-1.10308 -3.11075,-5.19913 -5.0449,-9.10234 -1.93416,-3.90321 -3.98697,-8.0447 -4.5618,-9.2033 -0.88511,-1.784 -2.08967,-2.58721 -7.86645,-5.24542 -8.58887,-3.95222 -9.8294,-4.86771 -15.02485,-11.08801 -5.77393,-6.91289 -10.50804,-11.43492 -16.38477,-15.65076 -2.7239,-1.95407 -7.97457,-5.84386 -11.66816,-8.64399 l -6.71562,-5.09114 7.63423,-0.004 c 7.31999,-0.003 17.06024,-1.09796 22.28012,-2.50353 2.02195,-0.54446 4.31581,-2.56304 12.73199,-11.20407 13.03196,-13.38012 17.89188,-17.08221 25.71392,-19.58783 5.24433,-1.67991 6.68857,-1.87604 14.32247,-1.94502 4.66951,-0.0422 9.62802,0.23309 11.01889,0.61173 2.8026,0.76296 4.93874,2.99897 13.63058,14.26779 5.86169,7.59957 6.5135,8.23026 12.31686,11.91771 8.53543,5.42341 8.79531,5.50493 19.34957,6.06941 9.38325,0.50185 17.50012,1.44275 18.66689,2.16385 0.32406,0.20028 -1.86895,1.67936 -4.87337,3.28685 -9.25889,4.95392 -28.12337,16.6495 -31.4982,19.52824 -3.8802,3.30981 -5.7998,4.15203 -12.56213,5.51158 -5.84471,1.17506 -9.30057,2.75039 -20.0275,9.12935 -8.29156,4.93071 -12.41212,8.62728 -14.74201,13.22509 -1.7936,3.53951 -4.07979,11.30263 -4.07979,13.8536 0,2.2433 -0.74522,2.15894 -2.61597,-0.29615 z m 3.85019,-49.14486 c 0,-2.08745 -10.48318,-9.75667 -22.40352,-16.38981 -3.85138,-2.14313 -4.50916,-2.31401 -7.94931,-2.06517 -3.36427,0.24334 -3.93242,0.48905 -5.51697,2.38591 -2.19636,2.62925 -2.90927,5.11788 -2.34853,8.19818 0.58359,3.2058 2.27159,5.36778 5.46667,7.00164 2.45305,1.25441 3.46969,1.3542 13.07826,1.28373 10.05487,-0.0737 10.38278,-0.11582 9.39631,-1.20586 -1.35517,-1.49744 -0.8741,-1.42599 2.67601,0.39744 3.70601,1.90351 7.60108,2.10538 7.60108,0.39394 z m 24.79092,-0.0808 c 0.1152,-0.34559 1.73511,-0.79127 3.5998,-0.99039 1.86469,-0.19912 5.58408,-1.03575 8.2653,-1.85919 2.68123,-0.82344 6.56762,-1.67408 8.63643,-1.89031 2.97374,-0.31082 4.1175,-0.74919 5.4616,-2.09329 0.93507,-0.93508 1.70014,-2.15444 1.70014,-2.7097 0,-0.55525 0.2777,-0.83792 0.61711,-0.62815 0.33941,0.20976 0.61711,0.0873 0.61711,-0.27214 0,-0.35944 -0.2777,-0.65353 -0.61711,-0.65353 -0.33941,0 -0.61711,-0.51794 -0.61711,-1.15099 0,-2.16072 -2.70589,-4.59433 -7.68039,-6.90756 -9.64435,-4.48479 -14.49818,-5.58995 -17.57132,-4.00077 -2.32099,1.20023 -16.09453,14.36641 -16.09453,15.38482 0,0.61103 12.01679,8.31693 13.06212,8.37622 0.22627,0.0128 0.50566,-0.25942 0.62085,-0.60502 z"
       id="path31"
       transform="scale(0.26458333)" />
    <path
       style="fill:#e9c6af;fill-opacity:1;stroke-width:0.617108"
       d="m 522.69058,456.89431 c -8.00945,-0.92082 -13.15441,-1.69736 -16.66191,-2.51484 l -3.3941,-0.79105 3.69976,-0.31553 3.69976,-0.31552 -4.16259,-3.05029 c -3.94349,-2.88973 -4.9535,-4.04646 -3.53322,-4.04646 0.34615,0 1.68002,0.66325 2.96415,1.47388 4.29459,2.71106 10.86192,5.76678 15.84538,7.37271 2.71528,0.87501 5.76997,1.8587 6.78819,2.18598 2.24675,0.72215 1.02845,0.72241 -5.24542,10e-4 z"
       id="path32"
       transform="scale(0.26458333)" />
  </g>
</svg>
